<svg xmlns="http://www.w3.org/2000/svg" width="719.266" height="773.356" viewBox="0 0 719.266 773.356">
  <defs>
    <style>
      .cls-1 {
        fill: #009775;
      }
    </style>
  </defs>
  <g id="Group_1168" data-name="Group 1168" transform="translate(17693.523 2507.306)">
    <g id="Group_1105" data-name="Group 1105" transform="translate(-4047.57 3692.539)">
      <path id="Path_7657" data-name="Path 7657" class="cls-1" d="M-13591.295-5429.609c-.407-1.248-10.389-30.61-46.982-34.1l1.518-15.928c47.405,4.515,60.194,43.527,60.716,45.186l-15.264,4.8,7.632-2.4Z" transform="translate(-0.481 -4.952)"/>
      <path id="Path_7658" data-name="Path 7658" class="cls-1" d="M-13536.733-5431.817c-.354-.708-3.545-7.325-6.674-21.716-2.434-11.193-7.049-22.362-36.412-35.914-30.518-14.084-60.44-24.229-60.739-24.331l5.117-15.159c1.253.423,31.04,10.522,62.327,24.962,32.394,14.951,41.554,29.618,45.342,47.042,2.673,12.293,5.324,17.908,5.35,17.959Z"/>
      <path id="Path_7659" data-name="Path 7659" class="cls-1" d="M-13472.887-5435.4h-16c0-57.643-51.392-92.351-74.836-99.334-28.548-8.5-75.773-31.36-77.771-32.329l6.985-14.395c.478.231,48.055,23.258,75.354,31.39C-13531.008-5541.679-13472.887-5502.619-13472.887-5435.4Z"/>
      <path id="Path_7660" data-name="Path 7660" class="cls-1" d="M-13424.562-5429.027c-23.786-8.122-34.24-51.545-42.171-91.609-.806-4.071-1.507-7.616-2.127-10.407-3.312-14.9-62.663-43.928-115.467-56.469-52.981-12.583-61.3-84.428-61.628-87.48l15.907-1.719c.07.635,7.46,63.667,49.418,73.631,41.286,9.806,121.038,39.984,127.389,68.565.642,2.889,1.369,6.558,2.2,10.771,4.369,22.07,14.6,73.754,31.646,79.574Z"/>
      <path id="Path_7661" data-name="Path 7661" class="cls-1" d="M-13312.008-5427.853a19.923,19.923,0,0,1-8.951-2.191c-.759-.368-2.459-1-4.845-1.91-19.279-7.378-70.491-26.977-84.269-58.551-15.965-36.585-57.31-91.479-90.307-95.033-42.424-4.569-99.9-80.675-109.06-114.678-8.035-29.845-35.188-76.313-35.461-76.779l13.8-8.1c1.16,1.977,28.515,48.785,37.111,80.717,8.077,30,60.647,99.2,95.323,102.93,45.253,4.874,89.858,73.833,103.258,104.542,11.1,25.428,59.438,43.928,75.323,50.008,3.148,1.2,5.344,2.073,6.282,2.542a2.816,2.816,0,0,0,2.424.368l8.868,13.3A16.58,16.58,0,0,1-13312.008-5427.853Z"/>
      <path id="Path_7662" data-name="Path 7662" class="cls-1" d="M-13210.077-5428.185c-3.6-2.451-13.841-9.321-18.014-11.639-.752-.329-3.268-1.182-6.92-2.458-26.421-9.232-106.824-37.325-131.378-79.887-25.714-44.573-122.887-113.476-133.895-117.074-14.918-3.307-60.045-39.489-76.723-104.962-15.2-59.665-64.352-87.265-64.847-87.537l7.705-14.022c2.269,1.246,55.754,31.289,72.647,97.61,15.506,60.875,57.518,91.707,64.915,93.351,14.588,3.242,116.449,76.786,144.056,124.639,21.583,37.413,97.764,64.03,122.8,72.777,6.222,2.174,8.075,2.834,9.411,3.576,5.665,3.147,18.705,12.03,19.258,12.406Z"/>
      <path id="Path_7663" data-name="Path 7663" class="cls-1" d="M-13156.863-5431.188c-.229-.41-23.38-41.089-58.413-52.153-41.749-13.184-98.021-42.916-129.626-79.617-5.718-6.64-14.364-16.241-24.924-27.969-46.975-52.167-134.41-149.271-168.1-213.279-37.791-71.8-98.965-68.925-99.587-68.886l-.977-15.97c2.931-.185,72.17-3.447,114.722,77.4,32.758,62.24,119.324,158.377,165.83,210.025,10.66,11.838,19.387,21.531,25.159,28.234,29.554,34.32,82.729,62.3,122.319,74.8,41.159,13,66.5,57.708,67.562,59.6Z"/>
      <path id="Path_7664" data-name="Path 7664" class="cls-1" d="M-13120.216-5433.985c-9.282-66.306-43.872-77.831-80.492-90.033-16.212-5.4-32.977-10.988-47.342-21.436-20.154-14.657-30.291-34.448-41.023-55.4-15-29.285-32-62.478-80.794-96.919-50.284-35.495-78.155-78.016-102.745-115.532-18.361-28.013-34.219-52.205-55.922-68.483-50.243-37.682-109.539-43.078-110.132-43.128l1.325-15.945c2.6.215,64.356,5.736,118.406,46.273,23.948,17.96,41.315,44.458,59.7,72.512,23.808,36.323,50.792,77.492,98.59,111.231,52.011,36.713,70.751,73.3,85.809,102.7,10.687,20.864,19.127,37.344,36.192,49.755,12.362,8.99,27.239,13.947,42.99,19.2,37.789,12.592,80.621,26.864,91.279,102.994Z"/>
      <path id="Path_7665" data-name="Path 7665" class="cls-1" d="M-13066.355-5432.849c-.107-.691-11.275-69.561-52-102.711-42.411-34.521-214.383-195.467-248.472-246.6-28.267-42.4-89.205-118.036-179.753-148.218-92.11-30.7-99.1-78.733-99.355-80.762l7.938-.988,7.925-1.095c.061.4,7.069,40.506,88.553,67.667,95.078,31.692,158.6,110.416,188,154.521,31.119,46.678,198.424,204.944,245.259,243.066,45.545,37.072,57.238,109.6,57.714,112.666Z"/>
      <path id="Path_7666" data-name="Path 7666" class="cls-1" d="M-12980.724-5426.489c-49.2-16.4-60.164-58.335-68.169-88.955-3.257-12.457-6.333-24.223-11-28.64-19.709-18.671-218.446-253.928-240.377-280.036-20.17-24.012-196.925-133.291-259.737-166.724-65.646-34.94-85.071-137.409-85.866-141.754l15.738-2.883c.182.989,18.858,99.223,77.646,130.513,59.7,31.774,241.222,142.879,264.472,170.557,20.893,24.873,220.264,260.84,239.129,278.712,7.982,7.562,11.453,20.837,15.472,36.208,7.474,28.587,16.775,64.165,57.749,77.823Z"/>
      <path id="Path_7667" data-name="Path 7667" class="cls-1" d="M-12932.172-5455.009c-49.56-18.083-70.087-65.165-86.581-103-9.812-22.5-18.284-41.938-30.125-50.4-22.721-16.229-35.22-39.569-55.928-78.237-13.73-25.638-30.818-57.545-56.913-98.726-53.776-84.868-227.081-172.722-292.323-205.794-12.909-6.544-22.236-11.272-27.007-14.069-5.153-3.021-10.586-5.709-16.337-8.555-26.962-13.341-57.521-28.462-84.424-87.476-29.813-65.4-60.069-84.733-60.371-84.921l8.321-13.666c1.392.842,34.46,21.431,66.608,91.95,24.542,53.834,51.19,67.021,76.961,79.772,6.012,2.975,11.69,5.785,17.333,9.093,4.349,2.549,13.493,7.185,26.149,13.6,72.558,36.782,242.472,122.917,298.6,211.5,26.407,41.675,43.648,73.869,57.5,99.737,19.608,36.614,31.443,58.714,51.123,72.771,15.439,11.028,24.732,32.342,35.492,57.021,16.068,36.854,34.28,78.627,77.4,94.359Z"/>
    </g>
  </g>
</svg>
