<svg xmlns="http://www.w3.org/2000/svg" width="410.174" height="562.411" viewBox="0 0 410.174 562.411">
  <defs>
    <style>
      .cls-1 {
        fill: #febd23;
      }

      .cls-2 {
        fill: #fe8266;
      }

      .cls-3 {
        fill: #2fd5b1;
      }

      .cls-4 {
        fill: #4067f2;
      }

      .cls-5 {
        fill: #f97696;
      }
    </style>
  </defs>
  <g id="Group_1168" data-name="Group 1168" transform="translate(-268.275 -197.962)">
    <path id="Path_889" data-name="Path 889" class="cls-1" d="M195.4-5896.958c4.973-15.746-19.061,25.693-19.061,25.693s30.664,33.148,41.438,24.032,19.89-24.032,19.89-24.032S190.426-5881.211,195.4-5896.958Z" transform="translate(124.851 6447.204)"/>
    <path id="Path_890" data-name="Path 890" class="cls-1" d="M188.336-5898.282c3.13-9.909-12,16.174-12,16.174s19.3,20.867,26.084,15.128,12.52-15.128,12.52-15.128S185.205-5888.369,188.336-5898.282Z" transform="translate(136.213 6098.491)"/>
    <path id="Path_899" data-name="Path 899" class="cls-2" d="M15.762,19.136c-1.854,5.872,7.109-9.581,7.109-9.581S11.435-2.809,7.418.592A43.388,43.388,0,0,0,0,9.555S17.617,13.262,15.762,19.136Z" transform="translate(655.748 736.676) rotate(7)"/>
    <path id="Path_897" data-name="Path 897" class="cls-3" d="M7.038,0S17.414,13.258,22.89,12.393s-6.341,11.816-6.341,11.816S-3.049,19.022.409,12.393,7.038,0,7.038,0Z" transform="matrix(0.875, 0.485, -0.485, 0.875, 280.012, 388.25)"/>
    <path id="Path_898" data-name="Path 898" class="cls-3" d="M9.583,0S23.71,18.051,31.166,16.873s-8.633,16.089-8.633,16.089S-4.152,25.9.557,16.873,9.583,0,9.583,0Z" transform="matrix(-0.914, 0.407, -0.407, -0.914, 556.438, 723.439)"/>
    <path id="Path_900" data-name="Path 900" class="cls-4" d="M5.738,0,0,15.937l19.125,5.738L22.95,7.012Z" transform="translate(336.954 746.441) rotate(-50)"/>
    <rect id="Rectangle_567" data-name="Rectangle 567" class="cls-5" width="25.153" height="16.275" transform="translate(538.595 544.324)"/>
  </g>
</svg>
