<svg xmlns="http://www.w3.org/2000/svg" width="414.758" height="450.244" viewBox="0 0 414.758 450.244">
  <defs>
    <style>
      .cls-1 {
        fill: #febd23;
      }

      .cls-2 {
        fill: #fe8266;
      }

      .cls-3 {
        fill: #2fd5b1;
      }

      .cls-4 {
        fill: #4067f2;
      }
    </style>
  </defs>
  <g id="Group_1169" data-name="Group 1169" transform="translate(-1258.966 -323.124)">
    <path id="Path_891" data-name="Path 891" class="cls-1" d="M198.257-5873.916c-2.579,8.166,9.886-13.323,9.886-13.323s-15.9-17.193-21.49-12.465-10.315,12.465-10.315,12.465S200.836-5882.083,198.257-5873.916Z" transform="translate(1082.629 6396.67)"/>
    <path id="Path_893" data-name="Path 893" class="cls-2" d="M21.92,26.612c-2.579,8.165,9.886-13.325,9.886-13.325S15.9-3.905,10.315.823,0,13.288,0,13.288,24.5,18.444,21.92,26.612Z" transform="translate(1310.323 759.275) rotate(-73)"/>
    <path id="Path_892" data-name="Path 892" class="cls-3" d="M437.991-5891.949s22.95,29.325,35.063,27.412-14.025,26.138-14.025,26.138-43.35-11.474-35.7-26.138S437.991-5891.949,437.991-5891.949Z" transform="translate(1111.42 6422.071)"/>
    <path id="Path_894" data-name="Path 894" class="cls-4" d="M443.837-5926.847l-5.738,15.937,19.125,5.738,3.825-14.663Z" transform="translate(1162.593 6249.971)"/>
    <path id="Path_895" data-name="Path 895" class="cls-4" d="M462.043-5864.732l16.575,14.025-16.575,23.587-12.75-10.837Z" transform="translate(1133.548 6600.488)"/>
    <path id="Path_896" data-name="Path 896" class="cls-2" d="M462.077-5904.827c1.275-7,17.213,3.2,17.213,3.2l7.65,22.312-12.112-3.824S460.8-5897.822,462.077-5904.827Z" transform="translate(1186.784 6415.122)"/>
  </g>
</svg>
