<svg xmlns="http://www.w3.org/2000/svg" width="37.396" height="39.89" viewBox="0 0 37.396 39.89">
  <defs>
    <style>
      .cls-1 {
        fill: #e3e3e3;
      }
    </style>
  </defs>
  <g id="Group_1151" data-name="Group 1151" transform="translate(-3 -2)">
    <path id="Path_7707" data-name="Path 7707" class="cls-1" d="M9.493,2a2.493,2.493,0,1,0,0,4.986h4.986a2.493,2.493,0,1,0,0-4.986Z" transform="translate(5.972)"/>
    <path id="Path_7708" data-name="Path 7708" class="cls-1" d="M3,7.986A4.986,4.986,0,0,1,7.986,3a7.479,7.479,0,0,0,7.479,7.479h4.986A7.479,7.479,0,0,0,27.931,3a4.986,4.986,0,0,1,4.986,4.986V22.945H21.484l3.224-3.224A2.493,2.493,0,1,0,21.182,16.2L13.7,23.675a2.493,2.493,0,0,0,0,3.525l7.479,7.479a2.493,2.493,0,1,0,3.526-3.526l-3.224-3.223H32.917V35.41A4.986,4.986,0,0,1,27.931,40.4H7.986A4.986,4.986,0,0,1,3,35.41ZM32.917,22.945H37.9a2.493,2.493,0,1,1,0,4.986H32.917Z" transform="translate(0 1.493)"/>
  </g>
</svg>
