<svg xmlns="http://www.w3.org/2000/svg" width="200.826" height="55.131" viewBox="0 0 200.826 55.131">
  <defs>
    <style>
      .cls-1 {
        fill: #006837;
      }

      .cls-2 {
        fill: #136052;
        font-size: 38px;
        letter-spacing: 0.1em;
      }

      .cls-2, .cls-3 {
        font-family: SegoeUI, Segoe UI;
      }

      .cls-3 {
        fill: #af9c31;
        font-size: 36px;
        letter-spacing: 0.07em;
      }
    </style>
  </defs>
  <g id="KAruna-01" transform="translate(-20.42 -12.198)">
    <path id="Path_7795" data-name="Path 7795" class="cls-1" d="M70.093,27.028l-2.547,1.021A23.94,23.94,0,0,1,65.2,56.391l2.644,1.055a26.645,26.645,0,0,0,2.252-30.418ZM47.135,64.622a23.986,23.986,0,1,1,18.6-39.114l2.62-1.046a26.694,26.694,0,1,0-2.714,35.394l-2.79-1.119A23.858,23.858,0,0,1,47.135,64.622Z" transform="translate(0)"/>
    <text id="ARUNA" class="cls-2" transform="translate(79.246 53.198)"><tspan x="0" y="0">ARUNA</tspan></text>
    <text id="K" class="cls-3" transform="translate(35.639 51.198)"><tspan x="0" y="0">K</tspan></text>
  </g>
</svg>
