<svg xmlns="http://www.w3.org/2000/svg" width="98.108" height="27.326" viewBox="0 0 98.108 27.326">
  <defs>
    <style>
      .cls-1, .cls-2, .cls-3 {
        fill: #fff;
      }

      .cls-2 {
        font-size: 18px;
        letter-spacing: 0.1em;
      }

      .cls-2, .cls-3 {
        font-family: SegoeUI, Segoe UI;
      }

      .cls-3 {
        font-size: 17px;
        letter-spacing: 0.07em;
      }
    </style>
  </defs>
  <g id="KAruna-01" transform="translate(-20.42 -13.939)">
    <path id="Path_7795" data-name="Path 7795" class="cls-1" d="M45.844,20.638l-1.3.523a12.253,12.253,0,0,1-1.2,14.506l1.354.54a13.638,13.638,0,0,0,1.153-15.568ZM34.093,39.88A12.276,12.276,0,1,1,43.611,19.86l1.341-.535A13.663,13.663,0,1,0,43.563,37.44l-1.428-.573A12.211,12.211,0,0,1,34.093,39.88Z" transform="translate(0 0)"/>
    <text id="ARUNA" class="cls-2" transform="translate(50.528 33.119)"><tspan x="0" y="0">ARUNA</tspan></text>
    <text id="K" class="cls-3" transform="translate(28.209 32.119)"><tspan x="0" y="0">K</tspan></text>
  </g>
</svg>
