<svg xmlns="http://www.w3.org/2000/svg" width="33.377" height="33.377" viewBox="0 0 33.377 33.377">
  <defs>
    <style>
      .cls-1 {
        fill: #1fc39e;
        fill-rule: evenodd;
      }
    </style>
  </defs>
  <path id="Path_9663" data-name="Path 9663" class="cls-1" d="M18.688,35.377A16.688,16.688,0,1,0,2,18.688,16.688,16.688,0,0,0,18.688,35.377Zm7.733-18.163-6.258-6.258a2.086,2.086,0,1,0-2.95,2.95l2.7,2.7H12.43a2.086,2.086,0,0,0,0,4.172h7.481l-2.7,2.7a2.086,2.086,0,1,0,2.95,2.95l6.258-6.258a2.086,2.086,0,0,0,0-2.95Z" transform="translate(-2 -2)"/>
</svg>
