<svg xmlns="http://www.w3.org/2000/svg" width="427.33" height="98.202" viewBox="0 0 427.33 98.202">
  <defs>
    <style>
      .cls-1 {
        fill: #f7b70d;
        fill-rule: evenodd;
      }
    </style>
  </defs>
  <path id="Path_5015" data-name="Path 5015" class="cls-1" d="M2190.015,212.837a28.2,28.2,0,0,1-5.576-1.288c-1,.8-4.093-1.368-4.84,0-.828-.172-.1-.851-1.035-.989-.7,0-1.276.2-2.023.172a1.678,1.678,0,0,0-2.115-.264c.276.069.126.276.345.368a6.392,6.392,0,0,1,3.667.977,24.765,24.765,0,0,1-4.69-1.23c.241,0,.575.161.644,0-.6-.1-.54-.448-1.149-.552-.207.253.46.563-.311.345-.241-.2-.31-.46-.713-.6a10.346,10.346,0,0,1-4.771-.862,7.921,7.921,0,0,1-3.76-.391c-1.264-.287-2.357-.414-2.736.448a9.024,9.024,0,0,0-4.966-.782c-.38-.092,0-.471-.518-.529-1.816.46-4.07-1.265-6.139-1.242,0,.552,2.081.241,1.322.8-2.816-1.069-5.415-.425-7.679-.874,0,.333.874.3.713.7a15.452,15.452,0,0,1-2.851-.529c-.1.161-.345.2-.311.494-1.448-.575-2.863-.161-4.6-.161-.23-.356.609-.425.092-.54l-1.23-.2c.241.23.184.552-.3.517-1.7-.506-3.9-.483-5.438-1.276.54.6-.54,0-.632,0s0,.276,0,.276c-3.185.264-9.289-1.828-10.818-1.207.379-.287-.8-.966-1.586-.563-.184.356.379.31.345.586-4.9-.678-10.347-.943-16.095-1.253.161,0,.4,0,.414-.115a28.982,28.982,0,0,1-6.1,0c-2.023.2-5.748,0-6.9,0,.184-.08,1.15-.264.609-.4-2.184.862-4.058.747-7.07.8-.23.667-2.391.724-2.414.057.655-.092,1.012,0,1.207.241.253-.2,1.058,0,.8-.563-1.023,0-4.231-.057-2.61.471a10.507,10.507,0,0,0-3.541.092,13.793,13.793,0,0,1-3.276.253c-.437,1.368-4.208.494-3.932,1.207a2.748,2.748,0,0,0-2.564.437c1.736.253,2.9-.081,3.989.172-.667,0-1.23.057-1.379.356a2.817,2.817,0,0,0-2.575.161c0-.621-.8,0-.989.057-.276-.425.632-.138.368-.575a7.2,7.2,0,0,0-2.092.092,9.735,9.735,0,0,0-2.023.678,1,1,0,0,1,.8.184c-1.15-.081-2.3.793-2.575,0,.4-.126,1.311,0,1.368-.287a6.173,6.173,0,0,0-3.311.632c.253,0,1.414-.172.793.057-.9.23-1.15-.057-1.793-.092-1.863,1.23-3.345.943-5.357,1.621-.322-.46-1.472-.138-2.368,0a.573.573,0,0,1-.138.437c0,.368.759,0,.655.46a9.2,9.2,0,0,0-3.61.966c-.517-.207-2.909-.161-3.035.736a9.2,9.2,0,0,0,3.276-.483c.276.425,3.92-.874,3.725,0a.793.793,0,0,1,.713-.529,12.726,12.726,0,0,1,1.437.609c-.207-.966,1.15.287,1.3-.621.609-.184.437.322.816.333.506-.184.7-.552,1.3-.69a23.671,23.671,0,0,0,6.9-.391c1.15-.218,2.3-.379,3.449-.494a28.82,28.82,0,0,1,3.449-.2c-.977.2-2.23.218-2.713.713.345,0,.954-.448,1.15-.069-.333.149-.966.1-1.15.345,1.069.172,1.725-.6,2.127-.4-1.15.138.08.517,0,.552-.368.253-.977-.08-1.541.506,0-.253.207-.31.172-.563-.4.069-.368.4-.759.46-2.84-1.322-6.9.552-10.14.126-.092.724-.816.425-.782.08a2.219,2.219,0,0,0-1.253.966c-.931-.885-3.1.54-4.277,0-1.058,1-3.863.471-5.162.782.15,0,.207-.149.15-.3-.69,0-1.15,0-1.506.356.506.276.322-.253.931-.276-1.23,1.15-3.449.862-5.392,1.575a4.369,4.369,0,0,0-1.15-.172c-.276.448-1.357.54-2.207.724-.23-.368-.6-.563-1.437-.276.782-1.15,2.621-1.242,3.874-1.345-.77-.379.264-.69-.563-.874-.4.874-3.529.943-4.288,1.288.345-.126.8-.218.667-.552-.563.115-1.713,0-2.081.425.92-.31.839.322,1.322-.276a3.152,3.152,0,0,1-1.3,1.276c-.23-.379.6-.333.218-.77-.184,0-.241-.057-.4,0-.172.437-2,.678-1.345,1.058-1.4.138-3.449.759-3.748,1.678a20.153,20.153,0,0,0-6.449,1.265c0,.218.207.471,0,.586-.241-.241-.77-.126-1.15-.241.08.483-.517.149-.506.437.287,0,.311.23.506.287a1.805,1.805,0,0,0-.931.425c-.265-.368.621-.368.2-.782-.471.161-.667,0-1.058,0-.621.724-2.092.218-3.449,1.15.126.149.368.161.368.46-.771.2-.9-.368-1.656-.207.115.172.414.115.54.264a2.816,2.816,0,0,0-2.357.391c-.816.414-1.563.943-1.908,1.058.23-.1.46-.379.149-.333a109.085,109.085,0,0,1-10.519,3.047c0,.161.414.115.069.264-.839.172-3.541.46-5.875.793s-4.254.747-3.208,1.391c-.207.08-.529.115-.517.253.322,0,.77-.184.839,0a14.787,14.787,0,0,1-3.621.437,4.092,4.092,0,0,1-.759.7c-2.3-.6-3.449,1.15-5.748,1.023,0,.368,1.15,0,.943.425-3.162-.667-8.243.747-12.2.483-.08.368,1.563-.207,1.15.356-1.471-.115-3.449,0-5.552,0a38.872,38.872,0,0,1-5.691-.161c.736.437-.92.184-1,.54,2.115.954,4.472.149,7.611.851-.149.207.31.713-.276.7-.874-1.265-4.1-.483-6.127-.977-.115.207-.782.1-.517.54-1.885-.828-5.5-.724-8.047-.345-.621-.621-2.1,0-3.15-.356.448.207.3.793,1,.851.264-.356-.632-.609.23-.552.218,1.023,3.023.425,3.644.8-.586,0,.3.241,0,.552-.931-.414-1.8,0-2.6-.494-.494.4-2.242.77-1.265,0-.736.782-2.3.1-3.047.747,2.127-.057,2.966.6,4.679.678a5.471,5.471,0,0,1-2.518.207.542.542,0,0,0,.184.414c-2.92,0-4.737-.126-6.9.747,0-.161,0-.391-.184-.414a6.621,6.621,0,0,1-2.426.356h-2.518c.241,0,.471,0,.4-.276-.874,0-1.92-.1-2,.437-.46,0-.2-.6-.8-.54-.621.322-.874.874-1.6,1.15.644-.563-2.8-.736-1.851.2-1.276.126-1.989-.253-2.874.506a3.74,3.74,0,0,0-1.242-.655c.1-1.322-.333-1.472-.264-2.472,1.15.253,1.92.391,2.3-.494.241.368,1.9.3,2.3-.069,1.437.816,3.3-.391,5.484-.253-.115-.655.678-.172,1.012-.7a15.976,15.976,0,0,1-2.023-.241c.3.425,0,.529-.4.828-.276-.4-1.311-.276-1.609,0-.241-.575.851-.253,1-.563-.782-.184-1.713-.276-2.449-.506-.379.782-1.92.793-2.886.506-.414.333-.4.391,0,.69a9.288,9.288,0,0,0-3.035-.264,8.38,8.38,0,0,0-2.621.609c-.586-.989-2.3.414-2.966.126a1,1,0,0,0,.621-.448c-.644.126-.632-.207-1.276-.08.069.54-.759.529-1.265.747-.218-.253.644-.494,0-.552a9.037,9.037,0,0,1-3.92,0c-.173.46,0,.839-1.276.885a.563.563,0,0,0-.23-.54c.529-.207.908.368,1.081,0-1.288-.218-2.15.724-3.288-.126-.322.138-.862.149-.655.586.425-.08.161-.54.874-.46-.253.655.9.609,1.563.621-1.4.126-2.242,1.655-2.851.69-2.207.425-3.644,1.069-5.99,1.655,0,.2.379.218.46.391-1.149.333-1.943-.621-2.046.218a7.311,7.311,0,0,1,2.966.149,1.333,1.333,0,0,0-.9.322c1-.368.23.529,2.023.184-.161.529.667.391.7.793-.529.253-1.483.253-1.771.632a4.828,4.828,0,0,0,3.782-.448c-.333-.057-1.149.218-1.149-.08,1.241,0-.793-.46.437-.437a5.587,5.587,0,0,0,2.3.724c-.471-.54,1.035.322,1.322-.483.391.115.46.437.9.517,1.656-.954,4.955-1.012,6.691-1.276-.3.172-.966.161-.851.586.219,0,.264.1.448.115.632-.644,2.058,0,2.3-.782,1.15,0,1.046.092,1.69-.218.2.3-.092.655,1.069.517-.069-.287-.575-.253-.655-.529,1.7-.138,4.6.276,5.622-.483,2.748,2.023,6.783-1.012,8.887.494,0-.184.345-.126.391-.276-.517.092-.713,0-.6-.4a8.323,8.323,0,0,0,2.38-.3c-.287.747-1.816.667-2.38,1.253.425.264,1.483.057,2.173.126-.23.379-2.023.437-2.564.437,0,0-.115-.448-.4-.4s-.506.391-.793.425c-1.333.161-3.253-.529-3.989.345.724-.1,1.046.092,1.219.379a32.338,32.338,0,0,0-4.518,0c-1.437.1-2.92.218-4.943.253,0,.138.173.161.219.276-1.38-.253-2.874.322-4.437-.23,0,.2.345.218.425.391a15.477,15.477,0,0,1-2.368-.448c.46.31-.713.494-.851.874q0-.448-.655-.379c-.483.218.276.322-.207.414a18.152,18.152,0,0,1-3.276-.391c0,.253,1.15.414.46.667-1.368-.655-5.127.529-6.426.713.655-.2-.713-.4-.9-.092-.311-.333.874-.471.207-.563-.276.552-1.771.23-2.012.506-.345.506.77,0,.69.379a15.948,15.948,0,0,1-3.2.828c2.219.517,6.311-.759,9.266.138-.172.333-.977-.069-1.345-.08-.115.92-.77.115-1.322.483.6,1.081,2.391-.2,3.357.115-.276,0-.529.069-.437.3.219,0,.264.092.448.115,1.4-.161,3.748-.77,3.932,0,1.058-.115,1.851-1.15,2.794-.816a4.184,4.184,0,0,0-2.563,1.357c0,.2,1.563,0,.874.23a11.5,11.5,0,0,0-3.69-.23c.149-.23,1.058,0,.851-.46-.655.069-1.69-.069-1.736.356.655.2-.31.736-.425.437.6-.149-.207-.494-.471-.529,0,.207-.54.149-.885.172a.609.609,0,0,1-.207.563,5.6,5.6,0,0,1-1.575-.2c-2.793.9-7.012-.414-9.806.149.138,0,.276,0,.23.126-.495-.586-1.92,0-1.863-.483-.264.138-1.552.414-1.655.184.138-.241,1.149,0,1.149-.31s-.264-.207-.483-.253c-.609.391-.724.207-1.414,0l-.713.437c-1.471-.161-2.115-.092-3.552-.161a.494.494,0,0,0,.241.4,2.3,2.3,0,0,0-1.678.184,5.172,5.172,0,0,1,1.678.644c-1.023-.184-2.782,0-3.15-.632.437-.08,1.012.391,1.219,0a8.444,8.444,0,0,1-1.954-.517c0,.241-.242.322-.725.276.54.345-.287.77-.736.977-.161-.494.529-.529.494-.966-1.15.126-.264-.218-.736-.264-1.241,0-1.391.517-2.449.586.287.425,1.265.46,1.7.793-1.379.115-1.495-.494-2.678-.506,0,.345.471.425-.264.54-1.575-.851-4.794-.6-6.771-.736.345-.333.747.264,1.012-.126,0-.2-.552-.161-.747-.276-.149.333-.977.276-.782.816-1.414-.517-3.024-.161-4.886-.425-.253.2-.69,1.012-1.334.506.322,0,.621,0,.541-.253a29.962,29.962,0,0,0-3.633-.276c-.241.954-2.426.736-3.564,1.15-.575-.241.356-.322-.23-.437a38.213,38.213,0,0,1-8.208.287c1.771.4-1.747,0-.621.483a11.862,11.862,0,0,0-4.081-.713c.426.149.54-.6.081-.54s-.149.506-1.15.126c.092.517-.23.747-.977.69-.379-.138,0-.529-.471-.621a10.726,10.726,0,0,1-1.736,0,1.4,1.4,0,0,1,.781.529c-.92-.23-.506.218-.345.368a7.978,7.978,0,0,0-2.357.207c.127-.667.885-.9.264-1.495.9.069.885-.506,1.288-.782a72.579,72.579,0,0,0-13.624-.943c.448.54.345.931-.6,1.15-.54-1.46-2.38-1.828-4.518-2.069s-4.6-.368-6.277-1.46c-.161-.839.494-.724.793-1.483a4.955,4.955,0,0,1-3.254-2.15c-1.46-.736-2.3-.839-3.817-1.552-.092.149-.184.287-.6.092-.644-.356.759,0,.483-.563-1.667-.667-1.655-2.046-3.277-2.3a1.113,1.113,0,0,0,.3-1.506c-.069.161-.713-.069-.7-.253.391.092,0-.2-.426-.3.414.379-1.541.552-1.518-.115.874,0,2.46.356,2.046-.575.8.368,1.253.322,1.563.115a6.277,6.277,0,0,0-.747-.851,5.945,5.945,0,0,1,1.149-.31,8.947,8.947,0,0,0-2.23-1.276,4.151,4.151,0,0,0-2.6-.333c-.827-.494-1.288-1.954-2.414-1.334a2.3,2.3,0,0,1,1.023,1.15c-.839-.31-1.644-1.529-2.472-1.069a12.116,12.116,0,0,0,2.839,2.138,16.571,16.571,0,0,0,3.955,1.552,7.414,7.414,0,0,1-3.38-.931,26.683,26.683,0,0,1-3.265-1.966,7.451,7.451,0,0,1-3.667-1.667c-.483-.081-.678.23-1.15.161-.747-.31-1.7-1-2.6-1.472s-1.586-.6-1.8.172c-.678,0,.057-.471-.38-.563s-.678,0-.736.471c1.23,1.724,3.368,3.2,4.99,5.012-.644.149-1.495,0-1.771.678a7.309,7.309,0,0,1-2.379-1.391,15.322,15.322,0,0,1-1.61-1.747,7.1,7.1,0,0,0-3.61-2.817c.862-1.081-.368-2.058.736-2.955a.817.817,0,0,1-.54-.3c.46-1.012.943-1.678.448-2.6,0-.218.426,0,.517-.138-.494-.138-.241-.632-.368-.966.149-.149.6.149.69-.092,1.541-2.725,2.978-3.909,5.576-6.484,1.6-.172,2.667-1.15,4.346-1.288-.287-.69,1.3-.793.989-1.564.414.2.736.23.862,0-.448-.126-.713-.3-.667-.54.885.448.575-.46.621-.506.92-.8,2.817-1.035,3.656-2.046-1.943-1.253-4.6-.287-6.012-1.54-.793.138-1.9-.149-2.3.552.575.218,1.081.46.943.885a15.856,15.856,0,0,1-4.714-.322c-.311.563-1,.586-1.794.471a16.483,16.483,0,0,0-2.3-.287c-.069.264.414.287.207.621a12.729,12.729,0,0,0-2.885-.632h-1.472a6.614,6.614,0,0,0-1.333.1c-.759,1.483-3.713.862-3.84,2.541-.621.172-1.288.218-1.529.793.172.667.609,1.081.483,2.081-.31.713-1.23.736-1.655,1.265a.7.7,0,0,0-1.15-.471c.092.276.345.3.471.517a15.789,15.789,0,0,0-.391,2.38c-.333,0-.793-.115-.759.517.161.057.311-.46.437-.069-.276.057-.2.54-.448.621-.138-.908-.345,0-.506,0-.3-.264-.092-.678-.368-1.058-.494.092-.874.736-1.023,1.322s-.4.908-.8.4c0-.218.184-.23.379-.264a5.98,5.98,0,0,1,.368-1.713,16.6,16.6,0,0,1,.839-1.529c0-.184-.172-.23-.184-.517.345,0,.586.3.954.287.092-.287.2-.586.644-.506-.517-.609.264-.621.207-1.15-.379-.172-.345-.241-.311-.8-.218,0-.2-.379-.483-.23a20.88,20.88,0,0,1-2.989,1.4,1.679,1.679,0,0,1,.678-1.15c.356-.287.724-.6,1.081-.908-.368-1.15,0-1.609.586-2.587.379-.23.138.414.529.2.2-1.391,1.426-2.587.989-4.231a2.392,2.392,0,0,1-1.863-.54,2.3,2.3,0,0,0-1.92-.4c-.138-.609-.7-.6-.943-1.069,0-.287.218-.425.333-.632-.161-.345-.54-.4-.874-.517-.874-1.69,1.265-1.7,1.15-3.012-1.541-.149-3.576.563-4.771.23a.77.77,0,0,0,0-1.426c.816-.667.644-1.816,1.632-2.4a3.723,3.723,0,0,1,2.035,1.069,4.034,4.034,0,0,0,2.173,1.15,2.621,2.621,0,0,1,1.379-1.391,7.671,7.671,0,0,1,2.3-.759c1.724-.356,3.541-.3,4.4-.506a.393.393,0,0,0-.4.4,4.163,4.163,0,0,0,1.9-.149c-.184.552.9.3,1.058.644-.287.08-.609.161-.609.494,2.828.241,4.323,1.322,7.243,2.184,0,.161-.115.379.1.448,4.047.793,6.564,2.3,10.266,3.817,0,.161-.161.356.057.448a11.492,11.492,0,0,1,2.438.552c-.161,0-.264,0-.288.2,3.1.851,6.967,3.093,8.358,1.437-.356,0-.552,0-.563-.356.667,0,1.874,0,1.471-.77.989.54,1.989.057,1.633-.563.138-.149.391-.138.414-.437.7.138.471,0,.782.437a.505.505,0,0,1,.356-.31c-.322-.138-.724-.253-.517-.483,1.356.632.506-.471,1.15-.6.77.368.2.989,1.414,1.265-.368-.46.264-.471.345-.9-.138,0-.92,0-.828-.31.54.184.517-.356.874-.414a1.815,1.815,0,0,1,.782.437c-.575-.747,1.081.414.874-.414a9.2,9.2,0,0,1-3.885-1.587c-.885.655-3.173-.563-4.047.1a1.573,1.573,0,0,1,.506.483c-.483-.069-.69.253-1.069.333-2.15-.989-3.242.989-5.633.287.207-.724-.793-1.15-1.805-1.219.241-.655-.471-.713-1.253-.874.874-1.081-1.253-1.931-.184-2.679-.322.08-.8-.08-.759-.4.218-.149.977.356.943-.115,0-.207-.448-.287-.759-.4.575-1.334,2.909-.483,4.035-1.15-2.966-1.874-5.127-.437-7.633-1.609l-.161.529c-2.6-.218-1.931-2.414-4.116-2.667a9.128,9.128,0,0,0-4.035-2.713c.23-.138-1.265-.644-1.356-1.081-1.793-.31-1.724-.908-1.23-1.621s1.426-1.426,1.15-1.885c.8-.391,1.874-.586,2.368-1.265-.851-.172-.621-.368-.149-.448l-.931-.161c.218-.839-.621-1.023.494-1.311a9.288,9.288,0,0,0,3.219.529,4.715,4.715,0,0,0,2.5-.77c-.368-.092-.093-.391-.633-.437,0-.655,1.242,0,1.38-.506-1.656-.218-2.115.793-3.656.724.276-.333-.264-.414-.092-.724.46.069.483.264.92.333-.414-.356.563-.31.667-.7,1.023.241.931,0,1.989,0,0,.253,1.253.793,1.609.54-1.483-.31.483-.264-.563-.7a25.809,25.809,0,0,1,3.9.471c-.724-.4-1.207-.851-1.15-1.449.609.264.54-.149.828-.207,3.046.575,4.667-.368,8.185.517-.655-1-2.851-1.276-5.1-2.207-.253-.517-.816-.966-.517-1.6,2.506.874,6.059.839,8.335,2.552,1.816-.287,4.759,2.184,7.3,2.805.989.23,3.23,1.15,3.449,2.161,2.92,1,5.748,2.518,9.139,3.748.345-.264-.391-.77.379-.46.747,1.012,3.115,1.322,3.932,1.989-3.2-.862-6.208-1.587-9.576-2.817-.115.172-.4.1-.54.241,2.242.529,4.334,3.449,4.277,2.3.138.23,1.15,0,1.84.345.069,1.3,2.012.667,3.208,1.15-.172.322.7.322.4.7s-.851.138-1.011.552a2.69,2.69,0,0,0,1.725,1.069,23.463,23.463,0,0,1,2.391.517c.127-.172.3-.172.1-.4.437.218,1.748.862,1.817.184-.885-.506-.356,0-1-.115-.253-.586.23-.747.828-.782-.506-.414-.288-1.092-1.046-1.414a1.034,1.034,0,0,0,.839-.069c-.057-.333-.644-.483-.574-.862a4.484,4.484,0,0,0,2.506.368c-.184.713,1.057.782,1.414.793a1.15,1.15,0,0,0-1.253-.609c.494-.506-.7-.379-.391-.816.391,0,1,.552,1.667.977a1.69,1.69,0,0,0,2.046.161c-1.771-.126-1.92-.931-2.84-1.472-.069-.966.426-1.15,1.081-1.15a9.131,9.131,0,0,0,2.173-.08c1.586.471,4.093.276,5.288.874-.632.1-1.874-.391-2.219.31.276.759,1.15-.092,1.276.529-.874,0-1.149-.368-1.6.115.253,0,.126.264.333.345.782,0,1.748-.264,1.7-.678-.138.425.621-.253.552.23-.311.069-.356.391-.506.621-.954-.161-1.586-.1-1.863.368,1.253,1.012,2.575.345,3.541,1.426a1.9,1.9,0,0,1,1.8,0c-.345-.069-.471.069-.448.356,1.46-.069,2.6,0,3.725,0l3.449.184c-.678-.483-1.15-.31-1.943-.621.437-.184,1.058-.184,1.265-.552-.621-.368-1.15-.667-1.069-1.092-1.069-.218-1.69-.793-2.9-.586.494-.552,1.368-.138,1.977.069,0-.138.172-.149.23-.253-.851-.839-.345-1.391.115-2.483a22.327,22.327,0,0,0-5.507-.655,16.45,16.45,0,0,1-2.7-.149,11.265,11.265,0,0,1-2.667-.77c-1.357-.161-2.989.391-4.875-.379,0,.345-.4.207-.356.621a7.519,7.519,0,0,0-4.288-.552c.115-.954-1.609-.172-2.115-.782-.127.161-.287.149-.127.391-1.149-1.288-2.61.1-4.219-.966.839.184-.437-.954.989-.391.149.379-.655.322-.184.517.241-.793,1.713-.126,2.483-.621.793,1.081,2.012.655,3.449,1.058.218-.207.77-.943,1.092-.425-.713-.253,0,.506,0,.713a19.546,19.546,0,0,0,3,.207c-.161-.7-.184-.483-1-.54.149-.494.311-.333.219-.8.862,0,.793.471,1.15.724,0-.954,2.092.218,2.863-.149-.092.276.058.448.46.506,0-.207-.172-.264.092-.4,1.736.345,3.345.862,4.99,1.15a36.439,36.439,0,0,0,4.921.69c1.023.6,4.276,1.322,4.265-.08a46.429,46.429,0,0,1,6.173.115,45.615,45.615,0,0,0,6.565.172,6.151,6.151,0,0,0,2.414.575,11.922,11.922,0,0,0,2.391-.2c-.207,0,.425.322.816.149,1.437-.667-1.012-1.012-2.207-.989,1.046.069,0-.908-.173-1.242-2.23-.391-3.989-.448-5.886-.885-.517,0-.621.391-1.15.379-.782-.6-1.724.138-2.713-.057-.552-.1-.92-.736-1.472-.793s-1.242.483-1.782.437a7.319,7.319,0,0,1-1.149-.379s.1.287.161.287c-.563-.057-.793-.471-1.265-.552-.081,0-.184.379-.23.391-.713.161-1.46-.655-2.184-.793-.586.345.552.69-.276.667,0-.471-.782-.471-1.023-.8-.644.724-2.046-.368-1.931.425a25.129,25.129,0,0,0-4.449-1.242c.218,0,.241-.184.264-.379a5.841,5.841,0,0,1-2.4-.77c0,.138.1.184.115.3-1.954-.483-3.633-.874-4.851-1.069a2.387,2.387,0,0,0-.368-.667c-.506.241-.586,0-.8-.356-.4.161-.4.736-.816.356.678-.218-.54-.609-.862-.793-.081.264-.506,0-.494.448s.448.276.4.529c-1.15-.333-.989-.724-.874-1.368.46-.1,1.15.069,1.621,0,.1.839,2.035.851,2.506.667-.218-.069-.092-.276-.264-.356-.069.149-.069.379-.276.356-.747-1.081-1.908-.9-3.265-1.15.552-.425-.2-.483-.058-1.012,1.311.333,2.61.724,3.805.989-.586.115.379.529.529.713.368-.1,1.391-.241,1.609,0-.207,0-.241.172-.276.368.862-.46,1.851,0,2.874,0-1.15-.149-.529-.379-1.288-.69.793,0,1.242-.115,1.69.483l.081-.4c1.483.828,4.23.3,6.265,1.069.058-.149,0-.391.241-.379a7.875,7.875,0,0,0,3.127.448,4.907,4.907,0,0,1,2.448.356c.127-.506-.747-.8-1.218-.552.23-.943,1.15-.092,1.644,0,0,0,.058-.276,0-.276.713.218.954.885,1.759,1,1.011.149,1.356-.552,2.656-.241-.437.621,1.379.138,1.851.552-1.023,0-.46.161.356.264s1.931,0,1.943-.425c-.644,0-.713-.333-1.15-.46,1.046.092.563-.115.8-.655.839.172.966-.207,1.552-.23-.115.448-.885.368-1.15.655a1.058,1.058,0,0,1,.563.161c.46-.161.782-.839,1.15-.242a.587.587,0,0,1,.219-.54c-1.541-.218-2.587-.379-3.6-.46a14.256,14.256,0,0,0-3.38.081,8.3,8.3,0,0,0-2.564-.2,5.14,5.14,0,0,1-2.518-.54c0,.253-.609,0-.586.345-2.207-.586-4.725.425-6.346-.862.494.057,1.15.3,1.265-.08-.552,0-2.909-.885-2.529.172a5.594,5.594,0,0,0-1.334-.391c-.149-.621.863.161.909-.23-.747-.218-2.368-.828-3.093-.218l-2.15-.471c-.667-.149-1.265-.345-1.863-.471a10.058,10.058,0,0,0-3.322-.276c.1-.713-.414.241-.736.092s.345-.6,0-.713-.161-.161-.287-.23c-.586-.31-.667.149-1.092.1-.069-.414-.92-.563-1.575-.8-.46.943-1.471-.069-2.207-.3-2.9-.839-7.254-1.954-9.91-3.035,2.2.4,2.782.989,4.6.989a12.348,12.348,0,0,0,3.633,1.426,31.426,31.426,0,0,1,3.644,1c.092-.333.4-.322.563-.54-.138-.264-.575-.414-.713-.667a4.343,4.343,0,0,1,1.575.586,2.691,2.691,0,0,0,1.943.241c0,.46.552.379.92.4.253,1.023,2.7,1.609,3.667,1.667,0-.264-1.46-.4-.9-.517.483.115.966.264,1.057-.149-.253-.149-.977-.092-.92-.391.563,0,1.529.471,1.472-.46.69.08-.345.448.345.667.058-.092.172-.126.356-.069.357-.575-.149-.7-.253-1.046.793-.2.724.356.713.575.6-.253-.311-.6.184-.8a5.842,5.842,0,0,1,1.851.092.426.426,0,0,0-.38.207c.311,0,.6.529.816.161-.184,0-.471-.069-.46-.23.989-.2,2.391.46,3.058-.069.379.241-.38.356.069.563.931.333.954-.345,1.621-.31,0,.207-.322.667,0,.7.609,0,1.6.471,1.6-.172-.172-.126-1.276-.322-.8-.4.908.4,1.609.207,1.943.862.7-.057,0-.759.621-.736.23.115,0,.529.264.6.276-.23,2.2-.609,1.265-.149a10.722,10.722,0,0,1,1.943.069c0,.207-.115.506.115.575a14.952,14.952,0,0,1,2.161,0q1.069.069,2.1.172a22,22,0,0,0,4.07.184c0,.241-.3.345,0,.414,1.069-.184,1.943-.345,2.633.23a.517.517,0,0,0-.161-.414,4.46,4.46,0,0,0,2.46-.184c-.495-.575-1.483-.138-1.656-1.035,1.3.126,1.8,1.311,3.368,1.081.264.31-.517.506,0,.552a1.15,1.15,0,0,1,1.15.149c0-.471.586-.517.989-.69,1.563.517,3.012-.368,4.495.437a40.63,40.63,0,0,1,5.449-.276,32.365,32.365,0,0,1,5.116.333c.172-.333,1.15-.184,1.012-.713,1.15.471,1.862-.414,2.736.172-.253,0-.494.057-.414.287a6.186,6.186,0,0,0,1.483.08c0-.218,0-.471.414-.425.7.862,2.368-.092,3.368-.276.069.264-.276.287-.4.425.816,0,2.4,0,2.564-.667-.552-.126-.736.621-1.081.184.31,0,.241-.31.425-.425a19.959,19.959,0,0,0,7.2.069c.575-.069.862.391,1.15.368.7-.069,1.219-.7,2.426-.529h.9c.207,0,2.564.184,3.139-.414.08-.345-1.782-.115-1.15-.368a4.148,4.148,0,0,0,1.816-.069c-.149.713,1.15.517,1.6.207-.724-.184-1.748-.161-2.058-.609,1.414.161,4.07.655,3.851-.575,0,.138.4.161.46,0-.943-.3-.575-.609-1.391-.908,2.931,1.058,5.392-.954,8.128.678,0-.253-.276-.287-.241-.54.724,0,.667.414,1.632.23,0-.264.264-.322.23-.563a4.83,4.83,0,0,1,1.667.241c-1.058,0-1.506.253-1.656.724,1.575-.241,2.368.368,3.817-.345-.954.149-.724-.4-1.678-.253.23-.322.069-.874.954-.839,0,.207-.081.506.241.54-.161-.621,2.978-.862,4.311-.9.253.517-.6.4-.483.839a3.08,3.08,0,0,1,1.448-.149c-.506-.345-.345-.3-.23-.839.782-.115.322.46.977.425,0-.529,1.3-.287,1.483-.69,1.069.471,1.391.08,1.241-.264.931.379,1.3.241,1.943.69.425-.276,0-.172,0-.552a2.7,2.7,0,0,0,1.725-.126c.379.149.586.4.965.563.448-.276,1-.069.253-.414,2.713-.218,3.449,1.38,4.7,1.081.115,1.023,1.15.655,1.989.333.3.322-.586.506,0,.552a2.9,2.9,0,0,1,1.943-.081c.207-.437-.311-.437-.391-.7.471.241,1.15,0,1.253.172a1.036,1.036,0,0,0-.644.4c.506,0,.61.253,1.242.172v-.379c1.725.8,4.012.149,4.656.782.586.126.391-.356.736-.414a.54.54,0,0,1-.184.414c.46.322,2.518-.736,1.426,0,.839-.057,1.035-.609,1.529-.287-.391,0-.391.368,0,.414-.241-.207-.126-.437.333-.414.161.23.517.287.816.391-.448-.368.747-.264.943-.172-.115,0-.3,0-.3.161.31,0,1.15.287,1.379-.057-.1-.184-.586,0-.621-.253.506-.264.678.161,1.15.218.184-.828,1.449.517,1.518-.517-1.069.609-1.92-1.15-2.587,0-.069-.782-.529-.287-1.242-.506.173-.437-.264-.333-.333-.54.724-.126.46.138.644.264.138-.161.552-.069.437-.437-.184,0-.425,0-.46-.126.621.092.931-.092,1.035-.448.77.276,1.288-.126,2.748,0,.253.207-.138.437.3.517,1.541-.782,3.219.218,4.6-.368.368.356-.115.828.575.736.322-.253.173-.517,0-.839a3.012,3.012,0,0,0,1.828-.287,6.642,6.642,0,0,1,1.943-.678c.483.483,1.207.322,1.989.1a3.45,3.45,0,0,1,2.3-.207,2.582,2.582,0,0,0-2.184.862c.759.322,2.851-.069,2.3-.92,1.15.207,1.667-1.046,2.3-.345,0-.448.517-.816,1.15-1.081a8.31,8.31,0,0,1,2.3-.506c-.207,0,.23-.241.748-.379,2.644-.69,6.024-1.966,9.036-2.2,0-.207-.161-.448.345-.529.115.333.23.667.874.46.069-.333-.77-.23.115-.471a1.034,1.034,0,0,0,1.15-.207c.552,0-.207.4.333.322a1.438,1.438,0,0,0,.874-.54c-.081-.207-.633.069-.586-.253a19.949,19.949,0,0,0,2.3-.23c.161.448-.8.218-.8.8a35.469,35.469,0,0,0,8.668-.931c1.471-.31,2.932-.667,4.369-1.012.724-.172,1.437-.356,2.138-.506l2.1-.368c.2-.4-1.552.1-.8-.253,2.426-.126,3.012.2,4.6-.816.9-.184,1.023.287,1.6.379.793-.517,3.449-.08,4.323-1.15.218.483,1.15-.31,1.771.08,0-.506.379-.46.7-.253,0-.793,1.322-.391,1.61-.943.46.391,1.15.184,1.977-.172.563.115-.264.379.3.379,1.15-.517,3.035-.08,3.587-1.15.759.529,3.989-.184,4.6-.851.264.759,3,.3,2.966-.057a20.118,20.118,0,0,0,3.012.644c-.138-.184-.391-.3-.529-.494,4.483-.632,8.1-.3,13.646-1.219,0,.23.207.345.517.379,1.61-1.15,5.576.483,5.564-1.15,1.241-.069.126.483.989.632,2.782-.253,4.783.2,6.312-.448,1.518.356,2.219.184,4.116.471.08-.322-.69-.138-.724-.4,2.3,0,3.552.31,5.334-.345-.1.655,1.276.483,1.426.989-1.311,0-2.966,0-3.622.8,1.046.241,1.495-.517,1.932-.138-2.368.908-3.725-.069-6.519.1a.5.5,0,0,0,.241.4,6.3,6.3,0,0,1-2.9-.207c-4.6.908-10.186-.241-14.5,1.15-1.46-.529-4.081-.322-6.346-.161.437.621,2.794-.161,3.208.506-1.15.092-6.047.23-5.288,1.15,0-.368.069-.828-.552-.782s-.46.333-.943.379c-.517-.713-4.484.149-5.84.368.184-.057.264-.149.207-.31-.414.3-2.115-.264-2.909.391.552-.126.908-.1,1,.126-.943.644-.9-.425-1.989-.115,0,.322.713,0,.782.3-2.069.126-5.679,1-7.53,1.023-.368-.391.759-.23.4-.621-.345.126-1.276,0-1.15.322s.437.172.54.333c-3.713.586-7.369,1.15-11.841,2.242-.483.747-3.541.6-4.829,1-1.678.575-4.6.989-7.013,1.495-1.954.4-3.886.977-5.748,1.472a28.556,28.556,0,0,1-5.242,1.15c0,.218.161.448-.345.54-.092-.2-.058-.517-.379-.471a3.816,3.816,0,0,0-1.989,1.471,3.447,3.447,0,0,0-1.069-.391c.368-.149,1.149,0,1.322-.4-.437.069-.517-.264-1.15.069-.632,1.15-.3.414-1.563,1.058.368-.115.586-.069.724.069-1.15-.115-2.3,1.058-3.449.9a14.106,14.106,0,0,0,2.173-1.15,9.73,9.73,0,0,1-2.368.448c-.126.3.759.253.161.529-1.149-.264-2.3,1.678-3.725,1.414.425,0,1.012-.529.506-.437s-.54.391-.9.563c-1.023-.678-2.15.54-3.2.356a.921.921,0,0,0-.4.678c-.437-.345-2.15,0-2.483.115,0,.437.828-.115.989.172a8.047,8.047,0,0,1-3.345,0c-.391,0-.092.437-.414.529.126-.644-1.15-.471-1.989-.379.161.46.161.69.345.77.138-.2.736-.218,1.012-.092-.414.368.6.379.69.69.333-.161.311-.3.08-.448,1.322,0,2.84-.759,4.277-.828-.069-.149-.414-.218-.115-.4-.15.552.644-.092.655.253-.448.4.586.448.92.46-.264-.138-.287-.276.069-.448.655.69,1.4-.506,2.012-.161.379-.322-.494-.31.264-.506l.149.529c.724-.138,2.782-.7,3.449-.874s-.368.828.563.4c-.333-.552,2.3-.437,2.3-1.414,2.069-.172,2.69-1.046,4.6-.989,0-.253,1.15-.839,1.517-.6-.4,0-.885.552-.368.391a34.1,34.1,0,0,1,5.564-2.046c2.081-.563,4.185-1.092,6.013-1.713a.655.655,0,0,0-.414.379l.954-.241c0-.184-.184-.264-.333-.333.908.115,1.943-1.046,2.564-.954-.644.333.425.057.483-.115.241.322.115.287.839.356-.356.1-.9.172-.931.379a11.313,11.313,0,0,0,3.575-.747c1.253-.379,2.506-.8,3.587-1.069.8.092-.724.632.126.678.655-.644,1.989.276,2.161-.437-.264-.31-2.518.276-1.6-.517,1.219.115,2.173.816,3.449,0,0,1.38,3.161.1,4.3.529a4.485,4.485,0,0,1,3.07-.839,5.749,5.749,0,0,0-3.622,1.931c.288,0,.678-.161.736,0-1.3.494-.954-.437-2.207,0-.115-.506,1.356-.483,1.311-.966a23.584,23.584,0,0,0-4.99,1.15c.747-.276.414.379,1.035.218.2-.172,1.276-.667,1.4-.437.471.644,3.23.6,4.6-.368.828.621,2.092-.356,2.38-.4-.621.23.287.471.563.471-.115-.621,2.368-.828,1.219,0,.977-.149,1.15-.517,1.15-.736a11.294,11.294,0,0,1,2.3.632c-.08-.345-.517-.356.161-.586.609.092.184.253.529.333s.264-.161.207-.31c.989.851,2.816-.908,3.334-.517-.288.069-.552.138-.437.356,1.069-.23,2.3-.437,2.552-.943.437.575.793-.31,1.655-.322.437.874,4.484.529,4.093-.161.851.253,1.38.632,2.414,0,.368.7-1.6.345-1.863.759.713.264,2.61-.31,3.357-.08.563-.448.977-.759.874-1.207.644,0,.747.437,1.242.563-.276,0-.678,0-.7.218.9.391,2.725,0,2.575-.793-.563.172-.828-.575-.506-.529.379.563,1.931.345,2.437.816-1.046.264-.747-.356-1.678-.172-.276.46.276.552-.426.862a11.5,11.5,0,0,1,3.1-.069c0-.264-.667-.126-.506-.517.874-.207.494.437.977.494.425-.2,1.069-.276,1.15-.632,2.035.609,3.449.126,6.2,0,.356.586-1.414.092-1.414.506,2.679.54,5.415.356,8.047.943,0-.2-.391-.218-.471-.4,1.437.586,2.46-.138,2.839.494a39.327,39.327,0,0,1,7.2-.517,38.585,38.585,0,0,0,6.9-.414c1.8.058,4.115.908,5.415,0,.9.6,3.2.138,3.955.632-.356,0,0,.218.218.287a14.668,14.668,0,0,1,4.679.333,24.063,24.063,0,0,0,5.093.563c-.2.69-2.955-.471-2.633.6-2.3,0-3.035.391-5.162.264.276,0,.655,0,.69.184-.184,0-.46,0-.483.1,1.081,0,1.782.149,2.058.529a15.256,15.256,0,0,0-5.358,0c.4.632,3.449.115,3.69.471a34.032,34.032,0,0,1-4.449.448c.724.483-.69,0-.494.529,1.012.414,1.586.115,2.3.264-.276-.057-.816.356-.253.4.736-.149.77,0,1.609.08,0-.172-.908-.46-.184-.552.874.391,2.506,1.092,3.208.448,0,.264-.287.287-.276.54a3.046,3.046,0,0,1,1.368.207v-.414a6.45,6.45,0,0,1,2.679,1.15c.77-.069,3.541-.092,3.874.483-1.149.1-2.8-.736-3.7.08-3.081-.31-6.771-.161-8.714-.517-1.253-.218-3.058.069-4.15-.092s-2.771-.529-3.449.172c.713-.276,1.552.264,2.3-.092.494.218-.311.322.207.425,11.4-.368,23.51,3.38,35.811,4.53-.138.621.678.9,1.678,1.023a11.1,11.1,0,0,0,2.748,0c.448.839,2.023.241,2.15.9-.6.218-2.115-.356-2.3.2.08.253-.4.759.08.851,2.667.667,4.415-.218,5.633.586-1.414-.23-2.69.632-4.851.23.322.069.138,1.15-.1.678.379-.9-1.012-.31-1.448-.92a1.058,1.058,0,0,0-1.242.644c.563.7,2.426.851,3.173,1.472-.138.563-.92.667-1.644.3a10.794,10.794,0,0,1-2.977,0c-1.081-.1-2.23-.287-3.38-.506a51.393,51.393,0,0,0-6.553-1.023c-.448,0-.333.345-.931.172-1.943-.425-5.127-1.38-7.162-.563a18.393,18.393,0,0,0-4.024-.356c0-.379-.483-.552-1.3-.54.345.31,0,.172,0,.552a4.356,4.356,0,0,1,1.54.414c-.3.172-1.15-.092-.943.471,1.506.126,1.943.782,3.277.989-.437,0-.448.356-1.15.172-.874-.874-3.231-1.012-3.621-2.127-.517.069-.885.655-.541.92-1.759.632-4.311-.2-6.07.218,0,.506.793.552,1.058.885-1.621,0,.207.379.172.7a25.909,25.909,0,0,0-4.863-.816c-2.817.207-5.748.448-8.668.46s-5.944-.1-8.933,0-5.955,0-8.852,0a59.877,59.877,0,0,0-8.358.759c-1.6-.069-3.242-.08-4.748,0s-2.885.184-3.978.218a9,9,0,0,0-5.173,0,8.817,8.817,0,0,0-2.472,0c-1.058.08-2.161.264-2.7.31,1.379-.218-.058.2-.173.448,1.863-.264,3.138-.667,3.61,0a1.7,1.7,0,0,0,.644-.345c-.172,0-.437,0-.46-.092,1.448-.345-.219.931,1,.874.08-.747,1.563,0,1.241-.977-.7,0-.874.425-1.15,0a30.506,30.506,0,0,1,4.932-.253c-.713.575-2.3.092-3.345.356-.207.207-.161.529-.368.736-1.15.46-2.3.126-2.828.862,3.093.126,2.357-.713,4.392-.885-.126,0-.241.138,0,.126a29.1,29.1,0,0,1,3.346-.218c.483-.253,1.931-1.288,2-.207-.874,0-1.954,0-2.184.644-1.885.471-3.081-.483-4.242.184a2.6,2.6,0,0,1,2.058.471c-.943.184-.77-.483-1.8-.218.069.184.391.184.483.356-1.058-.138-3-.172-3.311.494,1.874,0,3.529-.069,4.921,0,0-.2,0-.54.2-.3a2.275,2.275,0,0,1,0,.264c-1.92.816-2.908-.23-4.15.862.989-.184,1.92.172,2.644-.276.46.7,2.633.6,3.805.287-2.932,1.3-5.472-.1-8.22,0-.138.517,1.6.322.759.885-3.1-.4-7.024,1.54-9.772,1.885a22.177,22.177,0,0,0,7.036-.667c.667-.138-.506.483.264.379,1.69-.828,5.357-.678,8.1-.667-.1-.2-.276-.207,0-.414,1.414.851,3.84-.2,5.288,0-.161,0-.426,0-.426.184a34.11,34.11,0,0,1,10.738-.31v-.54c1.69.115,3.805.368,5.967.448a27.594,27.594,0,0,0,6.312-.391c0,.3.172.437.655.4,2.368-.149,4.84,0,7.346.08s5.035.23,7.53.529c5.012.552,9.933.931,14.347,1.15-.345,0-.747-.08-.678.218a31.787,31.787,0,0,1,5.829,0c.931.08,1.851.184,2.759.287l2.759.4c.494-.149.736-.494,1.15-.678-.081.586-.368.276-.563.9a12.714,12.714,0,0,1,5.886.46l.069-.414a7.289,7.289,0,0,0,4.288.862c-.253,0-.264.172-.276.368,1.15.287,2.023.506,2.207.069a1.874,1.874,0,0,0,1.793-.138c.8.241-.138.655.287.874,2.081.172,4.334.391,6.691.724s4.805.793,7.277,1.253c4.955.851,9.933,2.173,14.393,3.242l-11.071-2.081c-3.713-.655-7.45-1.391-11.22-2.3,0,.391-1.38-.379-1.15.241a43.685,43.685,0,0,0-6.9-.989c-1.149-.115-2.391-.23-3.529-.4a22.66,22.66,0,0,1-3.185-.621c0,.149,0,.391-.276.379.253-.506-.391-.586-.77-.793-.529.552-2.012-.253-3.127.31-.218-.644-2.931-.345-3.449-.287-.2-.218-.149-.54-.586-.632-.184.483-1.058-.184-1.563.241-.563-.667-1.759-.391-2.782-.667-.276.816-1.529.276-2.644.184-.46-.241.31-.31-.173-.437-5.576-.218-10.921-.759-17.015-.586.173,0,.437,0,.426.161-.667.069-.391-.4-1.069-.333,0,.379-.379.276,0,.552a11.117,11.117,0,0,0-3.449.08c-.23-.437.345-.333.448-.54-.517,0-.46-.264-1.081-.161,0,.276.586.184.414.552-1.012.172-.713-.46-1.724-.3.1.655-1.15.126-1.759.517-.414-.517-.506-.529-.414-.839-.6.115-1.023.207-1.3-.161v.414c-.425-.126-2.15-.69-2.391,0,.943-.149,1.863.609,3.047,0-.115,1.15-4.3-.322-5.012.793,4.806.149,8.473.069,13.462.057.069.241-.345.333,0,.414s1.265.241,1.311-.069c-.241-.345-.92.287-.862-.322a24.138,24.138,0,0,1,3.69.345c-.437,0-1.426.3-.7.655,3.874-.425,8.507.207,11.922.506,2.483.172,4.978.276,7.53.379s5.173.356,7.886.552v-.264c1.931.885,3.84.149,5.334,1.092.621,0,1.23-.069,1.4-.483.368.138,1.3,0,1.276.333-.943-.2-1.483,0-1.621.448a39.5,39.5,0,0,0,5.852.632c1.92.816,5.093.839,6.76,1.678a9.85,9.85,0,0,1-2.541-.4c-.885-.149-1.667-.161-1.885.483,1.414-.115,2.3.977,3.817.793-.138.46.345.54,1.23.506.782,1.265,4.231.759,5.829,1.782a6.434,6.434,0,0,1,2.058-.322c0,.46-.8,0-.333.494-.391,0-1.15-.391-1.3-.092,4.6,1.15,7.76,2.219,11.7,3.138-.322,1.265,2.23.713,2.828,1.15-1.092.391,1.713.529,2.495.736a28.752,28.752,0,0,1,4.863,1.885c-1.15.4-2.046-.759-3.449-.678a.77.77,0,0,0,.46.816c.23-.184,1.414.322,1.15.713a5.978,5.978,0,0,0-2.782-.391c1.149.69,2.506,1.885,4.081,1.4.747.828,2.3.874,4.024,1.564-.552.632,1.448.931,2.759,1.311.862.874-.2.908,1.368,1.495-.6.126-.908-.391-1.276-.2a2.173,2.173,0,0,0,1.931,1.8c0-.207-.276-.322-.3-.506a5.288,5.288,0,0,1,2.3,1.322c1.046-.092.747.241,1.414.517,1.058.4,2.874.414,3.173,1.311-.851.08-1.724-.736-2.207-.057.678.575,1.448,0,1.391.54-.69.184-2.552-.908-2.817-.207l1.23.322c-.092.414-1.149.092-.644.69-.276-.149-1.15-.126-.989-.4.448.138.69.057.736-.241-.529-.149-1.667-.356-2.506-.517,1.23,1.15,4.6,2.069,6.369,2.472a1.253,1.253,0,0,0,.414.839c-.954-.253-1.9-.517-.747-.494a1.368,1.368,0,0,0-1.38.172c1.288,1.058,1.15.172,2.449.713C2189.866,212.182,2189.509,212.32,2190.015,212.837Zm-106.5-64.828c-.184-.483-.851-.149-1.207,0C2082.364,148.354,2083.329,148.09,2083.513,148.009Zm-38.191,1.563c-.333,0-1.4-.115-2.3-.149.15.092.288.184.3.379a2,2,0,0,1,1.495.092C2045.127,149.837,2045,149.607,2045.322,149.573Zm-80.129,13.589a.368.368,0,0,1-.276.425c0,.3.391.287.759.253-.264-.276.092-.276-.172-.552.264-.069.862.138.7-.31-.138.2-.6.126-1.012.184ZM1840.228,181.1c0-.356-.368.138-.747-.172l-.092.4c.368.161.506,0,.77,0C1840.078,181.222,1840,181.084,1840.228,181.1Zm-36.26,44.284c-1.15-.149-2.161-1.357-2.644-.828a6.288,6.288,0,0,0,1.322.793C1803.2,225.575,1803.75,225.69,1803.968,225.379ZM2030.446,213.2a9.414,9.414,0,0,0-2.989.77,5.92,5.92,0,0,0,2.989-.77Zm157.569-1.816c.069-.264-.506-.322-.253-.644-.632-.253-.793,0-1.471-.276,0,.172.345.218.575.3,0,.172-.115.218-.276.218C2186.624,211.3,2187.808,211.469,2188.015,211.388Zm-7.553-6.9c-.126-.322-.713-.506-1.38-.655,0,.4.69.586,1.15.862-.046-.149.057-.207.229-.207Zm-9.772-6.714c-.149-.345-1.84-1.15-1.885-.448a10.231,10.231,0,0,1,1.9.46Zm-26.637,8.5c.828-.057-1.563-.874-1.437-.264a3.713,3.713,0,0,1,1.437.276Zm-5.449-.253c.23-.253-.989-.437-.333-.471-.115-.207-1.943-.655-1.862-.149a5.818,5.818,0,0,1,2.2.632Zm-38.317-49.6c0-.425-1.506-.4-1.863-.241.333.54,1.506.264,1.862.253Zm-10.473,24.648c.1-.586-.943-.138-1.3-.161-.012.391,1.011.356,1.3.172Zm-25.464.207c-.173.552,1.15,0,1.322.333-.138.2-.586,0-1.069.207a8.048,8.048,0,0,0-4.472-.483c-1.713.23-3.518.644-5.116.759-2.61.184-4.909-.207-6.771.161-.126.161-.483.218-.391.483-.793-.264-1.609.333-2.587.391-.23.494.287.31-.828.414.437.2.069.333.092.678.586,0,.379-.345.586-.506.345.161.77.253.954.552.414-.161.437-.494.793-.678s.46.3.9.276c-.368.517-2,.356-2.483,1.081,1.069-.08,1.253-.552,2.3-.632a13.6,13.6,0,0,1-1.874.7c-1.9-.207-1.839-1.54-3.909-1.357.08-.345.77-.425,1.241-.6-1.7-.425-3.173.621-4.4.115-.264.184-.782.253-.8.54-.621,0-2.046-.345-2.173.23-.4.069-.23-.425-.713-.276-1.265,1.15-4.392.517-5.748,1.449a8.761,8.761,0,0,0-4.6.644c-1.356-.747-5.2.69-6.587,1.678-1.644.368-1.563,0-3.07.368.448-.161,1.15-.839,1.426-.655-.161-.483-1.15-.149-2.667.253a.636.636,0,0,0,.46,0c-2.092.747-6.817.586-8.76,2.978a5.334,5.334,0,0,1,2.184-.379c-.552-.069-2.748,1.288-3.265.563a1.081,1.081,0,0,0-.943.724c.173.287.322.575,1,.276.172.287-.977.218-.517.586,1.368-.4,2.069-.977,3.449-1.357a6.715,6.715,0,0,1-2.61,1.23,26.519,26.519,0,0,0,8.53-1.966c.15.609-1.149.793-1.149,1.345,2.127-.943,3.874-.448,5.311-1.15l-.069-.276c0-.31-.368-.172-.7-.1.276-.494,1.15-.207.977.322a12.4,12.4,0,0,0,1.92-.345c-.092-.287-.6-.161-1.15,0,.495-.736,2.15-.414,3.242-.4.793,0,0-.494.54-.563a17.349,17.349,0,0,0,3.15-.575,10.5,10.5,0,0,0,3.162-1.012c.586.069.724.149.563.6.782-.08,1.15-.3,1.15-.667.954.506,2.138-.31,3.162-.782.747-.138-.368.54.287.356s.241-.149.161-.31c.793-.172.736.46,1.759.057a1.987,1.987,0,0,1-.414-1.15c.472-.081.184.552.357.77.931,0,.747-.563,1.414-.7-.207.644,1.357,1.357,1.8.287-.759,0-.885.287-1.242.471,0-.345.333-.483-.1-.678,1.092.218,1.15-.126,2.127-.471.126.31.713.632.184,1.23.633-.31,1.449-.552,2.046-.874-.069-.345-.747-.161-1.322-.08-.379,0,.253-.552.333-.747.494,0-.23.253.276.379a5.069,5.069,0,0,1,1.483-.368c.322-.322,0-.172-.081-.552,1.414.2.908,1.242,2.3.908-.069.184-.23.322-.609.368a7.553,7.553,0,0,0,4.07-.31,7.15,7.15,0,0,1,3.69-.3c.644-.379.23-.46,1.058-.253.356-.759-.586-.885-1.414-1.15,0,.3.184.356.276.529-1.035.23-2.61.966-4.093.471,1.92-.23,3.092-.874,4.679-1.081-.276-.414-.126-.356.149-.713.759,0-.494.851.31.931.288-.414,1.828.069,2.782-.575.311,0,0,.241-.2.3.391.31.747-.494,1.495-.437a1.734,1.734,0,0,1-.632.345c.184.4.448-.172.862-.092,0,.138-.253.138-.414.184.1.356,1.15,0,1.322.276.311-.31,1.058-.8,1.495-.3a41.2,41.2,0,0,1,8.841-1.265V181.5a11.956,11.956,0,0,0,3.058.115c.989-.069,1.989-.115,3.035-.115a4.875,4.875,0,0,0-2.978-.46,33.17,33.17,0,0,1-3.552.345c-1.162.115-2.242-.4-3.587-.092Zm16.761.161c-1.471-1.012-4.369,0-6.53-.276,1.426.828,4.805.333,6.53.333Zm-10.864,22.993c-.667-.54-1.426-.138-2.61-.253a3.346,3.346,0,0,0,2.61.241Zm-24.579-21.613c0-.379-.356-.4-.92-.276v.4Zm2.3,28.407c-.471-.322-1.357.23-1.908.287.356.264,1.471-.126,1.874-.3Zm-4.4-26.269c-.621.1-.4.851-.08.989.759-.253.046-.586.046-1Zm-.621.241c0-.161-.4-.057-.667,0,.23.368-.253.4-.115.724.529-.149.46-.529.747-.736Zm3.138,23.8c-.2-.276-1.368-.253-1.15.322.586-.011.655-.23,1.115-.333Zm-5.748,2.472c-.425.149-.931.46-1.334.264-.506.241,1.6.529,1.322-.276Zm-5.438-29.592c-.2-.448-1.081,0-1.541.172.276.46.874-.092,1.529-.184Zm4.886,30.96c-.069-.552-1.483.287-1.771-.057-.655.172.448.54-.092.586a9.2,9.2,0,0,0,1.851-.54Zm-13.934-55.608c-.126-.264-.7-.138-.816-.4-.368.138-.126.471-.908.471C2024.272,157.678,2025.2,157.356,2025.847,157.229Zm-2.3.759a14.22,14.22,0,0,0-3.127.494C2020.9,158.965,2022.743,158.195,2023.548,157.988Zm-1.368-3.242c-.563.414-1.391.161-1.667.483C2020.467,155.758,2022.663,155.16,2022.18,154.746Zm.333,3.024a1.15,1.15,0,0,0-1.483,0c.4.149,1.127.322,1.483,0Zm-3.794.931a2.3,2.3,0,0,0-1.966.184c0,.3.862-.161,1.219-.172.1.287-.828.276-1.15.437C2017.547,159.4,2017.9,158.954,2018.72,158.7Zm-8.047,1.15c-.391-.609-1.92.517-2.449.345.69.4,1.391-.264,2.472-.322Zm-.828.782c-.333-.207-1.874.31-2.138.54,0,.356,1.069-.345.816.218a6.794,6.794,0,0,1,1.345-.736Zm5.748,26a17.243,17.243,0,0,0-4.69.391c.161.241.977-.264.782.356a30.135,30.135,0,0,1,3.932-.724Zm-7.542-26.12c-.529-.057-2.736-.126-3.093.8.77-.517,2.127-.517,3.115-.782Zm-.92,1.38a1,1,0,0,0-1.288-.092,1.218,1.218,0,0,0,1.311.15Zm-1.322-.23a22.575,22.575,0,0,0-3.541.862c.656.552,2.3-.816,2.506,0a2.826,2.826,0,0,0,.908-.379c-.414-.011-.943-.264.149-.46Zm10.347,55.884c.069-.506-.678,0-1.081,0,.046.563.9.322,1.138.023Zm-16.095-54.033c-1.793.276-4,1.15-6.587,1.587,0-.621,1.035-.184,1.391-.713-.218-.414-1.276.161-1.966.31-.276.609.494.563.356,1.15,2.541-.828,4.5-1.035,6.84-2.357Zm3.587,28.626c-.218-.632-1.437-.126-2.472.184.379.6,1.678.069,2.506-.207Zm-3.047-.218c-.207-.655-3.311.989-.874.126a1.736,1.736,0,0,0,.908-.149Zm-10.278-26.143c0-.552-1,.115-1.46.149.437.276.575-.023,1.495-.172Zm-1.471.874c-.173-.333-.644-.3-1.15-.241a.632.632,0,0,1,.345.471Zm-4.978-.138c-.08-.1-.8-.253-.77.08-.184,0-.184-.126-.253-.218-.506.264-.149.253,0,.586.575-.08.46-.414,1.058-.414Zm-1.782.632c-.138-.08-.276-.172-.069-.264,0-.3-.644.1-.92.1a.793.793,0,0,0,1.058.138Zm-4.426-.172c-.241-.425-.644.184-1.15,0-.1.517.793-.034,1.184-.023Zm-1.495-4.472c-.586.3-1.149.575-.851,1.322.241-.471.92-.724.885-1.345Zm.529,3.989c-.287-.149-1.15-.207-.276-.506-.356-.517-1,.149-1.586.2.644.368.92.241,1.9.287Zm10.715,59.781c-.529-.172.149-.31-.368-.483a15.751,15.751,0,0,1-3.851,1c.713.356,2.84-.333,4.254-.54Zm-12.427-62.517c0-.621-1.345-.333-1.058.218.552-.253.828.126,1.093-.241Zm.345,3.311c-.092-.414-1.081-.1-1.264.1.46.161.609-.138,1.3-.126Zm7.312,59.942c.2-.54-1.541,0-1.736.138a2,2,0,0,0,1.771-.161Zm-9.979-60.85c0-.4-.586-.4-.759-.161a.713.713,0,0,0,.794.138Zm-2.909-.7c-.885.2-1.621-.322-2.3-.057-.069.437.276.391.207.816.2-.264.954,0,.782-.621.253.448.885-.057,1.345-.2Zm-.253.172a.414.414,0,0,0,.483.632c-.506-.77.609,0,.575-.759a3.07,3.07,0,0,1-1.046.1Zm-1.69-2.472c-.391-.368-.517-.08-.931.069.426.356.563.058.966-.126Zm-12.025,67.253c.069-.23-.218-.241-.218-.425a8.537,8.537,0,0,1-1.908.092c.1.425,1.656.517,2.161.31Zm.126-64.31c-.448-.483-1.265,0-1.6-.586-1.046.069-1.483.356-2.3-.069v.69c1.173-.172,2.667.207,3.932-.057Zm-4.1,64.069a10.184,10.184,0,0,1-1.8.092c.092.425,1.943.391,1.84-.115Zm0-64.46a30.651,30.651,0,0,1-6.84-.874c.632.414,2.3-.057,2.575,1.035,1.931-.2,3.415.069,4.265-.184Zm-.506,1.782c0-.4-1.241-.368-1.541-.184.115.379.586.563,1.3.6-.011-.207-.023-.425.242-.437Zm-2.012.218c-.126-.506-.908,0-1.816-.184,0,.241-.3.276-.253.54a10.02,10.02,0,0,0,2.069-.368Zm-4.6,65.437a1.851,1.851,0,0,0-1.38-.172c.138.517.633.012,1.334.15Zm2.518-69.357c0-.31-1-.08-1.414-.172.494.31,0,.287-.736.253.242.54,1.46-.069,2.1-.1Zm-1.265,2.035V165.4h-1.15c-.2.379.7.264,1.1.4Zm-3.035,67.552c-.173-.241-.6-.3-1.15-.276a.816.816,0,0,0,1.1.253Zm-.529-2.069c0-.264-.736.1-.977.138.15.529.725.069.931-.161Zm-1.563-.552c0-.356-.644-.276-1.15-.287-.126.46.782.46,1.1.264Zm-1.966.4c.218,0,.1-.138,0-.138,0-.368.759-.1.6-.552-.471,0-.426-.253-.989-.149a.494.494,0,0,1-.391.276c-.034.333.713.184.736.54Zm-.161-67.748c0,.161-.448.115-.736.138-.241.253.724.46,0,.552.23.218,1-.437,1.241-.69-.874,0-.6-.379-1.483-.138.023.161.563.092.931.115Zm-1.437,70.771c0-.46-1.081-.632-.989,0a1.034,1.034,0,0,0,.943-.023Zm-.172-2.9c.092-.437-.529-.379-.586-.7a.632.632,0,0,0-.414.563,1.886,1.886,0,0,0,.954.115Zm-2.552-66.759c-.126-.115-.253-.23-.241-.414-.276,0-.609.253-.241.276-.149.149-.552.161-.483.425.218-.092.437-.172.483,0,.218-.069.115-.31.437-.31Zm-1.678-.529c-.15.54-.2.575.241.966.311-.31.713-.989-.287-.989Zm-1,68.874a.207.207,0,0,1,.2-.276c-.448-.287-.368.3-1.15,0,.08.23-.15.264-.391.287.3.345.632-.437,1.3-.034Zm-3.035-64.115c-1.8-.632-6.024-.218-7.679-.448.667.816,5.2.356,7.634.425Zm-2.587-.9v-.414a3.069,3.069,0,0,0-1.391.184c-.023.333.724.23,1.345.207Zm-1.633-.356v-.414c-.448.069-1,.08-.931.437Zm-1.149-2.173c0-.161-.23-.069-.23,0-.816-.609-.172.368-.931.3.08.184.586.1.943.115-.115-.207-.138-.345.126-.437Zm-4.334,3.047c0-.471-1.253-.2-1.828-.333.23.6,1.012.081,1.736.31Zm-6.381,70.128a1.747,1.747,0,0,0-1.517-.069c.012.322.977.023,1.426.081Zm-23.429-66.529c-1.69,1.012-.517,1.575,1.9,1.334-.173.207-.667.207-1.035.3-.092.437.954.08,1.046.391.276-.057.161-.356.2-.563,2.058.057,2.219.115,4.472.092.264-.529,1.081,0,1.472-.609.575.1-.644.333,0,.552,1.495-.172,1.333-.54,3-.4,0,.391-1.414-.1-1.069.46a5,5,0,0,1,2.61,0,.667.667,0,0,0-.242-.678c.575-.069.725.161.667.529a1.839,1.839,0,0,0,1.724-.632c-1.15-.977-5.081.276-6.507-.4-2.506.448-4.84.471-7.392.7,0-.253.7-.1.828-.3,0-.425-1.276-.23-1.253.172-.678-.241-.678-.356-.506-.931Zm15.6,70.208a1.333,1.333,0,0,0-1.356-.207c.127.241.621.276,1.265.218Zm-.644,1c.161-.54-1.081-.483-.9,0Zm-.31-10.209c-.426-.23-2.437-.207-1.989.506a5.189,5.189,0,0,1,1.9-.494Zm-.621,9.013c-1.242-.575-3.345.207-4.6.057a1.069,1.069,0,0,1,.712.793c1.15-.069,2.012-.621,2.978-.4.127-.2.1-.529.816-.437Zm-3.345-67.253c-.173-.3-1.23,0-1.736,0,.311.609.759.1,1.644.012Zm1.379,61.954a.575.575,0,0,1-.241-.54c-.7-.081-.425.391-1.149.322-.034.356.7.207,1.3.207Zm-.827-1.161v-.414c-1.15-.276-1.69.172-2.955.4C1898.526,235.772,1899.388,235.255,1900.538,235.531Zm-2.978-.149c-1.92-.333-3.449.54-5.748.207.241.333.092.3.253.828,1.092-.483,3.311-.828,3.713-.264.4-.057.506-.264.437-.575.667.092.264.2.241.54.632-.138.529-.667,1.127-.782Zm-2.15-59.149c0-.621-.644.08-1.288-.092.333.287.77.172,1.311.046Zm-2.046,3.943c-2.426-.494-6.082,0-8.461.138-.517-.138.161-.621.632-.575-.219-.379-.9.069-1.253,0,0,.253.253.287.207.552s-1.023.069-1.448.161a8.61,8.61,0,0,0,4.484.563c1.644-.126,3.449-.391,5.633-.437,0-.23-.012-.414.23-.448Zm-.621-7.978c-.218-.218-.9-.115-1.276-.218,0,.241-.241.287-.2.552.862.057.655-.483,1.494-.379Zm-1.4,64.1c0-.54-1.023-.483-1.885-.494,0,.241.287.276.241.54.495-.379.943-.023,1.644-.092Zm-3.161-62.437c-.069-.322-.333-.506-.23-.966a20.7,20.7,0,0,0-2.9.782c.724.54,1.874-.046,3.15.138Zm-6.392-2.3h1.012a53.72,53.72,0,0,0-5.576-.345,36.88,36.88,0,0,0-5.966.333c-.207,0-.115-.276-.368-.287a5.462,5.462,0,0,0-1.15.23c0,.425.943.264,1.518.333,0,.2,0,.391-.207.4a30.323,30.323,0,0,0,3.771.207,22.993,22.993,0,0,1,4.541.552,3.265,3.265,0,0,0,1.621-.713c.6.1-.115.448,0,.69.529.1.943-.552,1.219-.149.6-.138.23-.218.207-.563a7.622,7.622,0,0,0,2.437.253c.207.46-.633.218-1.012.287a3.161,3.161,0,0,0,2.678-.069c.149-.529-.989-.874.2-.966a3.989,3.989,0,0,0-2.046,0c-.747.1-1.426.207-1.644-.092,1.495-.333,4.334,0,5.127-.816-2.23-.529-4.058.322-6.346.138Zm5.748,5.127a.529.529,0,0,0-.839-.391c.046.276.518.241.92.3Zm-2.1-.77c0,.115.218.126.218.264a29.292,29.292,0,0,1-5.139-.322c-.828,1.426,3.92,1.046,5.139,1.15.966-.483,1.092-1.046-.138-1.184Zm-1.253-2.046c-.149-.31-.678-.356-.816-.678-.276.425-1.748,0-1.828.575.966-.506,1.678.333,2.724.011Zm-7.794,6c0,.138-.253.1-.4.138,0,.2.6,0,.6.276-.218.31-1.276,0-1.828.126.851.644,2.932.471,3.656.851a.575.575,0,0,0,0-.828c.2-.471.46,0,.828-.287.586.172-.655.3-.414.7,1.6,0,1.954-.207,2.7.23.655-.207,0-.218,1.241-.149.1-.954-1.333-.184-1.862-.529.69-.586,2.69.483,2.69-.448-2.587.184-5.852-.77-8.645.184.517.207.759-.448,1.518-.356Zm5.15-5.139c.713,0-.517-.506.2-.552-.2-.414-.678.069-.816.149.023.264.678.057.7.264Zm-.816-.54a10.645,10.645,0,0,0-2.92,0c-.92.08-1.552.3-1.149.632,1.092-.713,2.483-.126,4.15-.724Zm-3.587,11.071c.322,0-.184-.253.207-.276-.4-.632-1.759,0-2.483,0,.322.609,1.943-.253,2.357.184Zm-2.081,0h-1.035c.126.126.253.253,0,.276,0,.207.621.057.609.287.448-.161.563-.368.506-.678Zm1.023-11.025c-1.288-.391-4.277,0-6.507-.391,1.288,1.15,3.6.391,5.748.655-.149-.529.483-.356.839-.379Zm-7.243,11.864c-.483.241-1.736-.276-2.069.345a2.886,2.886,0,0,0-1.426-.333c-.138.287-.609.425-.253.69.471,0,.264-.391.644-.391s.46.379,0,.414a15.417,15.417,0,0,0,4.944.172c-.46-.138-.931-.621-1.426-.333,0-.851.966-.322,1.437-.08.069-.161.8-.517.437-.54,0-.425-1.023,0-1.633-.333.575-.379,2.3.172,2.679,0-.149.333-.448.7.391.69-.092-.954.954-1.15,2.115-1.219a.586.586,0,0,1-.2-.552c-2.3.494-6.817-.621-9.806-.414,0,.241.23.3.161.563-.632-.115-.667-.575-1.368-.655v.552c-.356,0-.414-.2-.793-.2s.264-.2-.161-.425l-1.011-.069c0,.161,0,.241-.219.264.356.31.483.759,1.345.782a.655.655,0,0,0-.241.54c.494-.241,1.149.333,1.632,0a.563.563,0,0,1,.356.575,27.062,27.062,0,0,1,4.541-.161Zm-.184-13.393c-.184.437.287.437.356.7a23,23,0,0,1,2.529,0c-1.15.655,2.472.483,2.771,0a10.839,10.839,0,0,0-3.07-.264,5.748,5.748,0,0,1-2.506-.552Zm.8-.529c0-.322-.839-.1-.966,0,.207.345.747.034,1.012-.115Zm-1.219,1.15c.161-.494-.276-.609-.931-.575-.161.368.368.287.356.563a14.316,14.316,0,0,1-2.23.184,1.7,1.7,0,0,0-1.483.6,5.749,5.749,0,0,1,2.863.563c.264-.126.4-.356.793-.379-.276-.333-.46-.23-.954-.172.276-.6.8-.839,1.7-.851Zm-6.082-.46c-.127-.322-1.15-.218-.966.207a1.288,1.288,0,0,0,.747.2c.069-.264.081-.46.3-.471Zm-12.439,71.335c-.6-.621-1.414,0-2.483-.115-.172.368,1.518,0,1.345.414.793.046.357-.575,1.219-.368Zm-8.565-2.736c-1.552-.425-3.2-.138-4.6-.977-.977-.2-.678.529-1.782.218-.333.207.747.621-.115.54a13.946,13.946,0,0,0,3.84,1.069c.391-.126.448-.448.126-.678a9.946,9.946,0,0,0,2.61-.241Zm7.45-66.874c0-.3-.747-.172-1.058-.3C1847.47,174.6,1848.333,174.715,1848.6,174.6Zm-.253-2.69c0-.31-.862-.172-1.15-.345-.115.736.46.126,1.15.31Zm-6.9.3c.54-.1-.264-.586-.747-.621-.322.575.781.368.747.586Zm-23.429,56.539c-.8-.448-2.012-.793-1.379-1.15-1.851-.759-3.1.609-1.69,1.632,1.115-.046,2.816.356,3.069-.517Zm6.9-46.388c.241-.368-.264-.552-.839-.736,0,.241-.345.184-.391.448a2.368,2.368,0,0,0,1.184.253ZM1795.358,219.4c.391-.575-.506-.793-.816-1.15.3-1.046,1.15-1.069.54-2-.678-.31-.966-.069-1.437-.08a2.575,2.575,0,0,0-.4,2.2c.448.31,1.472.46,1.15.989.2-.115.632.08.919.012Zm8.358-26.039c0-.31-1.046-.483-1.219-.437.069.218.333.4.713.552-.046-.276.2-.218.459-.149ZM1792.461,216.6c-.3-.126-.425,0-.747-.115-.276.31.127.425-.058.713.253-.184.678-.172.759-.632Zm14.7-42.651c.333-.437-1.563-.9-1.368-.333s.839.23,1.322.3Zm-10.013-.885-.471-.138c-.092.448-.736.483.264.793-.058-.494.517-.264.126-.69Z" transform="translate(-1762.961 -146.94)"/>
</svg>
