<svg xmlns="http://www.w3.org/2000/svg" width="466.156" height="227.161" viewBox="0 0 466.156 227.161">
  <defs>
    <style>
      .cls-1 {
        fill: #ede6dd;
        fill-rule: evenodd;
      }
    </style>
  </defs>
  <path id="Path_5302" data-name="Path 5302" class="cls-1" d="M677.213,454.77a11.4,11.4,0,0,0,2.26-.843,2.888,2.888,0,0,0,1.416-1.4c1.127.961,1.628.3,2.191-.212s1.221-.869,2.624.768c.576-.277-1.175-1.954-.436-2.142a19.24,19.24,0,0,0,2.279.7c-.407-1.3.69-1.4,1.69-.326-.166.127.28.651.2.817-1.2-.674-2.224.619-2.175,1.722a16.865,16.865,0,0,1,1.628-.82,2.911,2.911,0,0,0,.733-.534,1.538,1.538,0,0,0,.423-.827c-.182.059-.326.326-.6-.042.427-.189-.12-1,.306-1.195.57.651.355,1.276.794.866-.055-.44-.358-1.048-.166-1.332,1.465.326,3.1,0,3.367-1.465a1.971,1.971,0,0,0,1.765.355,5.208,5.208,0,0,0,1.3-.729c.811-.521,1.628-.755,3.074,1.419.6-1.41,1.628-2.234,3.507-1.266.228-.186-.541-1.185-.173-1.257,1.1.723,1.628.1,2.142-.69a7.29,7.29,0,0,1,.788-1.143,1.254,1.254,0,0,1,1.088-.472c.625,1.433-1.524.41-.228,1.908a2.441,2.441,0,0,1,2.738-1.237c1.078.1,2.178.407,2.9,0,.326.843-.427.651.13,1.7a3.13,3.13,0,0,1,.957-.28,1.107,1.107,0,0,0,.908-.651,5.9,5.9,0,0,1,.772,1.358c.612-1.3,2.139-.186,3.516.059-.159-.9-.908-1.2-.6-1.446l.8-.361c.026.563.378,1.429.723,1.387a2.416,2.416,0,0,1,.791-.632c.326-.159.7-.283,1.052-.433a2.654,2.654,0,0,0,1.677-1.67c.055,1.54.518.179.589.182s.244.723.273.733a3.158,3.158,0,0,0,2.237-.358,11.679,11.679,0,0,0,1.123-.667c.391-.231.775-.485,1.156-.729,1.511-.977,2.894-1.872,3.787-.977-.544-.765-.049-2.634.912-1.576.427.977-.081.863.147,1.608a14.45,14.45,0,0,1,2.93-1.24c1.032-.326,2.1-.632,3.194-.922l1.657-.436c.274-.075.563-.143.856-.205l.879-.2c1.172-.273,2.357-.583,3.546-.977-.153-.052-.326.081-.433-.286,1.185-.062,2.081.107,2.885.124a3.621,3.621,0,0,0,2.471-.72,10.564,10.564,0,0,0,3.38-.433l1.6-.42c.234-.059.446-.111.632-.15a3.5,3.5,0,0,1,.475-.055c-.1-.094-.4-.244-.622-.42s-.355-.384-.15-.615c2.445,2.081,4.1,1.677,6.808.977.527,1.788,2.478,1.423,2.195-.453-.651-.114-.905.3-.977.977-.326-.492-.961.182-1-1.387.905-.2,3.855-1.133,2.6.681,2.686-1.918,4.021.775,6.434-.772a1.837,1.837,0,0,0,2.452,1.628c.925-.192,1.732-.583,1.755.459.576-1.071,1.7-1.048,2.6.378-1.524,1.26-2.764.7-3.669,1.765.619-.221,1.169-.241,1.446.563.674-1.4,1.553-1.348,2.478-.391-.254-1.719.742-.352.951-.15.075-1.3-.651-.2-.58-1.491a2.643,2.643,0,0,1,2-.44,5.191,5.191,0,0,1,2.211.993.938.938,0,0,0-.694.886c1.032-.72,2.507,1.2,2.465-1.127-.436-.173-1.237.651-1.423-.2a2.614,2.614,0,0,1,3.435.326c-.264,0-1.429.137-.742.5.957.251,1.13-.667,1.683-1.019a4.4,4.4,0,0,0,2.93,1.719,15.552,15.552,0,0,1,2.93.29c.14-1.436,1.39-1.192,2.308-1.452a3.013,3.013,0,0,0,.326,1.143c.153,1.013-.755.4-.459,1.628.827,0,2.6-.843,3.93.71.449-.853,2.875-2.012,3.373.436-1.413.5-2.641,1.071-3.507.368-.1,1.335-4.2-.247-3.66,2.012-.228-.55-.42-1.2-.912-1.071a21.937,21.937,0,0,0-1.172,2.494c-.179-2.79-1.065,1.449-1.514-1-.677-.267-.326,1.055-.68,1.26-.579-.326-.912-1.25-1.537-1.381-2.048,1.791-4.4,1.98-6.782,1.911l-1.765-.065c-.573,0-1.146-.029-1.713,0a9.581,9.581,0,0,0-3.256.547c.977.228,2.165-.1,2.823,1.133-.326.156-1.074-.944-1.117.176.374.3.948,0,1.218.6-.915.817-1.859-1.133-2.149-.449,1.1.026.146,1.465.208,1.55.453.6.876-.54,1.628.922-.055-.736-.326-.817-.394-1.517.4.052.5.977.9,1.048,2.028-4.392,6.7-1.273,9.621-3.757.381,1.973.944.833.772-.111.931.472,1.153,1.28,1.608,2.155.56-2.712,3.256-.127,4.233-2.074.723,1.1,1.713.9,2.7.443.495-.231.977-.524,1.449-.749a2.53,2.53,0,0,1,1.267-.326c-.166-.065-.267-.3-.274-.759.713-.238,1.12-.72,1.677.221-.4,1-.43-.537-1.062-.28,1.713,2.624,3.888.212,6.085.935a4.36,4.36,0,0,1,1.14-1.3c.469,1.055,1.628.6,2.6.544.075-1.14.378-1.954,1.364-1.7-1.276-2.6-3.256-1.709-4.558-1.14.609-1.556-.557-1.709.2-2.771.762,2.11,4.041.26,4.969.713-.42-.124-.925-.055-.934-1.084.651-.078,1.745-1.221,2.338-.218-1.088-.182-.729,1.452-1.488.137a4.91,4.91,0,0,0,1.892,2.572c.072-1.218-.762-.41-.563-1.911.215,0,.231-.326.4-.43.365,1.055,2.351.215,1.833,1.794a4.009,4.009,0,0,1,1.244-.4,3.737,3.737,0,0,1,1.358.055,2.826,2.826,0,0,1,2.064,1.9c1.3-.563,2.442-1.169,3.611-1.556a7.755,7.755,0,0,1,1.781-.381,6.314,6.314,0,0,1,1.953.153c.075.58,0,1.439.326,1.54.124-.879.72-1.035,1.019-1.648.15,1.355.6-.081.716.729-.306.12-.2.876-.374,1.2a.977.977,0,0,1,1.136.306c.1-1.218-.794-.42-.563-1.914.56,0,.651-.671,1.071-.866.948,1.377,2.155-1.273,3.816.094a4.049,4.049,0,0,0-.13,1.576c.811-.192.684-1.8,1.446-2.077-.02.567-.326.694-.378,1.208a1.689,1.689,0,0,1,1-1.228,2.048,2.048,0,0,1,1.364.15c.934.371,1.84,1.114,2.2,1.123-.254-.072-.586-.6-.273-.762,3.744.475,6.821-.6,10.373-.781.049.436-.306.651.046.778.785-.225,3.145-1.579,5.151-2.279a8.071,8.071,0,0,1,1.41-.374,2.536,2.536,0,0,1,1.123.036c.606.2.873.791.554,1.993.189.075.472-.02.5.352-.28.085-.687,0-.7.446.781.557,2.094-.733,3.087-1.019a6.9,6.9,0,0,0,.821,1.5c1.628-2.872,3.122,1.3,4.884,0,.143,1.016-.925.378-.625,1.628,1.143-1.693,2.833-1.954,4.669-1.954s3.832.231,5.584-.485c.156,1.029-1.42-.238-.908,1.26,2.5-1.3,7.489-.394,10.745-1.784-.677,1.263.977.446,1.149,1.455a4.032,4.032,0,0,1-3.409,1.7,6.257,6.257,0,0,0-3.992,1.361c.182.55-.137,2.042.407,1.924.544-3.7,3.819-1.8,5.861-3.3.159.6.827.254.651,1.5a5.237,5.237,0,0,1,3.94-1.931,13.426,13.426,0,0,1,5,.615c.6-1.788,2.569-.023,3.819-1.214-.5.651-.189,2.279-1.068,2.481-.4-.977.651-1.768-.413-1.527-.029,1.446-.938,1.784-1.915,1.9s-2,0-2.3.524c.674.029-.293.71.143,1.556,1.016-1.185,2.113-.13,3-1.495.694,1.117,2.986,2.038,1.563-.176,1.12,2.152,3.031.127,4.168,1.882-2.891.02-3.751,1.9-5.861,2.234,1.368,1.211,2,.387,3.227.427a2.46,2.46,0,0,1-.2,1.143c.957-.052,1.83-.133,2.654-.2a19.6,19.6,0,0,1,2.364-.078,8.316,8.316,0,0,1,4.529,1.5c0-.462-.176-1.1.137-1.195,1.911,1.374,5.037.293,6.838-.12-.326,0-.651-.026-.651-.694,1.188-.186,2.559-.723,2.865.785.609-.231.042-1.735.886-1.7.951.749,1.53,2.234,2.6,2.784-1.065-1.384,3.416-2.849,2.536,0,1.758,0,2.53-1.286,4.047.567a6.268,6.268,0,0,1,1.387-2.2c-.736-3.676-.215-4.2-.762-7-1.341,1.058-2.354,1.693-3.191-.677-.156,1.084-2.351,1.348-2.989.449-.759,1.358-1.892,1.3-3.191,1.026s-2.732-.807-4.155-.368c-.081-1.895-.954-.326-1.586-1.752a18.773,18.773,0,0,0,2.585-1.146c-.234,1.254.234,1.5.834,2.247a1.158,1.158,0,0,1,2.149-.3c.1-1.667-1.221-.534-1.543-1.361a21.263,21.263,0,0,0,3.025-2.019c.807,2.081,2.8,1.657,3.94.6.651.817.684.954.277,1.931a6.336,6.336,0,0,1,7.459-.8c.29-2.93,3.1.378,3.871-.651a1.778,1.778,0,0,1-1.019-1.016c.892.133.7-.8,1.592-.667.182,1.517,1.26,1.211,1.993,1.628.143-.762-1.055-1.133-.264-1.537,2.419,0,3.37.133,4.939-1.3.472,1.214.433,2.351,2.11,1.976a2.8,2.8,0,0,1,0-1.592c-.788-.361-.96,1.361-1.4.277,1.5-1.075,3.152,1.2,4.067-1.6.472.254,1.143.088,1.136,1.367-.57-.049-.508-1.442-1.345-.925.687,1.709-.749,2.015-1.608,2.305,1.859-.2,3.757,3.738,3.966.807a21.616,21.616,0,0,1,4.155.977,37.28,37.28,0,0,0,4.369,1.2c.049.563-.326.755-.326,1.28,1.706.446,2.035-2.5,2.7-.212-1.41.365-3.184.43-3.624,1.628a1.26,1.26,0,0,1,1.329.5c-1.475-.609.036,1.55-2.455,1.332.534,1.41-.609,1.358-.4,2.488.824.462,2.048.1,2.653,1.032-2.041,1.6-3.51,1.628-5.128.283.384-.3,1.6.13,1.387-.69-1.573.55.749-1.573-.817-1.026-.55,1.752-1.589,2.035-2.458,2.9.29-1.667-1.12,1.3-1.953-.811-.427.469-.326,1.394-.87,1.768-2.722-1.98-6.981-.892-9.387-1.019.5.374,1.335.094,1.406,1.328-.286.052-.286.378-.508.492-1.179-1.556-2.745.68-3.445-1.381-1.449.283-1.335.632-2.322,0-.12.9.433,1.781-1.172,1.784-.039-.8.651-.886.606-1.687-1.133.121-2.621.677-4.057.977s-2.8.375-3.617-.553c-1.374,3.256-3.8,3-6.125,2.523s-4.558-1.208-5.734,1.156c-.068-.514-.521-.3-.651-.71.729.143.977-.287.674-1.27-1.361.3-1.335.127-3.344-.355.651,2.087,2.719,1.524,3.676,3.067-.5.8-1.954.524-2.93.778.488,1.084,2.93.811,3.686.7.039,0,0-1.273.407-1.237s.843.977,1.25,1.013c1.889.12,4.318-2.2,5.633,0-1.016-.072-1.394.537-1.521,1.4a23.459,23.459,0,0,1,6.16-1.133,46.871,46.871,0,0,0,6.772-.866c.065.387-.156.5-.163.82,1.723-1.185,4.008-.081,5.812-2.188.026.567-.361.736-.378,1.26a11.676,11.676,0,0,0,2.908-2.113c-.449,1.035,1.182,1.1,1.553,2.094q-.293-1.241.651-1.3c.736.436-.2,1.006.492,1.1,1.4-.723,3.083-1.26,4.086-2.38.146.7-1.257,1.6-.228,2.038.736-1.175,2.455-1.3,4.233-1.149s3.627.563,4.558.554c-.977-.28.671-1.416,1.1-.651.192-1.039-1.416-.944-.612-1.465a1.218,1.218,0,0,0,1.54.57c.563-.117,1.136-.326,1.374,0,.755,1.257-.977.459-.651,1.351a12.7,12.7,0,0,0,4.614.977c-1.221,1.146-3.412,1.3-5.665,1.589s-4.617.759-6.284,2.585c.423.856,1.234-.576,1.706-.746.7,2.484,1.081,0,2.025.775-.065,1.628-.886,1.742-1.82,1.608s-1.954-.544-2.507.075c.371-.033.726-.029.742.651-.3.059-.29.384-.521.5-1.9.114-5.454-.651-5.275,1.426-1.475.085-3.051-2.325-4.158-1.221a5.73,5.73,0,0,1,4.138,2.816c.072.537-2.081.625-1.045.977,1.924-1.628,2.777-1.589,4.845-2.116-.326-.573-1.442.374-1.406-.918.925-.059,2.234-.879,2.53.3-.752.785.83,1.924.811,1.029-.873-.182,0-1.459.306-1.648.163.557.788.208,1.266.147a2.6,2.6,0,0,0,.6,1.468c.947-.156,1.354-.772,1.953-1.208,2.149.651,4.366-.326,6.571-1.475s4.317-2.361,6.346-2.211c-.182.065-.355.14-.221.453.273-1.827,2.474-.977,2.1-2.113.433.277,2.26.5,2.237-.147-.345-.612-1.449.387-1.716-.384a1.064,1.064,0,0,1,.43-.908c1.052.833,1.061.293,1.84-.453.4.309.8.609,1.2.9a33.052,33.052,0,0,1,4.451-1.954,2.132,2.132,0,0,1,0,1.214,1.675,1.675,0,0,1,2.279-.2,6.163,6.163,0,0,0-1.709,2.422c1.2-.954,3.539-1.188,3.582-2.992-.615-.068-1,1.462-1.563.43a7.379,7.379,0,0,0,2.1-2.194c.14.684.547.791,1.133.488-.43,1.143.934,1.98,1.673,2.374-.176-1.433-1.081-1.253-1.358-2.458,1.537-.085.163-.684.729-1.016,1.543-.609,2.168.853,3.581.589-.029,1.3-1.263,1.794-1.576,2.908,1.856-.287,1.547-2.012,3.054-2.527.238.948-.26,1.351.755,1.4a4.583,4.583,0,0,1,1.468-1.765,9.829,9.829,0,0,1,2.126-1.149c1.543-.651,3.22-1.048,4.422-1.628-.713-.778-.749.977-1.387.033-.085-.554.56-.651.716-1.052.459.856,1.478.407,1.664,1.931,1.364-1.895,3.692-1.442,5.841-2.777.482.449,1.719,2.5,2.113.934-.41.091-.8.15-.9-.524a18.411,18.411,0,0,1,4.386-1.954c1.13,2.5,3.715,1.354,5.535,2.129.531-.8-.742-.736-.078-1.224,4.021.508,5.991-.41,10.829-1.319-1.924,1.465,2.279-.358,1.25,1.179a10.343,10.343,0,0,1,2.335-2,3.806,3.806,0,0,1,2.331-.817c-.427.488-1.257-1.465-.612-1.442.944.355.651,1.3,1.628.153.358,1.374.977,1.97,1.927,1.713.368-.417-.55-1.4.039-1.719,1.276.127,1.423-.254,2.3-.156a1.886,1.886,0,0,0-.521,1.508c1-.729.863.5.808.925a6.316,6.316,0,0,1,3.321.208c-.8-1.742-2.035-2.243-1.775-3.907-1.133.3-1.654-1.208-2.445-1.888a30.433,30.433,0,0,1,3.949-1.628c1.42-.485,2.93-.876,4.451-1.234a34.912,34.912,0,0,1,4.6-.719c.759-.065,1.511-.1,2.247-.1a21.224,21.224,0,0,1,2.152.068,2.6,2.6,0,0,0,1.953,2.953c-.68-3.809,1.521-4.633,4.282-5.167s6.092-.876,7.456-3.412c-.622-2.149-1.465-1.921-2.654-3.907,2.719-1.175,2.26-3.292,2.6-5.151,1.537-1.716,2.53-1.875,4.357-3.51.286.387.583.733,1.029.28.651-.834-1.2-.1-1.328-1.469,1.953-1.54.492-5.011,2.907-5.535a5.441,5.441,0,0,1-2.006-3.816c.28.427,1.094-.114.892-.576-.544.205-.277-.479.384-.71-.3.938,3.1,1.524,2.426-.166-1.475.049-3.705.684-3.988-1.628a1.654,1.654,0,0,1-2.4.14,9.268,9.268,0,0,1,.326-2.068,11.9,11.9,0,0,0-2.217-.905,6.939,6.939,0,0,1,2.279-2.976,5.167,5.167,0,0,1,.889-.537,3.915,3.915,0,0,1,.957-.326,3.458,3.458,0,0,1,2.113.228c.85-1.2.172-4.848,2.715-3.256a3.582,3.582,0,0,0-.589,2.768c1.14-.752,1.192-3.754,3.158-2.637a13.48,13.48,0,0,1-4.943,7.453,10.841,10.841,0,0,1-2.735,1.478,4.317,4.317,0,0,0,2.442-.426,8.4,8.4,0,0,0,2.217-1.648,25.328,25.328,0,0,0,3.582-4.858,4.732,4.732,0,0,0,2.754-1.429,7.775,7.775,0,0,0,2.022-2.93c.788-.241,1.491.527,2.279.273a9.71,9.71,0,0,0,1.573-1.862c.534-.768,1.084-1.6,1.654-2.26,1.136-1.322,2.351-1.954,3.65-.078,1.3-.238-.651-1.179.078-1.54a1.708,1.708,0,0,1,1.989.941,28.1,28.1,0,0,1-1.81,6.922c-.417,1.149-.834,2.305-1.241,3.425a28.975,28.975,0,0,0-1.042,3.487c1.364.26,2.81-.2,4.05,1.4,3.148-2.279,3.806-5.724,4.474-9.117a31.218,31.218,0,0,1,1.218-4.956,8.867,8.867,0,0,1,3-4.08c-3.142-2.165-1.768-5.333-5.164-6.877a1.549,1.549,0,0,0,.749-1.12,36.093,36.093,0,0,1-2.878-2.93,5.724,5.724,0,0,1-1.341-3.227c-.414-.5-.795.387-1.211,0,.814-.667-.326-1.742-.534-2.6-.492-.3-.941.72-1.439.192-6.463-5.9-10.667-8.114-18.377-13.779-2.93-.026-5.962-2.279-8.885-2.474-.378-1.687-3.09-1.82-3.51-3.708-.446.485-.9.58-1.367.068.576-.309.788-.723.43-1.3-.892,1.11-1.5-1.127-1.628-1.221-2.442-1.954-5.691-2.527-8.2-5.053a2.852,2.852,0,0,1,1.7-1.354,11.165,11.165,0,0,1,2.318-.407c1.586-.179,3.09-.4,3.422-1.973,1.42.257,2.774-.55,4.288,1.058-.632.6-1.107,1.244-.326,2.279a12.252,12.252,0,0,0,7.1-1.752c2.5,2.445,4.6-.729,6.893-1.247.5.593-.257.873.586,1.556a14.94,14.94,0,0,1,3.686-3.145,22.03,22.03,0,0,1,4.614-2.133c3.826,2.66,7.792-2.3,11.021.948,1.276-.58,2.53-1.367,4-.615,1.062,1.677,1.062,3.155,3.217,5.04,1.979,1.032,3.581-.723,5.493-.423-.931-1.11-.6-3.2.912-3.109.407.694.02,1.247.293,1.918,2.409.9,3.582,2.471,5.861,3.546.58-.762,1.237-2.152,2.644-.977-.2.531-1.628.033-1.016,1.016.684-.612,1.628.427,2.318-.111-1.84-1.862.733-.886,1.218-1.224-.049-1.208-1.452-1.263-1.817-2.6,1.127-1.361,3.458-1.175,5.4-1.2s3.5-.27,2.969-2.439c-.651-.114-1.1.619-1.628,1.156a37.582,37.582,0,0,0-10.526-.9c-.325-.433-.254-.814-.915-1.3-.518.843-.326,1.807-.951,2.631-.814-.273-1.628-.524-2.217.567-.443-2.094-1.8-.6-2.784-1.628.241-1.052.036-1.091-1.24-2.071.387-.394-.5-1.009.234-1.345,1.2-.547,2.559-1.094,3.868-1.794a16.028,16.028,0,0,0,3.767-2.676c-2.7-.977-4.884.622-7.333.843-2.175-2.751-3.64-2.774-6.492-3.438-.977.273.739,1.048-.222,1.325-3.324-2.247-7.212-2.624-10.067-6.512,2.517-2.123-.729-5.385,1.895-7.453-1.2-1.273-.752-2.217-1.592-3.415-.622-.508-1.091-.358-1.628-.547a3.377,3.377,0,0,1-.5-2.3c-3.1-4.233-4.532-.977-7.287-3.709.824-2.279,3.455-4.2,3.184-6.691-.9.469-3.038-1.087-3.142-2.37-1.823.111-4.164-1.954-5.929-1.709-.283,3.119,2.96,6.186,2.178,9.517a6.588,6.588,0,0,0-3.927-1,9.28,9.28,0,0,0-3.471,1.045c-2.155,1.081-3.907,2.67-5.157,3,.326-.091.713.023,1.156.521-.651,1.065-1.527.938-2.341,1.123,1.188,1.042-.456,1.332-.036,2.178a1.594,1.594,0,0,1,1.6.651c-2.976,2.523-3.041,5.75-5.669,8.846.267.378.752.817.57,1.065a23.474,23.474,0,0,0-5.027,5.265c-1.4,1.833-2.676,3.754-4.422,5.678.251.387.716.85.508,1.087a7.254,7.254,0,0,0-2.973,1.3c.212-.055.436.081.677.466a19.464,19.464,0,0,0-2.621,1.866,17.776,17.776,0,0,1-2.6,1.81c-1.752.944-3.546,1.114-5.516-1.022.553.14.759-.029.41-.781-.954-.042-2.742-.3-3.057-2.123-.817,1.153-2.836-.26-3.035-1.693-.368-.391-.72-.41-1.091-1.146-.853.192-.619.02-.615.9a2.543,2.543,0,0,0-.863-.83c.306-.257.752-.456.182-1.078-1.214,1.25-1.26-1.26-2.351-1.7-.674.71.84,2.37-.57,2.768,0-1.055-.908-1.224-1.5-2.279.186,0,1.325.27.82-.563-.55.326-1.133-.977-1.69-1.208a1.078,1.078,0,0,0-.6.892c-.036-1.7-1.029.755-1.67-1.218,1.9-.052,2.673-1.41,3.608-2.966a3,3,0,0,0,2.93.58,3.049,3.049,0,0,1,2.93.518,2.009,2.009,0,0,0-.15,1.081c.619-.072,1.3.752,1.931,1.013.951-1.016,2.416-.29,3.988.508a14.056,14.056,0,0,0,2.377,1.039,2.784,2.784,0,0,0,2.182-.124c-1.211-1.732-.244-2.569,1.074-2.81-1.182-1.553-.244-1.667.694-2.015a5.443,5.443,0,0,1-1.7-3.464,3.757,3.757,0,0,0-1.628-2.882c.56.2,1.022-.169.521-.925-.527-.378-.876.827-1.478-.309-.326-.485.238-.651.511-.925a4.847,4.847,0,0,0-3.6-1.986,6.47,6.47,0,0,1-3.461-.886,3.068,3.068,0,0,1,1.706-1.853,5.955,5.955,0,0,1,2.305-.371c1.628-.026,3.279.094,4.122-1.322.326.4.651.811.977,1.214,3.1-.807-1.058-5.773,1.247-6.727a11.353,11.353,0,0,1,.378-7.124c-.479-.234.326-1.853-.326-2.842,1.42-1.283.179-2.686-1.514-4.018s-3.884-2.66-4.444-3.761c-1.514-.651-2.911-.794-4.558-2.2.57-.576,0-.977-.606-1.029l.651-.583c-1.654-1.81-1.146-2.4-2.732-2.794-.817,2.279-3.35,2.325-6.186.3.225-.241-.521-.869-.029-1.006-1.009-1.475-1.38-.02-2.3-1.11,1.442-.5,3.474,1.628,4.978,1.325-.85-.723-.44-.977-1.114-1.628-.355.2-.059.651-.375.86-.186-.85-1.091-.625-1.833-1.5-.632.651-.977.02-2.006.2.365.563-.081,1.8-.843,1.247,1.078-.733-.938-.6-.534-1.608-1.735.674-2.787.182-3.474.948a3.839,3.839,0,0,0-1.052-3.223c-.241.563-.807-.371-1.2-.511a3.292,3.292,0,0,1-.944.251,5.308,5.308,0,0,1-1.016,0,17.674,17.674,0,0,1-2.136-.407,6.61,6.61,0,0,0-4.291.02c-.7-2.168,1.436-2.279,2.468-4.057a9.785,9.785,0,0,0-1.856-3.536c-.684.778-2.006.977-3.171,1.364a2.831,2.831,0,0,0-2.318,2.6c-1.218-.586-1.84.306-2.445,1.439s-1.224,2.426-2.334,2.706a2.386,2.386,0,0,0-1.4,1.146,2.953,2.953,0,0,0,.026,2.738,9.717,9.717,0,0,0-1.592,1.208c-.508.466-1,.993-1.514,1.5a26.881,26.881,0,0,1-3.451,3.129c-.7-.762-.387-1.732-.954-1.244.241,2.234-2.214,2.279-2.426,3.79,1.394-.684,2.79-1.2,4.181-1.748a26.868,26.868,0,0,0,4.054-2.107c.325.44.609.384.941.781-1.061.208-1.377,1.9-1.608,3.217s-.361,2.227-.977.824c.049.267-.3.186-.71.107s-.9-.166-1.13.124c1.384,3.256-1.683.977-2.514,2.006.557.866-.469.651.286,1.661.628,1,1.166.57,1.807,1.628.169,1.488-.254,2.006-.9,2.279a7.427,7.427,0,0,0-2.2.9c-.326-.453-.515-.469-.554-1.032a2.621,2.621,0,0,1-.733.921c-.326.192-.746.111-1.143-.765.485-1.127.371-.02,1.022-.117a2.491,2.491,0,0,0-1.774-2.142c.15-.948-.837-2.732-.326-3.409a.827.827,0,0,1-1.009-.326c-.3-.846.205-1.1-.283-2.09a1.2,1.2,0,0,1-.905.684,3.006,3.006,0,0,1-1.527-.221c.977,1.836-.391,1.752-.752,1.745-.29-1.091.072-1.514.772-1.3-1.107-1.416.394-.82-.417-2-.449-.088-.554,1.182-.856,2.149s-.8,1.628-1.983.267c.876-.078,1.12-.674,1.218-1.371a9.585,9.585,0,0,1,.273-2.087c-1.885-4.884-3.015-2.491-4.773-3.63a4.134,4.134,0,0,1-2.494.723c-.928.107-1.791.257-2.035,1.12.687.186,1.481-.954,2.556.921.495,1.937-1.348-.42-.785,1.26a1.5,1.5,0,0,0,.889-.212c.205-.068.417,0,.886.651-.208.111.146.693,0,.869A3.116,3.116,0,0,1,979,285.253c.557,1.087-.869-.68-.326.586.371.189.749,1.032,1.13,1.628.752-.475,1.517-.189,2.279,1.065-.342,2.442-2.243.879-2.165,3.65a1.475,1.475,0,0,0-1.1-.6c-.4-.026-.733.147-.723.586.28-.179.547.182.8.925a10.132,10.132,0,0,0-3.692.12c-1.029.208-1.98.531-3.188.781.2-1.335.762-.938,1.276-1.82-.586-.446-1.195-.407-1.739-1.377a4.146,4.146,0,0,0,0-2.976,5.358,5.358,0,0,0,.9-1.3.98.98,0,0,1,1.263-.5c-1.006-1.423-1.387-.225-1.771.371-.146-.365-.326-.381-.459-.651,0-2.279-1.013-3.708-2.488-6.583a3.907,3.907,0,0,1,2.107-1.478,12.3,12.3,0,0,1,2.458-.326,9.061,9.061,0,0,0,2.429-.387,3.5,3.5,0,0,0,1.934-1.67,8.573,8.573,0,0,1,2.308.326,2.46,2.46,0,0,0,2.354-.6c.371.866.651.606,1.045,1.654a2.032,2.032,0,0,1,1.8-1.094,5.659,5.659,0,0,1,2.279.55c-.58-1.214-.169-1.195.371-1.061s1.218.374,1.159-.326c.326.449.5.469.583,1.022-.065-1.413.7-1.149,1.576-.788s1.869.837,2.188-.189c-.759.166-.573-2.156-1.582-1.3.26.886,1.13,1.035.807,1.345-1.182-2.061-2.12-.915-3.559-2.4.156,1.188-.231,1.452-.8,1.494a4.992,4.992,0,0,0-1.879.153c-.482-.6-1.879-2.549-1.651-1.3.482-.5.553,1.273.791,1.8-.814.5-2.123-.137-3.021-.065-.58-1.755-.326-1.195.5-1.169a9.386,9.386,0,0,1-1.1-2.077c-.873-.072-.355,1.009-.449,1.589-.977-2.416-2.094,0-3.184-.915.4.742.439,1.182.088,1.276-.189-.531-.117-.681-.518-1.052a17.275,17.275,0,0,0-1.934,1.253l-.912.681-.928.651a14.84,14.84,0,0,1-1.9,1.114,6.943,6.943,0,0,1-2.12.586,3,3,0,0,1-1.628,2.048c-.8.274-1.683-.117-2.348-2.006a10.009,10.009,0,0,0-5.353.977,17.461,17.461,0,0,1-5.48,1.589,2.9,2.9,0,0,1-1.582,2.045,3.581,3.581,0,0,1-2.152.065c.205.052-.091.977-.557.6-1.713-1.429.039-3,1.039-3.23-.811.436-.762-2.465-.876-3.415a15.089,15.089,0,0,1,2.191-1.781,7.851,7.851,0,0,0,1.953-1.765c.446,0,.837.921,1.3.752.143-1.7,1.628.2,2.279-.456.374-.381.114-2.1.531-2.331s1.478,1.1,1.9.918c.251-.108.443-.922.615-1.1-.02,0,.176.768.134.791.439-.2.257-1.3.6-1.54.062-.036.521,1,.576,1.029.778.381.651-1.81,1.172-2.208.85.863.176,1.862.882,1.745-.462-1.25.225-1.322.111-2.2,1.237,1.81,1.527-.908,2.185,1.14.173-.277.387-.586.622-.9s.479-.651.736-.947A4.344,4.344,0,0,1,970.6,265c-.189.016-.407-.488-.629-1a3.355,3.355,0,0,0,1.088-.651,1.917,1.917,0,0,0,.456-1.032c.173.358.094.479.205.778.7-.5,1.358-.957,1.953-1.328a3.77,3.77,0,0,1,1.726-.651,10.634,10.634,0,0,1-.326-1.6c.788.723.677.286.453-.7.586.492,1.218,1.934,1.231,1.078-.944-.72-.12-1.433,0-1.817.371.684.576.238,1,1.228.469.768-.156.6.179,1.254.781-.589.215-1.605-.619-3.256-.6-.381-1.091-.085-1.667-.381.41,1.048.124,1.472-.352,1.56a2.117,2.117,0,0,1-1.507-.492c.163-.1-.2-.671-.107-.83.231.4.485.993.667.977a3.158,3.158,0,0,1,0-1.354.778.778,0,0,1,.472-.54c.43-.173,1.052-.068,1.6-.234-1.026-1.182-.345-1.179-1.078-2.536-.469.28-.922.593-1.374.882-.225.147-.449.287-.677.413a6.777,6.777,0,0,1-.707.326c.739.459.173,1.228.221,1.664-.5-.374-1.7-.977-1.628-.423.172-.023.41.475.651.977-1.283-1.254-1.748-.228-2.706-.326.886-.225.107-.889.5-1.579-.781-.186-1.3-.482-1.087,1.006-.169-.348-.326-.7-.5-1.058a1.368,1.368,0,0,1-.827.856,5.536,5.536,0,0,1-1.322.254,2.864,2.864,0,0,0-2.465,1.188c-.2-.417-.417-1.032-.593-1.016-.41.977-1.367,1.117-2.25,1.2s-1.68.134-1.745,1.026c-.583-1.341-.124-2.146.518-1.508-1.091-2.471-1.091-.205-1.355.169,0-.023-.3-.7-.283-.726-.371.628,0,2.361-.531,2.768-.681.524-1.6-1.3-2.357-.3.456.8.215.941-.156,1.013s-.863.075-.876.651c1.628-.4-1.143,2.409-1.976-.072.514-.068.26-1.032.479-1.439-.729.449-.544-.221-1.2-1.628-.482.651-.912-.358-1.387-.326.462,1.162,1,.827,1.478,1.53-.2.065-.244.3-.3.537-.492-.326-1.328-2.113-1.12-.427a4.954,4.954,0,0,0-.632-1.433,15.507,15.507,0,0,1,2.374-1.872,3.963,3.963,0,0,1,2.8-.127c.407-.807,1.146-.752,1.859-.807s1.361-.254,1.592-1.5c.286.677.534.062.827.915.622-.869,1.693-.6,2.689-.495a2.127,2.127,0,0,0,1.3-.163,1.725,1.725,0,0,0,.583-1.494c-.375.114-.71.736-1.175-.277.43-.1,1.589-2.194,2.367.563.2-.368.326-.785.824-.847-.257-.8-.413-.726-.573-.589s-.326.342-.531-.166a4,4,0,0,1,1.019-.834c.436-.182.977-.081,1.628.759,2.155-1.227,3.438-2.6,5.828-1.5-.9-1.814.651.667.834.414.052-.606-1.029-1.608-.83-1.771.114-.068-.019-.355.036-.475.26-.567.856.58,1.237.6-.4-1.032.326-1.065.716-1.387,1.563,2.488,1.439.365,1.934.173a33.492,33.492,0,0,1,3.562-1.195,10.378,10.378,0,0,0,3.09-1.54c-1.794-.094-1.657.977-3.582.182-.251,1.14-1.12,1.472-2.068,1.716-.475.117-.977.215-1.426.348a2.552,2.552,0,0,0-1.192.586,12.219,12.219,0,0,0-1.2-1.547c-.163-.586.1-.788-.049-1.358-.42-.228-.612.355-.938.807s-.778.775-1.706-.049c.563,1.166-.146.733-.469.729a2.6,2.6,0,0,1-.189,2.657,1.705,1.705,0,0,1-.788.54,1.765,1.765,0,0,1-.794.1c-.326-.671,1.022-.628.325-1.081-.348.182-.684.42-1.224-.651.1-.306.886.055.5-.726-.625-.326-1.029.746-1.954-1.582-.6,0,.824,1.244.368,1.582-.16-.257-.293-.352-.4-.221a5.652,5.652,0,0,1-.9-2.631c-.954-.651-.264.8-.023,1.354-.8-.739-.378-1.488-1.045-2.094a2.51,2.51,0,0,0-.977-.212.938.938,0,0,0-.579.163c.163,0,.365.3.563.586-.3-.107.029,1.276-.557.3.1-.12.345-.107.163-.531-1.084-.651-1.667.781-2.829-.71-.065.609.7.977.534,1.475-.436.827-1.159-.947-1.67-.908.166.55.954,1.775.677,1.84-.475.039-.86,1.149-1.511-.554.023-.326.733-.759.264-1a1.54,1.54,0,0,1-.651.807c-.2.189-.309.462-.13,1.3-.651-.212-.736-1.98-1.266-1.993-.072.293.566,1.394.368,1.55-.436-.58-2.279-1.517-1.123-.326-.651-.1-.726,0-1.485.228.192.55.576,1.3.453,1.508a3.526,3.526,0,0,0-1.706.13,7.254,7.254,0,0,0-1.452.651,9.155,9.155,0,0,1-1.39.707,3.347,3.347,0,0,1-1.589.189c.166.651.521.873.381,1.107-.944-.293-1.713-.58-1.755,1.087a4.153,4.153,0,0,1-.228-1.162c-.326.876-1.328.309-2.009-.1-.1-1.628,1-.6.368-3.048-.853.54-.26,3.8-1.605,3.484.072.921.8,1.28.462,1.494-.573-.326-.651-.1-.733.651-.381-1.276-.837-1.254-1.27-1.628-.348.889-.977.794-1.592.785s-1.162.1-1.38,1.413a6.8,6.8,0,0,0-1-.029,7.953,7.953,0,0,0-1.062.1,9.3,9.3,0,0,0-2.116.6,8.464,8.464,0,0,0-3.5,2.387c-.358-.892-.977-.182-1.234-1.7-.579,1.628-1.612-.586-1.872,1.3.2,0,.4.02.485.68-.326.423-.355.361-1.032.671-.15-.6-.267-1.328-.576-1.068,0,2.6-1.817.462-2.663.247.107.768.374.71.56,1.068-.576.361-1.752.876-2.279-1.074.326-.508.908,1.514.905.2-.254-.052-.361-.8-.563-1.071A4.168,4.168,0,0,1,920.5,256.5a8.193,8.193,0,0,1-2.6.166c-.459-.026-.44,1.328-.651,1.338-.554.023-1.283-1.605-2.1-.781.153-.153-.251,0-.694.137a4.774,4.774,0,0,1-1.078.44,1.234,1.234,0,0,1-1.491-.739c-.231-.957,1.3-.791.693-1.3-.609.247-.752.742-1.406.254.453,1.97-.674,1.781-1.11,1,.472-.68,1.247-.9,1.28-2.224-.977.814-2.774,2.878-3.158-.609.055.391-.241.537-.358.059.579-1.084.176-1.866.651-2.891-.876,1.866-2.006,1.508-3.054,1.338s-2.068-.166-2.8,2.426c-.14-.729.088-.886-.029-1.576-.567.049-.355,1.3-1.166.977-.055-.739-.325-.824-.384-1.521-.449.225-.977.358-1.176.977.8-.287,1.234.462,1.53,1.739-1.28-.387-1.687,1.452-3.048-.326.788.27.41-1.244,1.2-.977-.3-.889-.371-2.445-1.029-2.214.039.58.244,1.42,0,1.576a1.841,1.841,0,0,0-1.446-1.628,4.881,4.881,0,0,0-1.166-.218,5.281,5.281,0,0,0-1,0c-.033,1.478.6,1.042.651,2.279-.273-.41-.713-.345-1.172-.228.283-1,.173-.863-.081-2.354-.651-.26-.107,1.3-.615,1.267-.143-1.478-1.074-.651-1.338-1.784-.674,1.42-1.039.371-1.022-.651-.609,1.162-.934.824-1.3,2.139-.4-.733-.033-.5-.163-1.556-.775.508-.713.326-1.371-.215-.247.475-.352,1.179-.6,1.654-.42-.746-.8-.16-.325-1.143-2.2-.521-2.491,3.989-3.611,3.194.15,2.885-.86,1.866-1.7.977-.189.918.651,1.4.143,1.56-.625-.8-1.074-.632-1.82-.189-.28-1.221.205-1.241.221-1.993-.381.694-1.078.039-1.152.524a1.82,1.82,0,0,1,.7,1.1c-.469.042-.527.736-1.156.524-.036-.394-.068-.781-.1-1.169-1.517,2.315-4.063.612-4.672,2.458-.632.407-.508-.977-.912-1.091a2.97,2.97,0,0,0,.3,1.149c-.44.941-3.08-1.81-1.628.163-.977-.065-1.384-1.563-1.9-.6.485.068.557,1.006.088,1.169.251-.6.065-1.25-.5-1.127-.15.687-.589.912-.954,1.263.482-1.11-1.009-.615-1.276-.27.166.065.41-.029.443.348-.4.2-1.475,1.11-1.872.176.088-.554.8-.133.778-.856-.752-.625-.892.609-1.612.934-.485-2.3-1.986,1.928-2.4-.977.9.677,1.537-.26,2.1-.977s1.042-1.25,1.651.254c-.12-2.2.671-.944,1.547-1.713-.326-1.2.257-.977.3-1.592-.977-.225-.56.485-.772.853-.225-.4-.772-.049-.707-1.11.241-.081.593,0,.6-.453-.834.394-1.3-.046-1.533-1.026-1.016,1-1.866-.029-4.155.765-.348.716.368,1.179-.326,1.589-1.416-.765-2.732-.244-3.946.387s-2.354,1.374-3.477,1.026c-.375,1.214.537,2.214-.508,2.39-.573-.5-.466-1.3-.361-2.321a2.374,2.374,0,0,1-2.644.433,4.9,4.9,0,0,0-2.908-.394c-.736,3.386-4.015.4-5.242,3.145,1.013-.628,2.357-.749,2.973.554-.762,1.485-3.38,2.123-3.2-.537-1.14,1.481-2.406-1.429-2.7.977-.4-2.452-3.025-2.162-4.487-1.231.218-.137-.365-.417-.951-.326-.762.13-1.569.205-2.4.283l-1.257.12c-.433.046-.866.1-1.3.159a10.663,10.663,0,0,0-4.842,1.748c-.065-.612-.052-1.358-.55-1.136.036,1,.078,2.015-.593,2.006-.205-.84.6-1.3-.326-1.153-.189.677-.677,1.2-1.166.482-.492.6.358.928-.166,1.188a1,1,0,0,1-1-.71c-.02-.615.583-.348.4-1.2-.817.908-1.048.583-2.1,1.341.039,1.338.821-.1,1.071,1.481a14.534,14.534,0,0,1-8.182,4.386c-.723.15-1.449.267-2.175.368s-1.485.2-2.22.293c-1.475.182-2.93.365-4.314.677-.348-.977,1.495-.762.651-1.234-2.328,1.254-2.754,2.507-4.7.8-.908.078-.86,1.462-1.361,2.094-.977-.889-3.4,2.084-4.636-.326-.023,1.446-1.26-.023-1.677,1.345-.153-1.433-.567-1.081-.795-.326-.326-2.23-1.446-.4-1.953-1.771-.3,1.358-1.029,1.133-2.015.6-.521.625.417.912-.15,1.2-1.361-.775-3.067,1.455-4.047-1.123-.544,1.888-4.063,1.69-4.985.173a1.661,1.661,0,0,1-1.469,1.765c-.755.13-1.55-.124-1.6-.619a18.9,18.9,0,0,1-2.872,3.126c.072-.593.28-1.029.348-1.628a33.321,33.321,0,0,0-6.906,1.407c-.29.075-.579.143-.873.212s-.606.14-.915.2c-.615.127-1.254.231-1.915.3a17.966,17.966,0,0,1-4.37-.052,1.136,1.136,0,0,1-.381,1.241c-1.12-1.332-2.582-.514-3.842.055s-2.37.934-2.745-1.4c-1.4.234.088,1.374-.8,2.116-3.214.13-5.268,1.814-7.277.459a6.35,6.35,0,0,1-2.035,1.218,12.7,12.7,0,0,0-2.416,1.2c-.244-.866.733-.583.632-1.3-2.654.733-3.858,2.009-6.3.449.449,1.787-1.231,1.586-1.153,3.018,1.543-.176,3.468-.492,4.6,1.472-1.062.977-1.986-1.078-2.279.059,3.188,2.045,4.2-1.185,7.489-1.478a2.406,2.406,0,0,1-.078,1.208c1.2.488,2.24-.651,3.142-1.348,2.794.8,5.568-.169,8.335-1.061.345-.111.7-.225,1.035-.326s.677-.189,1.016-.273a14.816,14.816,0,0,1,2.025-.374,7.489,7.489,0,0,1,3.985.567,5.4,5.4,0,0,1,2.93-1.954c.6-.2,1.244-.368,1.875-.518s1.26-.28,1.862-.446c-.1.944-.84,1.156-1.576,1.374s-1.495.462-1.573,1.426c.326-.039.908-.2,1.563-.355a16.723,16.723,0,0,1,2.087-.368c1.38-.13,2.543.107,2.331,1.5-.117-1.029-.417-2.279.251-2.4.68-.371.619.7,1.14.651.225-2.237,4.728-1.586,6.2-1.576-.208-.065-.326-.293-.326-.749.554.684,2.045-1.68,3.093-.348-.6-.042-.957.2-.947.892,1.2,1.286.723-1.648,1.953-1.4.169.889-.7.514-.651,1.254,2.123-.765,6.1-.326,7.951-1.283.1-.651-.111-.7-.326-.752s-.433-.1-.326-.752c.4.169,1.273-.586,1.3.264,0,.56-.355.693-.4,1.211a58.5,58.5,0,0,0,5.861-.7c1.006-.15,2.038-.287,3.119-.384.541-.049,1.091-.088,1.657-.111s1.12-.016,1.7,0c.759,1.752,3.582-.693,4.952-.44,1.8.326,4.669-.856,7.065-1.387a38.343,38.343,0,0,1,5.8-.521,14.949,14.949,0,0,0,2.745-.4,7.387,7.387,0,0,0,2.462-1.13c.062.609.049,1.354.547,1.136,0-.589-.173-1.433.14-1.579a3.326,3.326,0,0,1,2.51,2.155,8.411,8.411,0,0,1,.83-2.019c-.423-.078-1.117,1.188-1.42.107.44-.2.358-1.149,1.136-.873,1.117,2.416.475.827,1.989,1.42-.407,0-.593.342-.651.834,1.009-1.3,2.81.68,3.741-.677-1.237-.547-1.608-.124-2.647-.977,1.221-.365,1.524-.127,2.533-.977.264.71-.615,1.358.091,1.563,1-1.719,3.035,2.432,4.441.449-.449.371-1.3-.514-.739-.726.573-.1.752.56,1.2.693.736-2.735,2.562-.427,3.611-1.833a2.654,2.654,0,0,1,.785,1.5c.3-1.328,2.37-1.882,2.839-1.781.182,1.218-1.016.371-1.058,1.26,2.253-.433,2.93-1.833,3.907-2.654.511-.156.326,1.1.746,1.12-.466-1.674,1.218-2.168,2.341-2.53,0,1.38.107,2.012-.088,2.357-.264-.433-1.045-.065-1.328.495.69.716-.586,1.459-.537,2.39-.482-.182-.514-.573-.3-1.153-1.628,1.032-3.754.166-5.372,1.188,0-.459.352-.912-.065-1.166.43,1.354-.752.3-.612,1.224.687.716-.417,1.7-.8,2.019.225-.586.2-.977-.3-1.153-.387,2.435-1.755-.133-2.243,1.345-.57-.531.381-1.273-.531-1.14.029.521.059,1.039.091,1.56-.824.254-3.23.583-3.907.684-.6-.147.755,1.888-.371,1.6.055-1.781-2.514.934-2.9-1.742-2.116,1.439-3.116-.342-4.884,1.55-.137-.651-1.468-1.195-1.68-.26.368-.326,1.074.693.518.742a9.422,9.422,0,0,0-2.849-.651c-.5-.042-1-.059-1.517-.059s-1.045.026-1.573.052a33.6,33.6,0,0,1-6.151.059c.277.055.407.4.534.736l-.977.078a2.629,2.629,0,0,1,.163-1.185c-.775,1.039-2.188-1.3-2.712-.57.726.4-.365.485-.495.049-.091,1.087,0,.889-.632,1.628.375.036.9-.221,1.016.3-2,1.787-5.21.27-7.437.264-.716.785.935,1.247.15,1.954-.873-1.361-1.762,2.042-2.214.192.13-1.006,2.488-.863,1.3-2.465-.55.557-.977,1.481-1.468,2.084a1.108,1.108,0,0,1-1.849.176c.521,3.816-3.009,2.4-3.943,4.317-.651-.713-2.422-1.7-3.324-.456a4.853,4.853,0,0,1,4.3,3.106c-.286.091-.716,0-.713.466,1.459.5.746-1.814,2.149-1.39-.091-1.481-1.511-.436-1.664-1.8a23.248,23.248,0,0,1,2.826-.462,4.862,4.862,0,0,1,2.445.345c-.817-.273-.238,1.3-.892,1.254-.251-.326-1.5-.977-1.53-.241-.189,2.081-2.885,3.783-4.617,2.028-.553,2.279-2.2.192-2.5.247.71.283-.081,1.452-.358,1.605-.137-1.791-2.657-1.039-1.211.514-1.019.12-1.332-.833-1.4-1.423a12.743,12.743,0,0,0-2.025,2.976c-.062-.977.368-1.27-.4-1.527-.563.6-.085.8-.394,1.228-.208-.065-.326-.3-.326-.752-.651,2.891-3.187-.977-3.546.4.326,0,.612.052.583.723-1.166-.046-2.409.062-2.93-1.237-.205,1.784-.931-.544-1.82-.182-.091,2.624-4.408,3.448-4.3,1.338-.762,1.081-1.153,2.361-2.484,1.11-.085,2.084,1.794.257,2.237,1.3-.622,1.052-2.816.257-3.5,1.24a4.973,4.973,0,0,1-1.41-2.973c-.651.348-.593,1.527-1.042,2.11.326.02.72-.16.817.286-.739,1.537-2.839,1.218-3.048-1.149.684.28.651-1.869.326-1.628-.159,1.706-1.924,1.608-2.26,3.1,1.24.4.651-1.25,1.725-1.045.488,1.166-.052,1.628.821,2.247a5.15,5.15,0,0,0-3.331.889c-.1-.765.651-.6.326-1.628-1.026-.264-.326,1.387-.834,1.7-.537-.381-1.257-.387-1.511-1.351a4.2,4.2,0,0,1-2.891,1.745c-.518.081-1.071.107-1.683.156a14.193,14.193,0,0,0-2.051.326c-.114,1.765,1.579-.264,1.758.889-2.6,2.6-5.73,2.7-8.358,5.011-.033-.557.326-.726.326-1.25-1.3,2.015-2.758.254-2.872,2.094-2.09-.547-5.21-.049-8.29.4-.772.114-1.537.221-2.279.326-.374.046-.746.085-1.107.117s-.726.075-1.078.1a9.413,9.413,0,0,1-3.669-.309c-2.048.518-4.184,3.481-6.248,1.035-.693,1.732-3.708.824-4.311,2.3.436-.016.192.615-.085.833a7.523,7.523,0,0,0-5.333,1.648,16.7,16.7,0,0,1-2.461,1.4,8.925,8.925,0,0,1-3.3.8c.684,1.882,3.3-1.582,3.582,1.374,2.715-.44,3.822.625,6.242-.042-.3.143-.772.133-.7.586.231.036.527-.127.628.238-1.276.1-1.993.671-2.087,1.768,1.81-.811,4.21-1.807,6.251-.837-.085,1.8-3.966.817-4.021,1.862,1.8.264,3.481.807,5.447.589-.557,1.42.817-.065.886,1.38-.925,1.276-1.778.534-2.51,1.061.286-.2,1.166.86.54,1.071-.951-.306-.892.143-1.813.475-.169-.492.768-1.423-.12-1.582-.778,1.231-2.234,3.4-3.445,1.719.133.733.511.755.651,1.442-.651.124-1.26.273-1.446.794l-.3-1.136a6.619,6.619,0,0,0-2.387,3.51c-.954-.1-4.259.094-4.262,1.7,1.491.16,2.839-2.279,4.422-.111a41.628,41.628,0,0,1,5.382-1.3,15.739,15.739,0,0,0,4.337-1.338c1.3-.772,3.536-.267,4.685-.788s2.826-1.954,3.985-.127c-.948-.619-1.579,1.039-2.628.208-.436.684.531.856,0,1.2q-1.224.046-2.435.205c-.814.13-1.628.3-2.429.5a40.078,40.078,0,0,0-4.8,1.534c-.794.306-1.589.651-2.377.977l-1.185.527c-.394.182-.791.391-1.185.586-1.579.807-3.155,1.661-4.728,2.523s-3.152,1.739-4.737,2.585c-1.586.9-3.178,1.788-4.8,2.6s-3.256,1.569-4.926,2.221c-.84.326-1.683.651-2.536.977s-1.719.58-2.6.82c1.322,3.275-2.95,3.438-4.536,3.038.166,2.279-2.279.674-1.892,2.448a1.133,1.133,0,0,0,.772.088c.27-.042.55-.137.827-.2a1.078,1.078,0,0,1,1.439.576c.114.7,1.133,2.019.615,2.279a4.525,4.525,0,0,1-2.012.736,10.535,10.535,0,0,1-1.9.049c-1.179-.039-2.123-.039-2.507,1.075.765-.361,1.745,0,2.813.326a7.288,7.288,0,0,0,1.657.326,3.457,3.457,0,0,0,.856-.052,3.134,3.134,0,0,0,.85-.267c-.326.182.846,3.106.726,1.82-1.247-2.4.944-.863.957-2.481.86-.241,1.469.674,2.048,1.719-.107,1.859-2.2,2.279-2.553,3.943.651,1.5,1.667,1.778,2.221.8,2.344.726,4.682-.348,7-1.693.579-.326,1.156-.69,1.732-1.035s1.153-.635,1.722-.921a10.277,10.277,0,0,1,3.324-1.117c.472-.156.632.905,1.188.417.977-.554,2.175-1.628,3.49-2.309a4.444,4.444,0,0,1,2.054-.56,3.484,3.484,0,0,1,2.146.749c1.3-1.074,2.66-.977,4.275-1.3-.192-1.022.2-1.534,1.12-1.566-.192.869.153.469.414,1.5-.58.326-1.25.593-1.452,1.26.446.433,1.257-.358,1.364,1.214-1.589.462-1.651,2.279-2.986,2.953.495.023.733.941,1.387.394.381-2.455,2.93-3,2.637-6.1a2.648,2.648,0,0,1,1.185,2.494c2.328,1.488,4.581-1.1,6.756-.2.352,1.4-.531,1.608-.606,2.6,1.742-.241,0,1.068.244,1.954.925-1.592,3.178-1.908,4.75-2.888a33.06,33.06,0,0,0,9.488-.153c1.566-.254,3.132-.508,4.692-.833s3.116-.7,4.666-1.088l2.322-.6c.775-.189,1.543-.361,2.312-.54,1.537-.348,3.067-.684,4.584-.977a43.979,43.979,0,0,1,4.5-.651,33.078,33.078,0,0,1,4.392-.065,32.953,32.953,0,0,1,4.786-1.882c1.556-.427,2.989-.752,4.1-1.14,1.152-1.928,3.861-3.217,5.229-2.279.651-1.143,4.155-1.5,5.284-1.8-1.462.156.13.524.352,1.143-1.954.326-3.4-.12-3.582,1.98a1.87,1.87,0,0,1-.785-.7c.173-.107.459-.062.427-.44-1.6-.371.6,2.478-.651,2.836-.391-2.035-1.592.6-1.661-2.149.72-.293,1.061.791,1.133-.541a12.7,12.7,0,0,0-5.083,1.455c.977,1.276,2.4-.768,3.523-.466.3.482.387,1.4.684,1.885a2.65,2.65,0,0,0,1.778.2c.527-.036.977.072,1.423.977-1.53.83-2.2.609-2.748.2s-.977-.977-2.048-.772a.205.205,0,0,1,.046.391c-1.455.518-2.211-.023-3.458.85-.6-.5-2.5-2.761-2.1.277.869-.459,1.983-.729,2.471.856,2.084.475,2.9-2.686,4.34-1.361a2.523,2.523,0,0,0-1.879,2.221c1.032.117.576-1.69,1.732-1.413,0,.56-.309.707-.326,1.224,1.006-.863,2.93-1.8,3.529-.059-1.862.928-3.582,1.351-4.936,2.217-.042-.547-.221-1.481-.326-.749.029.264.059.521.088.775,2.263,1.413,2.829-1.954,4.529.589-1.068-.111-1.859,1.3-2.777.365a2.9,2.9,0,0,1-3.7,2.455c1.752,1.182,3.106.518,4.389-.54s2.484-2.523,3.907-2.888c.326,1.374-1.478,1.566-.41,2.8,2.93-2.6,7.609.449,10.481,0-2.6,1.667-4.946,2.556-7.251,2-.729-.033.7,1.055-.111,1.195a5.033,5.033,0,0,0-3.907-.039,34.966,34.966,0,0,0-4.474,1.875c.026-.57.2-.694-.133-1.166-1.061,3.012-3.923,1.149-5.3,2.279.186.055.453-.052.5.326a17.468,17.468,0,0,0-5.7.326,11.468,11.468,0,0,0-5.262,2.556c-.078-.514-.153-1.029-.228-1.543a28.49,28.49,0,0,1-5.861,2.956,14.263,14.263,0,0,1-3.324.746,8.83,8.83,0,0,1-3.292-.218c.192.834.036,1.26-.462,1.3a34.115,34.115,0,0,0-3.741.544q-.944.2-1.885.436c-.625.163-1.247.361-1.872.56-2.5.794-4.991,1.752-7.456,2.686-2.452.977-4.858,2.009-7.231,2.81q-.889.3-1.771.563l-.879.254c-.29.091-.58.176-.869.257a26.449,26.449,0,0,1-3.438.752c.352-.072.733-.283.86.547a12.76,12.76,0,0,0-6.134.368c-1.83.6-3.526,1.468-5.33,2.152-.651-.4-1.179-1.354-1.81-1.849.541,1.608.6.742,1.3,2.439a4.594,4.594,0,0,0-3.256-.29,4.862,4.862,0,0,0-1.459.651,7.309,7.309,0,0,0-1.244,1.013c-.137-.368-.267-.733-.4-1.107-.8,1.954-2.331,3.109-3.907,2.4.267-.042.449.485.632,1.009-.977.733-1.8,1.263-2.37.1a.977.977,0,0,1-.9.394,1.863,1.863,0,0,1-1.2-.8c-.651.667.742,1.755.472,2.351-1.048.215-2.133.482-3.24.8s-2.217.729-3.357,1.153c-.567.215-1.14.44-1.713.671s-1.136.5-1.706.768-1.143.537-1.716.814-1.146.557-1.709.869a89.122,89.122,0,0,0-12.591,8.211c.821-.472,1.68-.882,2.52-1.322l2.53-1.3c.856-.417,1.709-.834,2.559-1.263l1.273-.651.632-.326.651-.326c.856-.43,1.7-.872,2.546-1.335l2.527-1.407c.84-.482,1.674-.977,2.5-1.524s1.667-1.055,2.484-1.628c.417,1.035,1.123-1.048,1.478.6a6.82,6.82,0,0,1,1.384-.977,11.645,11.645,0,0,1,1.605-.694c.56-.2,1.143-.371,1.732-.531s1.188-.326,1.8-.433c2.435-.527,4.8-1.107,6.382-2.758.189.42.326,1.058.606,1.022-.677-1.338-.072-1.6.166-2.172.508.736.977.521,1.553.352a1.814,1.814,0,0,1,2.029.42c-.264-1.726,2.875-.957,3.484-.8.052-.567-.251-1.452.15-1.706.563,1.325.977-.508,1.833.6.1-1.875,1.524-1.28,2.409-2.045.863,2.2,1.8.651,2.9.326.326-.687-.537-.83-.114-1.192a33.818,33.818,0,0,0,4.184-.794c.69-.166,1.371-.371,2.064-.534l2.09-.508c1.4-.326,2.823-.651,4.295-.921a24.131,24.131,0,0,1,4.6-.414c-.153.124-.433.107-.355.475.739.137.182-1.14.925-1.013.212,1.045.534.684.326,1.524.869-1.013,2.422-.459,3.581-.436,0-1.263-.54-.853-.762-1.426.56.036.326-.807,1.013-.651.16.762-.495.628-.114,1.628,1.12.27.466-1.436,1.586-1.172.244,1.849,1.188.16,2.058,1.123.153-1.514.241-1.55-.02-2.4.671.228,1.159.4,1.25-.651.075.384.153.768.225,1.149.365-.427,1.846-2.26,2.429-.5-1.052-.27-1.6,1.954-3.09.632.7,3.093,4.233-1.495,5.5,1.273-1.195.368-2.331.651-3.438.879-.553.114-1.1.215-1.648.326l-.82.13-.811.143c-2.165.378-4.373.671-6.886,1.146.062.674.541.9.257,1.146-.43-.13-1.166.759-1.387-.078.039-1,1.114.716.7-.977a7.453,7.453,0,0,0-2.035.511,6.315,6.315,0,0,0-1.543.8,1.231,1.231,0,0,1,1.094,1.726,13.26,13.26,0,0,0-6.255.651c-2.022.615-3.907,1.488-5.607,1.882-1.228.3-2.465.55-3.722.785l-1.9.326-1.9.384c-2.549.508-5.177.977-7.889,1.592l-.257-.739a2.973,2.973,0,0,1-2.533,1.55c-.905.16-1.775.326-2.175,1.586a2.17,2.17,0,0,1-1.931-1.341c-.277.358-1.377.042-1.087.856.846-.5,1.563-.1,2.139,1.254a13.476,13.476,0,0,1-2.686,1,10.093,10.093,0,0,1-3.028.54,4.034,4.034,0,0,1-1.283,1.3,14.2,14.2,0,0,1-1.628.922,5.562,5.562,0,0,0-2.719,2.12c.8.257,1.573-.5,2.367-.921s1.605-.469,2.452,1.237c-1.586-.27-1.426,2.6-3.282,1.98.605,1.2.176,1.387-.8,1.267.225,1.628-.7,2.09-1.775,2.458s-2.279.7-2.566,2a5.21,5.21,0,0,0-2.556-.843c.472,1.172.915.117.912,1.283.427.029.86-1,1.276-.244-1.827,1.358-3.279,2.719-4.7,3.95-.719.606-1.39,1.247-2.1,1.84s-1.439,1.175-2.217,1.745c1.915,3.122-1.475,1.8-1.569,2.891.856.518.55.817-.045,1.042-.3.114-.671.208-1,.306a2.746,2.746,0,0,0-.768.326,10.438,10.438,0,0,0-2.859,4.386c.892.5,1.179.046,1.468-.482s.557-1.159,1.351-1.029c.446.794.762,1.521.589,1.954-.495-.459-1.11.713-.326,1.644.605-1.039,1.4-.843,2.514-.788a15.793,15.793,0,0,1-.5,2.654,1.231,1.231,0,0,1-.681.772,1.657,1.657,0,0,1-1.332-.231,1.973,1.973,0,0,1-.619,1.954,7.4,7.4,0,0,0-1.547,1.628c1.5,1.524-.257,2.09-1.153,2.878.342,1.983,1.553,2.142.726,3.409.827.326.413-.85,1.094-.375a14.225,14.225,0,0,1,1.016,2.4c.186.72.14,1.3-.414,1.628-.306-.462-.179-.7-.446-1.153a3.416,3.416,0,0,0-.433,2.9c-1.231-.251-.413.518-.7,1.1-.446.912-2.442.762-1.341,2.742,1.048.257.739-1.465,2.3.062.192,1.25-1.527-.072-.651,1.091,1.065.521,1.286-1.849,2.644-.26l-.755.677c.742.925,1.351.27,1.742,1.589.042-.326.921-.218.371-.86-.228.3-.6.1-1.114-.573a7.425,7.425,0,0,1,1.784-1,4.028,4.028,0,0,1-.726,3.223,6.228,6.228,0,0,1-2.042,1.771,6.244,6.244,0,0,1,.925,1.817c.557-.488,1.156-.951-.042-1.039.352-.531,1.1.143,1.745.557.326,2.181-.977.234-1.42,1.3C676.3,453.331,676.9,453.689,677.213,454.77ZM733.671,282.5c-.036-1.394.892-.651,1.394-.277C735.159,283.143,733.883,282.693,733.671,282.5Zm42.187-9c.326-.2,1.387-.866,2.214-1.429a2.439,2.439,0,0,0-.14,1.195c-.755,0-1.3.247-1.475.951-.293-.065-.257-.759-.6-.716Zm90.515-19.627c.039.671.228.977.495,1.127.036.856-.459.889-.977.879.3-.834-.208-.749.1-1.582-.4-.133-1.214.651-1.094-.677.319.508.938.3,1.488.254ZM984.258,282.42c-.417-.921.5.326.612-.326.176.345.352.7.531,1.045-.248.326-.528-.016-.794,0-.049-.384-.117-.749-.339-.719Zm95.725,117.732c1.723-.283,2.2-3.279,3.582-1.954-.368,1-2.247,3.526-3.562,1.954Zm-263.08,40.3a4.229,4.229,0,0,1,3.412-.306c-1.048,1.016-2.2.817-3.386.306ZM677,451.813c-.5-.6,0-.674-.765-1.416.267-.488.886.163,1.107-.453.27.368,0,.449-.117.622.274.368.472.511.622.5C678.294,451.771,677.334,452,677,451.813Zm-2.647-15.14c-.342-.739.042-1.1.534-1.406.593.951.124,1.325.078,1.921C674.709,436.807,674.511,436.657,674.348,436.673Zm1.156-15.427c-.3-.84.5-2.722,1.462-1.013C676.093,420.371,676.331,420.726,675.5,421.247Zm36.141,23.768c-.788-.287.4-2.074.944-.495-.264.026-.934,0-.941.5Zm4.314.039c-.44-.681.375-1.052-.2-1.208-.107-.54.977-1.511,1.38-.205-.82.033-.869.856-1.179,1.407Zm2.735-136c-.26-1.159,1.553-1.361,2.061-.931-.075,1.475-1.631.915-2.058.938Zm25.279,66.672c-.413-1.6.882-.557,1.234-.69A.715.715,0,0,1,743.973,375.729Zm25.813-5.984c.414,1.485-1.146.462-1.188,1.364.228.495.576-.28,1.172.215a4.409,4.409,0,0,1,4.288-2.829c1.794-.124,3.783.251,5.418-.14a16.573,16.573,0,0,0,3.669-1.56,11.984,11.984,0,0,1,1.628-.716,3.715,3.715,0,0,1,1.55-.182c.189.374.563.326.576,1.114.677-1.156,1.729.046,2.725-.326.433,1.234-.166,1.009.977.674-.352.791.072.977.192,1.953-.583.326-.518-.752-.794-1.087a5.6,5.6,0,0,0-.713,2.048c-.472-.208-.651-1.12-1.061-1.449-.449.169-.326,1.107-.785,1.273.583,1.231,2.133-.114,2.9,1.628-1.091.361-1.468-.85-2.559-.485.6.563,1.442.593,2.146.928,1.8-1.608,1.195-5.284,3.321-5.893-.215-.925-.938-.759-1.472-1.006,1.514-2.1,3.4,0,4.418-2.061.326.358.882.283,1.016,1.071.619-.326,1.9-2.035,2.247-.619.43-.088.052-1.3.589-1.241,1.726,2.383,4.532-1.524,6.242.173,1-1.856,3.764-1.732,4.75-1.214A3.089,3.089,0,0,1,814.3,359.3a6.271,6.271,0,0,1,3.842,1.459c1.758-.326,1.511-1.3,3.142-1.436-.5-.068-1.517-1.325-1.661-.651-.059-1.446,1.052-1.3,2.683-1.4-.036,0-.215.472-.436.427,2.364.475,6.8-4.269,9.729.41a2.518,2.518,0,0,0-2.25.957c.5-.671,3.2.977,3.376-1.436.713-.244.977.414,1.221,1.078-.026.918-.039,1.843-.827,1.628-.036.938,1.032-.3.755,1.11-1.482.176-2.416-.742-3.95-.475.563.768,1.553,1.029,3.057.938-3.223,2.335-5.356,2.8-9.084,2.279.134,1.784,1.465,1.166,1.771,2.6-2.478-.632-3.969,1.9-5.662,1.254,0-.264-.036-.524-.052-.781-.163-.827.277-.772.651-.834-.482-1.133-1.2.326-.811,1.628-.752.078-1.094.752-2.032.56-.023-.853.521-.886,1.091-.869-.791-1.605-2.279.567-3.347,1.446-.768.677-.228-1.3-.762-1.1-.843.853-5.714,1.521-6.864.228-.553.554-.651.866-.326,1.986-.8.309-1.3-.023-1.455-1.042-.729,2.022-2.237.583-3.432-.052-.8.124.586,1.237-.134,1.188-.576.078-.3-.26-.29-.752-.85.055-.547,1.745-1.716,1.348a14.317,14.317,0,0,0-.068-3.526c-.495.1.042,1.661-.029,2.361-.941.472-.977-1-1.687-1.006.472,1.661-.791,4.477-1.68,1.745.755-.394,1,.326,1.426.651-.107-.977-.527-1.162-.169-1.954-1,1.185-1.159.267-2.3-.16,0,.915-.459,2.133.326,3.5-.768-.524-1.664-.729-2.4-1.3-.068-1,.684-.863,1.283-.931.387-.14-.469-1.41-.628-1.895-.492.273.326.573-.12,1.195-.541-.062-.905-.518-1.628-.208-.449-.729-.026-.5-.146-1.556-1.325,1.3-.407,3.907-1.924,3.761.143.469.365.768.752.7-1.091,1.784-2.65,1.628-4.158,1.351a8.862,8.862,0,0,0-2.156-.234,2,2,0,0,0-1.651,1.026c-.8-.759-.423-1.185-1.159-.244-.651-1.954.228-2.715.957-3.673a4.1,4.1,0,0,1-.052,1.586c.557.075,1.3.482,2.077.6a1.972,1.972,0,0,0,2.194-1.13,5.2,5.2,0,0,1-2.686-.4,6.027,6.027,0,0,0-2.432-.537c.114-1.254,0-1.042-.439-1.908-.729.482.85,2.155.078,2.745-.459-1.048-1.8.977-3.012-.387-.3.176.062.684.326.742-.254,1.029-.947-1.045-1.664-.563a1.927,1.927,0,0,0,.765.687c0,1.179-.521-.326-.9.12.052.371.326.26.5.326.042,1.032-1.1.5-1.2,1.338-.443-.729-1.39-1.771-1.628-.182-3.132-1.3-6.369-.931-9.4-.531l-.166-1.156c-1.954,1.8-4,1.3-6.108,1.859a2.794,2.794,0,0,1,2.8-2.028,14.6,14.6,0,0,0,3.7-.286C767.426,371.037,768.3,369.318,769.786,369.744Zm-16.794,5.3a2.608,2.608,0,0,1,2.813-1.953c1.234-.029,2.6.166,3.64-.433a3.468,3.468,0,0,1-2.979,1.986c-.651.1-1.3.133-1.888.189a9.3,9.3,0,0,0-1.586.212Zm21.2,61.212c.387-1.745,1.3-.853,2.344-1.553C776.165,435.723,775.116,437.044,774.188,436.257Zm14.9-70.3c-.169-1.019.189-1.3.794-1.273.039.391.078.778.114,1.169Zm9.263,79.93c.326-1.133,1.429-.114,2-.241-.274.98-1.537.414-1.993.247ZM792.1,370.737c.651-.068.739,2.136.482,2.7C791.676,373.176,792.249,371.887,792.1,370.737Zm.71.326c0-.456.384-.378.651-.469-.081,1.127.413.977.407,1.918-.625.049-.7-1.032-1.075-1.465Zm6.512,67.655c.082-.892,1.24-1.446,1.247.247-.6.335-.778-.326-1.254-.264Zm6.75,3.582c.488.143,1.12.651,1.449-.15.534.387-1.4,2.572-1.455.146Zm-6.658-84.915c0-1.345,1.058-.71,1.579-.554-.1,1.5-.908.374-1.586.55Zm7.775,88.334c-.156-1.6,1.6-.238,1.758-1.361.729.033-.234,1.765.326,1.537-.488.29-1.374-.088-2.09-.179Zm-9-162.016c0-.8.619-.834.628-1.628.4.133.326,1.2,1.055.687C799.927,283.878,798.891,283.553,798.185,283.7Zm2.543.544c1.062-.238,1.915-1.084,3.165-.674C803.629,285.2,801.571,284.289,800.727,284.246Zm0-9.8c.7.778,1.381-.485,1.765.234.244,1.413-2.064,1.228-1.781-.244Zm.908,8.547c.065-.941.827-1.7,1.416-.915-.345.589-.967,1.537-1.433.915Zm3.963.036c.456-.863,1.074-1.514,1.911-.951.1.84-.86.257-1.2.5.02.85.886.1,1.257.28-.6,1.244-1.107.388-1.983.173ZM813.491,280c.1-1.954,1.953-.065,2.361-.977-.466,1.566-1.381.293-2.377.977Zm1.071,1.481c.215-.807,1.833-.6,2.169-.176.156.928-1.114-.127-.651,1.227A4.883,4.883,0,0,0,814.562,281.485Zm5.656,75.183c1.762-1.8,2.683-1.911,4.689-2.738-.046.762-1.052.121-.6,1.628-1.7-.1-2.644.882-4.109,1.11Zm-4.073-76.879c.456-.57,2.426-2.5,3.139-.254-.925-.921-2.155.176-3.155.254Zm1.41,3.021c.036-.977.71-1.859,1.13-1.267-.192.707-.378,1.39-1.146,1.267Zm1.1-1.657c.788-.684,2.364-.384,3.582-.674-.179,1.019-.769.961-1.3.948s-1.029,0-.951,1.192c-.492.205-.651-.218-.977-.326.329-.391.7-1.494-.368-1.14Zm14.977,159.473c-.326-1.3.651-.651,1.068-.866.215,1.338-.723,1.459-1.091.866Zm-8.986-159.541c1.775-.869,4.233-.495,7.013-1.713-.28-1.654-1.12.446-1.7-.651,0-1.3,1.338-.72,2.071-.941.544,1.387-.221,1.954.205,3.507-2.9.01-4.851,1.25-7.612-.212Zm9.449,79.959c-.075-1.888,1.3-1.628,2.439-1.748C836.484,361.288,834.983,361.07,834.1,361.044ZM836.9,357.7c-.091-1.954,3.614-.326.9-.459a.977.977,0,0,1-.9.466Zm-1.83-79.36c-.27-1.472,1.065-.58,1.573-.9C836.377,278.568,836.051,277.907,835.074,278.343Zm1.918,1.029a1.654,1.654,0,0,1,1.065-1.644,3.425,3.425,0,0,0-.14,1.576Zm5.288-4.7c.042-.361.765-1.374.882-.459.218-.029.147-.492.179-.8.677.286.29.567.326,1.547-.7.316-.726-.641-1.4-.306Zm2.279.218c.117-.358.231-.716-.046-.778-.088-.847.791-.241,1.107-.479-.179.68-.355,1.374-1.071,1.241Zm5.21-3.923c.12-1.361.915.029,1.533-.9.26,1.442-1.045.557-1.543.882Zm-.111-13.31a2.754,2.754,0,0,1,1.227.794,3.451,3.451,0,0,1,.521,2.208c-.511-1.143-1.521-1.325-1.758-3.018Zm1.123,11.272c.3-.651,1.436-1.384.134-1.576.225-1.7,1.387-.287,2.172-.563a3.139,3.139,0,0,1-.934,1.28c-.348.247-.749.436-1.381.837Zm11.516,171.5c.371-.827-.225-.746.143-1.576a4.834,4.834,0,0,0,3.425.518c-.446,1.4-2.361.729-3.578,1.042ZM851.816,260.227c-.355-1.654,1.674-1.817,1.521-.124-.807-.277-1.006.951-1.53.107Zm1,9.325c-.059-1.192,1.371-1.032,1.722-.534-.511.742-.853.023-1.732.534Zm13.561,170.162c-.326-1.42,1.234-.814,1.433-.5-.176.746-1.009,1.12-1.442.488ZM856.056,265.352c-.114-1.149.684-1.433,1.029-.869A.971.971,0,0,1,856.056,265.352Zm4.089-3.477c1.449.13,2.468-1.608,3.552-1.094.238,1.182-.283,1.179-.049,2.364-.371-.68-1.449.2-1.377-1.455C862.066,263.115,860.923,261.9,860.145,261.875Zm.456.355c.407.622.326,2.279-.514,2,.5-2.387-.944.29-1.2-1.859.905.251.752.016,1.722-.143Zm1.833-7.609c.485-1.188.791-.407,1.468-.133-.482,1.2-.788.413-1.462.133Zm28.652,187.985c-.127-.622.182-.69.153-1.192.811-.166,1.136.583,2.064.186a1.4,1.4,0,0,1-2.227,1.006ZM877.87,260.976c.365-1.4,1.3.059,1.485-1.729,1.042.156,1.5.977,2.191-.251l.176,1.954C880.583,260.559,879.241,261.666,877.87,260.976Zm17.52,180.8c.977.534,1.237-.2,2.09.176C897.507,443.237,895.374,443.214,895.391,441.772ZM881.817,259.765c.475-2.022,2.084-2.035,2.93-.729.579-1.914,1.166-3.354,2.784-1.908-.394,1.169-1.9-.094-1.885,2.982a6.319,6.319,0,0,0-2.23-.072,2.12,2.12,0,0,1-1.6-.287Zm.859,5.014a.746.746,0,0,1,1.371-.544c-.023,1.071-.41,1.586-1.065,1.69-.029-.567-.065-1.117-.306-1.159Zm1.876.573c0-1.433.8-.016,1.55-.58.042.7.326.794.348,1.534a4.2,4.2,0,0,1-1.885-.967ZM904.82,449.792a1.4,1.4,0,0,1,1.8-.6c-.107,1.53-.9.156-1.8.586ZM885.47,254.217c-.059-.866.811-.267,1.13-.531-.326.9.13.827.651.707C887.17,255.988,886.043,254.308,885.47,254.217Zm1.553,5.714-.117-1.169.977-.117C888.078,259.81,887.329,259.527,887.023,259.931ZM907.278,450.28c.172-.707.736-.957,1.507-.977C908.74,450.257,907.933,451.045,907.278,450.28Zm.169-5.926c-.052-.739,1.016.192,1.358.234-.124,1.586-1.013.381-1.358-.234Zm1.934-1.8c-.078-1,.794-.876,1.488-.977C911.084,442.821,909.876,443.13,909.381,442.55Zm2.764.837A.2.2,0,0,1,912.1,443c-.039-1.032-1.065-.176-.977-1.449.651.075.492-.788,1.28-.563.153.326.325.651.615.707C913.116,442.7,912.058,442.384,912.146,443.387ZM892.1,252.589c.081.449.378.277.606.309.26.7-.417,1.377.176,1.553-.117.632-.9-1.146-1.156-1.81.651-.225.325-1.133,1.084-.55,0,.531-.43.387-.71.495Zm23.176,199.062c-.212-1.267,1.273-1.934,1.345-.173a.8.8,0,0,1-1.345.169Zm-.693-8.182c-.267-1.2.593-1.12.563-2.045a2.038,2.038,0,0,1,.72,1.485,1.348,1.348,0,0,1-1.283.557ZM895.635,255.246a3.39,3.39,0,0,0,.052-1.192c.231.107.557.622.28.749.169.381.475.342.511,1.117-.192-.218-.391-.427-.374.046C895.9,255.9,895.9,255.226,895.635,255.246Zm1.12-1.742a5.221,5.221,0,0,1,.14,2.748c-.361-.759-.886-2.585-.127-2.748ZM922.067,446.79c0-.456-.15-.687-.368-.739.5-.889.606.755,1.628-.221,0,.651.306.7.651.694-.427,1.045-1.156-1.006-1.9.267Zm-20.49-180.578c1.182-2.084,4.695-1.895,5.861-2.93-.1,1.254-1.068,1.843-2.279,2.172s-2.621.436-3.568.759Zm1.7-3.038-.156-1.162c.453-.12.886-.2,1.162.212.143.993-.508.866-.993.951Zm1.14-1.367c-.052-.384-.1-.768-.16-1.159.378.107.817.016.9,1.042Zm.065-6.339c-.026-.443.153-.241.179-.026.371-1.882.283,1.006.827.651.02.534-.4.4-.651.508-.062-.55-.12-1.1-.342-1.133Zm4.6,7.534c-.16-1.341.9-.876,1.267-1.42.049,1.817-.781.57-1.254,1.42Zm40.849,193.465c.293-.651,1.3-1.377,1.953-.775.055.886-1.39.443-1.94.775Zm-15.954-192.1c1.954,2.25,1.478,4.187-.606,4.19.274.527.651.407,1.019.54.361,1.182-.707.488-.579,1.364-.257-.062-.361-.925-.518-1.478a18.147,18.147,0,0,1-3.4,1.661c-.54-1.4-.876.205-1.527-1.237-.394.459.7.729.326,1.53-1.276-.016-1.364-1.091-2.6-.2.189,1.091,1.055-.723,1.11.947-.934-.423-1.5.059-2.035.86a5.128,5.128,0,0,1-.2-1.953c-.482,0-.472.651-.228,1.654-.814.612-1.218-.462-1.7-1.221.208-1.524,1.214-1.739,2.279-1.846a7.165,7.165,0,0,0,1.547-.238,1.5,1.5,0,0,0,1.013-1.019,9.011,9.011,0,0,0,3.119.055,29.317,29.317,0,0,1,3.041-.391c-.189-.694-.619-.085-.847-.589-.247-1.192.846-.993,1.091.12.3-.9.244-1.227-.293-2.751Zm28.346,199.182c.042-.9,1.146-1.576,1.644-1.146-.137.729-.765,1.045-1.644,1.149Zm1.452,2.488c-.541-1.426,1.136-1.784,1.208-.257Zm-5.805-28.327c.387-.8,2.93-1.55,2.793.6-1.117-.83-1.761-.537-2.793-.6Zm6.294,24.628c1.3-2.113,4.461-.788,5.962-1.732a3.548,3.548,0,0,0-.407,2.491c-1.553.28-2.989-.9-4.109.127-.384-.492-.557-1.423-1.446-.882Zm-36.89-187.083c-.042-.9.977-.368,1.335-.713.072,1.954-.576.677-1.335.716ZM963.5,446.9a2.716,2.716,0,0,0-.036-1.592c.837-.488.788.922,1.628.436.176.983-.82.98-1.592,1.159Zm.137-3.634c-.085-.381-.166-.762-.247-1.146,1.221-1.211,2.211-.205,3.93-.091-.967,1.211-2.439.163-3.682,1.24Zm3.6-1.628c2.181-1.719,4.649.039,7.293-1.768a10.6,10.6,0,0,0,.257,2.348c-1.661-.886-4.643-.977-4.783.768-.541.029-.817-.495-.938-1.384-.775.537-.2.651.059,1.6-.882.046-1.068-1.459-1.888-1.547ZM931.812,277.8c-.391-1.716.573.042.977-.635-.036,1.016-.459.85-.977.648Zm4.158,10.24a5.27,5.27,0,0,1,3.419-1.81c1.312-.251,2.67-.286,3.686-.485.326-.511-.57-1.628-.918-1.367-.088-1.114.775-.1,1.052-.3.2.674,0,.866.218,1.566.293.827.905-.1,1.325.02a4.409,4.409,0,0,1-1.39,2.217,3.907,3.907,0,0,1-1.953.69c-.726.078-1.5.078-2.344.114a9.467,9.467,0,0,0-2.657.449c-.1-.528-.212-1.068-.436-1.078Zm-4.623-22.2c.023-.677.609-.6.82-1.019.134.687.384.749.515,1.478-.579.56-.762-.987-1.335-.446Zm44.235,175.782c-.326-1.485.941-1.716,1.983-2.126.208.651-.16.9.085,1.592C976.773,440.388,976.529,441.525,975.581,441.629Zm-39.6-172.565a14.345,14.345,0,0,0-.482-2.706c.977.036,1.569.772,2.768,1.263-.134,1.823-1.433.563-2.286,1.455Zm3.256-8.241-.778.234a13.584,13.584,0,0,1,1.849-1.345,10.861,10.861,0,0,1,2.107-1.048,9.855,9.855,0,0,1,1.146-.342,8.29,8.29,0,0,1,1.175-.212,8.122,8.122,0,0,1,2.494.124c.127-.153-.134-.778.052-.856a2.568,2.568,0,0,1,1.1.453c.326,1.166-.518.886-.918,1.159.156.537.309,1.065.5,1.068-1.218,1.263-4.115,1.146-5.825,3.979a3.255,3.255,0,0,1-1.765-1.494c-.374.453.423,1.185.508,1.882-.326.414-1.123-1.257-1.052-.1-.55-.189-.326-.508-.56-1.459-.651.8-1.114,1.442-1.7,1.322.16,1.319.651.443.977.518-.146,1.481-1.442,1.28-2.1.593-.479-1.413.137-2.7-.817-2.6.189-.759.9-.615,1.563-.5s1.241.179,1.195-.694c-1.4-.55-3.256,1.361-4.435-.765a2.165,2.165,0,0,1,2.315-1.091,3.762,3.762,0,0,0,2.556-.326Zm-.9,15.694c-.241-1.026-.059-1.927.4-1.328.3,1-.127,1.088-.4,1.341Zm1.133-2.742c.042.326-.075.423.023.8,2.152-.563,2.23-1.175,3.862-2.344.869,1.853.27,2.826-.651,3.432s-2.175.847-2.627,1.192c-.99-.791-1.5-2.308-.612-3.07Zm-.456-5.965c-.117-.908.274-1.166.15-2.081.515,1.071,1.38-.374,1.846,1.087-1-.889-.957,1.589-2,1.006Zm10.745,14.284c.111.361.3.221.453.267.117.55-.472.29-.3.912.215.4.5.352.791.212s.586-.371.85-.326c-.182,2-2.123,2-2.442,3.236a4.471,4.471,0,0,1-.651-2.253c-.511-1.221-.4.072-.9-.54-.345.651.759.606.872,1.774-1.325.449-1.761.039-2.067,1.442-.713-.4-.137-.628-1.159-.065-.781-2.6.977-.876,1.179-1.954-1.013-1.423-1.908,2.077-2.575-.472a4.152,4.152,0,0,0,1.683-.651c.557-.326,1.117-.739,1.687-1.087a4.352,4.352,0,0,1,1.827-.674,3.422,3.422,0,0,1,2.142.576c-.13.85-.824-.8-1.4-.384Zm-8.045-12.636c-.6.065.033-1.527-.567-1.462-.15-1.2.589,0,.749.182.293.873-.358.573-.186,1.293Zm.244-1.706a2.758,2.758,0,0,1,2.2-.977,1.318,1.318,0,0,1,1.4,1.491c-1.257-1.319-1.869.667-3.608-.5Zm11.344,29.2c-.326-.046-.036-.713-.4-.7-.127-1.807,1.527-.55,2.175-.694.179,1.013-.257,1.042-.742.977s-1.022-.218-1.035.427Zm1.82-.58.9-.3c0,.371,0,.742.225.749.124.554-.5.326-.326.931-.342.023-.6-.495-.8-1.364ZM945.6,266.622a3.369,3.369,0,0,1,2.123-1.188,14.277,14.277,0,0,0,1.423-.472,4.29,4.29,0,0,0,1.27-.82c-.059,1.628-.674,2.1-1.488,2.279a5.049,5.049,0,0,0-2.484.742C946.265,265.971,945.913,266.622,945.6,266.622Zm15.739,30.528c.651.537,1.335-1.12,2.172.472.277-.456.28-1.182.977-1.2.361.729.918,1,.814,1.778-.375.27-.57-.993-.918-.908-.375.267-.072,1.159.381,1.114a6.963,6.963,0,0,1-2.077,1.354,4.731,4.731,0,0,1-2.279.2c.3-.479.326-1.882,1.029-1.195-.733-2.305-1.153-.687-1.384.078-.192-.44-1.156-1.244-.833-1.358-.4-1.172.882-.326,1.192-1.257-.83-.912-1.976.944-2.448.436.4.869.977,1.8.218,1.986-.7-2.628-1.755-2.81-2.839-2.761a4.111,4.111,0,0,0-.274-1.556c1.156.326,2.582-.456,4-1.38a24.724,24.724,0,0,1,2.172-1.3,5.189,5.189,0,0,1,2.142-.667c.254.651.059.853.326,1.54.495-.384.121-1.628.69-1.934l.524,1.475c.326-.068.2-.589.56-.625.326-.355-.417-.5-.225-1.169l.847-.345c.127.436.277.651.436.671-.039.9.247,2.123-.527,2.315a4.113,4.113,0,0,1,.7,1.4c-.674-.583-.749,1.055-1.54.156a2.641,2.641,0,0,0,.166,1.612,11.81,11.81,0,0,0-2.051.257,7.489,7.489,0,0,0-1.95.82ZM950.192,260.9c.518,1.143.147,1.234.326,1.954-.977-.143-1.094.205-2.051.326,1.429,1.5-1.55,1.862-2.13.72a2.77,2.77,0,0,1,2.168-1.436c.8-.215,1.5-.449,1.687-1.56Zm-1.068-1.273c-.244-.882.566-.443.726-.264.313,1.348-.371.619-.726.267Zm1.973,3.021c-.554-1.335-.306-1.722.247-1.745.449.977-.042.853.2,1.589,1.54.651,2.318-.944,3.666,1.524-1.231-.189-1.3.85-1.83,1.954-.326-.293-.625-.889-.977-.889-.059-.944.182-.7.619-.651a4.435,4.435,0,0,0-.928-1.459,1.1,1.1,0,0,0-1-.319Zm4.5-2.142c-.2-.889.736-.713.977.443a.593.593,0,0,1-.427.6c-.186-.527-.365-1.052-.55-1.042Zm78.6,188.574c.205-1.807,1.81-.368,3.106-.856.567.947-1.908.456-1.345,1.4-.824.466-.834-1.289-1.762-.54Zm8.622-8.791c1.628-1.38,4.076-.837,5.19-3.256,1.107-.615,1.42,1.371,2.6.488.628.508-.414,1.661.674,1.413-1.218,1.709-2.328,2.172-4.083,3.21a1.547,1.547,0,0,1-.817-1.778c-1.211.046-2.54.42-3.581-.078ZM969.144,264.724c-.326-.791.511-.433.651-.755C970.251,264.942,969.545,265.127,969.144,264.724Zm-2.53-7.023c-.306-.82.573-.456.745-.8C968.243,258.944,966.992,257.18,966.615,257.7Zm6.906,1.661c-.677-.4-.355-1.426.1-1.394,1.006,1.638-.358.84-.094,1.394Zm88.168,147.592c.69-1.032,2.051-1.781.791-2.732,1.954-1.69,5.209,1.931,4.145,4.353C1064.915,408.369,1062.99,409.206,1061.688,406.953Zm-58.379-117.676c-.713-.993-.326-1.286.186-1.524.348.612.632.573.977,1.218C1004.11,289.277,1003.732,289.537,1003.309,289.277Zm85.166,95.842c-1.3-1.361.052-2.038.153-3.035-1.726-2.576-3.187-2.51-3.236-4.884.83-.853,1.628-.27,2.435-.387,2.25,2.5,2.139,2.6,3.256,5.382-.449.827-2.1,1.354-.85,2.6a2.031,2.031,0,0,0-.866.169A2.111,2.111,0,0,1,1088.475,385.119Zm-44.108-63.6c-.43-.765.846-1.042,1.162-.905a1.071,1.071,0,0,1-.326,1.231C1044.9,321.26,1044.63,321.374,1044.366,321.524Zm46.12,56.188c.417-.381.814-.026,1.234-.456.879.713.264,1.074.938,1.742C1091.929,378.7,1091.19,378.838,1090.487,377.711ZM1014.3,275.123c-.977-1.091.57-1.651,1.143-.4.212.908-.638.384-1.127.4Zm10.094-.166.306-.264c.775,1.013,1.547,1.143.925,1.778-.684-1.058-1.035-.687-1.221-1.514Z" transform="translate(-670.48 -242.3)"/>
</svg>
