<svg xmlns="http://www.w3.org/2000/svg" width="94.276" height="104.743" viewBox="0 0 94.276 104.743">
  <defs>
    <style>
      .cls-1 {
        fill: #febd23;
      }

      .cls-2 {
        fill: #fe8266;
      }

      .cls-3 {
        fill: #2fd5b1;
      }

      .cls-4 {
        fill: #4067f2;
      }

      .cls-5 {
        fill: #f97696;
      }
    </style>
  </defs>
  <g id="Group_1224" data-name="Group 1224" transform="translate(-36.006 -229)">
    <path id="Path_889" data-name="Path 889" class="cls-1" d="M182.9-5899.3c1.712-5.421-6.563,8.846-6.563,8.846s10.557,11.413,14.267,8.274a40.091,40.091,0,0,0,6.848-8.274S181.188-5893.877,182.9-5899.3Z" transform="translate(-129 6190.037)"/>
    <path id="Path_890" data-name="Path 890" class="cls-1" d="M180.468-5899.754c1.078-3.412-4.131,5.568-4.131,5.568s6.646,7.185,8.981,5.208a25.233,25.233,0,0,0,4.311-5.208S179.39-5896.341,180.468-5899.754Z" transform="translate(-125.088 6129.527)"/>
    <path id="Path_899" data-name="Path 899" class="cls-2" d="M181.764-5893.938c-.638,2.021,2.447-3.3,2.447-3.3s-3.937-4.257-5.32-3.086a14.948,14.948,0,0,0-2.554,3.086S182.4-5895.961,181.764-5893.938Z" transform="translate(-771.65 6160.64) rotate(7)"/>
    <path id="Path_897" data-name="Path 897" class="cls-3" d="M424.846-5891.949s3.572,4.564,5.458,4.267-2.183,4.068-2.183,4.068-6.748-1.786-5.557-4.068S424.846-5891.949,424.846-5891.949Z" transform="matrix(0.875, 0.485, -0.485, 0.875, -3185.887, 5211.751)"/>
    <path id="Path_898" data-name="Path 898" class="cls-3" d="M425.722-5891.95s4.864,6.215,7.431,5.81-2.972,5.539-2.972,5.539-9.187-2.432-7.566-5.539S425.722-5891.95,425.722-5891.95Z" transform="matrix(-0.914, 0.407, -0.407, -0.914, -1905.569, -5233.352)"/>
    <path id="Path_900" data-name="Path 900" class="cls-4" d="M440.074-5926.848l-1.975,5.487,6.585,1.976,1.317-5.048Z" transform="translate(4318.276 4474.254) rotate(-50)"/>
    <rect id="Rectangle_567" data-name="Rectangle 567" class="cls-5" width="9" height="6" transform="translate(96 293)"/>
  </g>
</svg>
