<svg xmlns="http://www.w3.org/2000/svg" width="250.919" height="71.626" viewBox="0 0 250.919 71.626">
  <defs>
    <style>
      .cls-1, .cls-2 {
        fill: #fff;
      }

      .cls-2, .cls-3 {
        font-size: 46px;
        font-family: SegoeUI, Segoe UI;
      }

      .cls-2 {
        letter-spacing: 0.1em;
      }

      .cls-3 {
        fill: #1fc39e;
        letter-spacing: 0.07em;
      }
    </style>
  </defs>
  <g id="KAruna-01" transform="translate(-20.42 -13.939)">
    <path id="Path_7795" data-name="Path 7795" class="cls-1" d="M87.06,31.5l-3.417,1.37a32.117,32.117,0,0,1-3.152,38.022l3.548,1.415A35.747,35.747,0,0,0,87.06,31.5ZM56.26,81.934A32.178,32.178,0,1,1,81.208,29.46l3.515-1.4A35.812,35.812,0,1,0,81.082,75.54l-3.743-1.5A32.007,32.007,0,0,1,56.26,81.934Z" transform="translate(0 0)"/>
    <text id="ARUNA" class="cls-2" transform="translate(99.339 65.752)"><tspan x="0" y="0">ARUNA</tspan></text>
    <text id="K" class="cls-3" transform="translate(40.838 65.752)"><tspan x="0" y="0">K</tspan></text>
  </g>
</svg>
