<?xml version="1.0" encoding="utf-8"?>
<!-- Generator: Adobe Illustrator 24.2.3, SVG Export Plug-In . SVG Version: 6.00 Build 0)  -->
<svg version="1.1" id="Layer_1" xmlns="http://www.w3.org/2000/svg" xmlns:xlink="http://www.w3.org/1999/xlink" x="0px" y="0px"
	 viewBox="0 0 509.4 245.7" style="enable-background:new 0 0 509.4 245.7;" xml:space="preserve">
<style type="text/css">
	.st0{fill:url(#SVGID_1_);}
	.st1{fill:#00929E;}
	.st2{fill:#8C0052;}
	.st3{fill:url(#SVGID_2_);}
	.st4{fill:url(#SVGID_3_);}
	.st5{fill:url(#SVGID_4_);}
	.st6{fill:url(#SVGID_5_);}
	.st7{fill:url(#SVGID_6_);}
	.st8{fill:url(#SVGID_7_);}
	.st9{fill:url(#SVGID_8_);}
	.st10{fill:url(#SVGID_9_);}
	.st11{fill:url(#SVGID_10_);}
</style>
<linearGradient id="SVGID_1_" gradientUnits="userSpaceOnUse" x1="47.3723" y1="1336.0806" x2="273.86" y2="1336.0806" gradientTransform="matrix(1 0 0 1 -14.59 -1163.21)">
	<stop  offset="0" style="stop-color:#9B399C"/>
	<stop  offset="1" style="stop-color:#4A3C9E"/>
</linearGradient>
<path class="st0" d="M259.3,165.1c-5.3,14.5-13.2,27.8-23.4,39.4c-22.9,26.1-55.9,41.1-90.6,41.2H143
	c-46.9-0.9-87.3-28.6-107.2-68.7l6.7-2.9l0,0c-1.8-3-7.4-12.6-9.4-13.3c-2.3-0.8,9.5-4.7,10.8-6.6l1.3,3.1c0,0,1.6-0.7,1.4-3.8
	c0,0,14.6-14.3,13.8-34.7c0,0,2.6,0.8,2.7,0.2c0,0,1.6,0.1-1.6-1.9c-3.3-2-11.5-5.2-10.2-11.6s3.2-5.3,3.2-5.3l17.5,9.5L73,131
	c0,0-11.1,12.4-6.8,22.6l3.5,6.8l-4.2,3.7l-0.1,0.1l14.4-6.3c12.7,24.1,37.8,39.3,65.1,39.3c14.1,0,27.9-4.1,39.7-11.7
	c0.4-0.2,0.8-0.5,1.1-0.7c0.7-0.5,1.4-1,2.2-1.5c6.9-5,12.8-11.1,17.6-18.1L259.3,165.1z"/>
<path class="st1" d="M274.3,94.2H287v31.3c0,6.2,3.1,9.8,9.1,9.8s9.3-3.6,9.3-9.8V94.2h12.8v31.3c0,14.5-10.1,21.6-22.2,21.6
	s-21.6-7.2-21.6-21.6L274.3,94.2z"/>
<path class="st1" d="M109.2,123.7v23.1H96.4V94.4h12.8v23l17.5-23h15l-20.3,25.7l21.1,26.7h-15.6L109.2,123.7z"/>
<path class="st1" d="M188.5,137.5H169l-3.1,9.3h-13.4l19-52.4h14.7l18.9,52.4h-13.5L188.5,137.5z M178.7,108.5l-6.4,19.2h12.9
	L178.7,108.5z"/>
<path class="st1" d="M381.4,94.4v52.4h-12.7l-21.3-32.3v32.3h-12.8V94.4h12.8l21.3,32.4V94.4H381.4z"/>
<path class="st1" d="M430.8,137.5h-19.6l-3.1,9.3h-13.4l19-52.4h14.7l19,52.4h-13.5L430.8,137.5z M421,108.5l-6.4,19.2h12.9
	L421,108.5z"/>
<path class="st1" d="M492.8,137.5h-19.6l-3.1,9.3h-13.4l19-52.4h14.7l19,52.4h-13.5L492.8,137.5z M483,108.5l-6.4,19.2h12.9
	L483,108.5z"/>
<path class="st2" d="M326.6,153.7L326.6,153.7l-0.1,0.1L326.6,153.7z"/>
<path class="st2" d="M326.6,153.7L326.6,153.7l-0.1,0.1L326.6,153.7z"/>
<path class="st1" d="M287,125.7V94.4h-12.8v31.3c0,13.9,8.8,21.1,20.2,21.6v-11.9C289.5,134.8,287,131.3,287,125.7z"/>
<path class="st1" d="M239.8,94.4c12.8,0,19.3,7.4,19.3,16.5c0,6.6-3.6,12.8-11.6,15.2l12.1,20.8h-14.4L234.2,127h-3.1v19.8h-12.7
	V94.4H239.8z M239,105h-7.9v13h7.9c4.8,0,7-2.5,7-6.6C246.1,107.5,243.8,105,239,105z"/>
<linearGradient id="SVGID_2_" gradientUnits="userSpaceOnUse" x1="94.5" y1="1340.6801" x2="199.28" y2="1340.6801" gradientTransform="matrix(1 0 0 1 -14.59 -1163.21)">
	<stop  offset="0" style="stop-color:#9B399C"/>
	<stop  offset="1" style="stop-color:#4A3C9E"/>
</linearGradient>
<path class="st3" d="M184.7,185.4c-11.8,7.7-25.6,11.7-39.7,11.7c-27.3-0.1-52.3-15.2-65.1-39.4l0,0c13,24,38,38.9,65.3,39
	C159.2,196.8,172.9,192.9,184.7,185.4z"/>
<linearGradient id="SVGID_3_" gradientUnits="userSpaceOnUse" x1="159.86" y1="1388.3149" x2="250.64" y2="1388.3149" gradientTransform="matrix(1 0 0 1 -14.59 -1163.21)">
	<stop  offset="0" style="stop-color:#9B399C"/>
	<stop  offset="1" style="stop-color:#4A3C9E"/>
</linearGradient>
<path class="st4" d="M236.1,204.7c-23,26-56,41-90.8,41c34.7-0.1,67.7-15.1,90.6-41.2L236.1,204.7z"/>
<linearGradient id="SVGID_4_" gradientUnits="userSpaceOnUse" x1="28.61" y1="1251.5798" x2="38.3" y2="1251.5798" gradientTransform="matrix(1 0 0 1 -14.59 -1163.21)">
	<stop  offset="0" style="stop-color:#9B399C"/>
	<stop  offset="1" style="stop-color:#4A3C9E"/>
</linearGradient>
<path class="st5" d="M17.3,92.9c0,0-5.8-4.5-1.8-7.9s8.1,2,8.3,2S17.3,92.9,17.3,92.9z"/>
<linearGradient id="SVGID_5_" gradientUnits="userSpaceOnUse" x1="21.8266" y1="1263.3385" x2="36.3566" y2="1263.3385" gradientTransform="matrix(1 0 0 1 -14.59 -1163.21)">
	<stop  offset="0" style="stop-color:#9B399C"/>
	<stop  offset="1" style="stop-color:#4A3C9E"/>
</linearGradient>
<path class="st6" d="M20.7,104.8c-2.2,2.3-4.4,2.3-5.7,1.4s-7.1-5.6-7.1-5.6S5.8,98.1,9,95s6-0.5,6-0.5l6.1,5.1
	C21.1,99.6,22.9,102.5,20.7,104.8z"/>
<linearGradient id="SVGID_6_" gradientUnits="userSpaceOnUse" x1="17.3308" y1="1273.5044" x2="31.8168" y2="1273.5044" gradientTransform="matrix(1 0 0 1 -14.59 -1163.21)">
	<stop  offset="0" style="stop-color:#9B399C"/>
	<stop  offset="1" style="stop-color:#4A3C9E"/>
</linearGradient>
<path class="st7" d="M16.1,114.9c-2.2,2.3-4.4,2.3-5.6,1.4s-7.1-5.5-7.1-5.5s-2.1-2.5,1.1-5.6s6-0.6,6-0.6l6.1,5
	C16.6,109.7,18.3,112.7,16.1,114.9z"/>
<linearGradient id="SVGID_7_" gradientUnits="userSpaceOnUse" x1="14.57" y1="1283.3837" x2="25.82" y2="1283.3837" gradientTransform="matrix(1 0 0 1 -14.59 -1163.21)">
	<stop  offset="0" style="stop-color:#9B399C"/>
	<stop  offset="1" style="stop-color:#4A3C9E"/>
</linearGradient>
<path class="st8" d="M10.4,123.8c-1.7,1.8-3.4,1.8-4.4,1.1s-5.5-4.3-5.5-4.3s-1.6-1.9,0.9-4.3s4.6-0.4,4.6-0.4l4.7,4
	C11.5,121.1,11.3,122.7,10.4,123.8z"/>
<linearGradient id="SVGID_8_" gradientUnits="userSpaceOnUse" x1="92.3409" y1="1250.4027" x2="92.5709" y2="1250.3228" gradientTransform="matrix(1 0 0 1 -14.59 -1163.21)">
	<stop  offset="0" style="stop-color:#DE3781"/>
	<stop  offset="0.99" style="stop-color:#F67732"/>
</linearGradient>
<polygon class="st9" points="78,87.2 77.7,87.1 77.7,87.1 "/>
<linearGradient id="SVGID_9_" gradientUnits="userSpaceOnUse" x1="50.33" y1="1364.9399" x2="157.63" y2="1364.9399" gradientTransform="matrix(1 0 0 1 -14.59 -1163.21)">
	<stop  offset="0" style="stop-color:#9B399C"/>
	<stop  offset="1" style="stop-color:#4A3C9E"/>
</linearGradient>
<path class="st10" d="M35.8,177l6.7-2.9l0,0L35.8,177C55.4,217.2,96,244.9,143,245.7C96.2,244.8,55.7,217.1,35.8,177z M79.9,157.8
	L65.6,164l-0.1,0.1L79.9,157.8L79.9,157.8z"/>
<linearGradient id="SVGID_10_" gradientUnits="userSpaceOnUse" x1="24.3299" y1="1243.1423" x2="271.22" y2="1243.1423" gradientTransform="matrix(1 0 0 1 -14.59 -1163.21)">
	<stop  offset="0" style="stop-color:#DE3781"/>
	<stop  offset="0.99" style="stop-color:#F67732"/>
</linearGradient>
<path class="st11" d="M256.6,76h-55.3c-25.4-31.6-71.6-36.6-103.2-11.2c-7.9,6.3-14.3,14.2-19,23.1l-1.4-0.6l-1.5,2.8l-6.7-3.3
	c-6.1,5.2-2.2,17.2-2.1,17.7l-12.9-7.7c-7.8,1.6-6.4,8.6-6.1,11.5c0.3,2.7,9.1,10.4,9.1,10.4c-1,9.2-2.1,13.1-6,21.1
	s-8.9,11.4-8.9,11.4s-8.6,5.2-12,7.5s-4,0.4-5.8-1.4c-1-1-1.2-2.5-0.4-3.7l14.6-11.8c0.3-2.3-1.6-1.8-1.6-1.8s-11.3,8.2-14.4,10.3
	s-3.7,0.4-5.3-1.8s0.9-4.4,0.9-4.4L32,133.8c0.9-1.9-1.2-1.5-1.2-1.5s-11.3,7.2-13.3,8.5s-2.7,1.3-4.6-1c-1.1-1.2-1.4-2.9-0.7-4.3
	l13.1-9.7c0.8-1.9-1.2-1.6-1.2-1.6l-11.9,7.7c-4.8-0.4-1.1-5.5-1.1-5.5c12.5,3,9.9-7.9,9.9-7.9c8.4-1.1,5.2-9.6,5.2-9.6
	c9.8-0.6,5.6-10.2,5.6-10.2L27,94c9.6-5.4,13.7-18,13.7-18l6.1,2.7l1.1-1.8l1.8-1.8l-14.8-6.4C54.8,28,96.2,0,144.1,0
	C194.8,0,238.3,31.4,256.6,76z"/>
</svg>
