<svg id="Layer_1" data-name="Layer 1" xmlns="http://www.w3.org/2000/svg" xmlns:xlink="http://www.w3.org/1999/xlink" viewBox="0 0 447.41 245.69"><defs><style>.cls-1{fill:url(#linear-gradient);}.cls-2{fill:#00929e;}.cls-3{fill:#8c0052;}.cls-4{fill:url(#linear-gradient-2);}.cls-5{fill:url(#linear-gradient-3);}.cls-6{fill:url(#linear-gradient-4);}.cls-7{fill:url(#linear-gradient-5);}.cls-8{fill:url(#linear-gradient-6);}.cls-9{fill:url(#linear-gradient-7);}.cls-10{fill:url(#linear-gradient-8);}.cls-11{fill:url(#linear-gradient-9);}.cls-12{fill:url(#linear-gradient-10);}</style><linearGradient id="linear-gradient" x1="47.37" y1="77.92" x2="273.86" y2="77.92" gradientTransform="matrix(1, 0, 0, -1, 0, 258)" gradientUnits="userSpaceOnUse"><stop offset="0" stop-color="#9b399c"/><stop offset="1" stop-color="#4a3c9e"/></linearGradient><linearGradient id="linear-gradient-2" x1="94.5" y1="73.32" x2="199.28" y2="73.32" xlink:href="#linear-gradient"/><linearGradient id="linear-gradient-3" x1="159.86" y1="25.69" x2="250.64" y2="25.69" xlink:href="#linear-gradient"/><linearGradient id="linear-gradient-4" x1="28.61" y1="162.42" x2="38.3" y2="162.42" xlink:href="#linear-gradient"/><linearGradient id="linear-gradient-5" x1="21.83" y1="150.66" x2="36.36" y2="150.66" xlink:href="#linear-gradient"/><linearGradient id="linear-gradient-6" x1="17.33" y1="140.5" x2="31.82" y2="140.5" xlink:href="#linear-gradient"/><linearGradient id="linear-gradient-7" x1="14.57" y1="130.62" x2="25.82" y2="130.62" xlink:href="#linear-gradient"/><linearGradient id="linear-gradient-8" x1="92.34" y1="163.6" x2="92.57" y2="163.68" gradientTransform="matrix(1, 0, 0, -1, -14.59, 250.79)" gradientUnits="userSpaceOnUse"><stop offset="0" stop-color="#de3781"/><stop offset="0.99" stop-color="#f67732"/></linearGradient><linearGradient id="linear-gradient-9" x1="50.33" y1="49.06" x2="157.63" y2="49.06" xlink:href="#linear-gradient"/><linearGradient id="linear-gradient-10" x1="24.33" y1="170.86" x2="271.22" y2="170.86" gradientTransform="matrix(1, 0, 0, -1, 0, 258)" xlink:href="#linear-gradient-8"/></defs><title>Karuna logo - English</title><path class="cls-1" d="M273.86,172.32a123.24,123.24,0,0,1-23.44,39.4,120.89,120.89,0,0,1-90.56,41.17h-2.24C110.75,252,70.29,224.31,50.37,184.2l6.72-2.92h0c-1.75-3-7.43-12.59-9.41-13.28-2.35-.81,9.49-4.7,10.76-6.6l1.35,3.08s1.63-.73,1.36-3.8c0,0,14.64-14.28,13.83-34.72,0,0,2.62.82,2.71.18,0,0,1.63.09-1.62-1.89S64.57,119,65.84,112.66,69,107.33,69,107.33l17.54,9.49,1.09,21.35s-11.12,12.37-6.78,22.59l3.52,6.78-4.17,3.68-.08.07L94.5,165a73.76,73.76,0,0,0,65.07,39.32,72.78,72.78,0,0,0,39.71-11.73c.38-.23.76-.48,1.13-.73.73-.48,1.44-1,2.16-1.51a74.86,74.86,0,0,0,17.62-18.07Z" transform="translate(-14.59 -7.21)"/><path class="cls-2" d="M288.86,101.55h12.76v31.34c0,6.2,3.06,9.78,9.1,9.78s9.26-3.58,9.26-9.78V101.55h12.76v31.27c0,14.48-10.15,21.64-22.24,21.64s-21.64-7.16-21.64-21.64Z" transform="translate(-14.59 -7.21)"/><path class="cls-2" d="M123.78,130.8v23.14H111V101.55h12.76v23l17.46-23h15l-20.3,25.67L157,153.94H141.4Z" transform="translate(-14.59 -7.21)"/><path class="cls-2" d="M203.11,144.68H183.56l-3.14,9.26H167.06l19-52.39H200.8l18.95,52.39H206.24Zm-9.78-29-6.42,19.18h12.92Z" transform="translate(-14.59 -7.21)"/><path class="cls-2" d="M396,101.55v52.39H383.26l-21.34-32.32v32.32H349.15V101.55h12.77L383.26,134V101.55Z" transform="translate(-14.59 -7.21)"/><path class="cls-2" d="M445.35,144.68H425.8l-3.14,9.26H409.3l19-52.39H443l19,52.39H448.5Zm-9.78-29-6.41,19.18h12.91Z" transform="translate(-14.59 -7.21)"/><path class="cls-3" d="M341.2,160.94V161h-.14Z" transform="translate(-14.59 -7.21)"/><path class="cls-3" d="M341.2,160.94V161h-.14Z" transform="translate(-14.59 -7.21)"/><path class="cls-2" d="M301.62,132.93V101.58H288.86v31.27c0,13.93,8.76,21.07,20.24,21.61V142.6C304.13,142,301.62,138.53,301.62,132.93Z" transform="translate(-14.59 -7.21)"/><path class="cls-2" d="M254.38,101.55c12.83,0,19.25,7.39,19.25,16.49,0,6.57-3.58,12.76-11.64,15.15l12.09,20.75h-14.4l-10.9-19.78h-3.06v19.78H233V101.55Zm-.75,10.6h-7.91v13h7.91c4.78,0,7-2.46,7-6.57C260.65,114.68,258.41,112.15,253.63,112.15Z" transform="translate(-14.59 -7.21)"/><path class="cls-4" d="M199.28,192.63a72.78,72.78,0,0,1-39.71,11.73A73.77,73.77,0,0,1,94.5,165h0a74.56,74.56,0,0,0,65.31,39A73.43,73.43,0,0,0,199.28,192.63Z" transform="translate(-14.59 -7.21)"/><path class="cls-5" d="M250.64,211.9a121.27,121.27,0,0,1-90.78,41,120.89,120.89,0,0,0,90.56-41.17Z" transform="translate(-14.59 -7.21)"/><path class="cls-6" d="M31.84,100.1S26.06,95.64,30,92.2s8.08,2,8.32,2S31.84,100.1,31.84,100.1Z" transform="translate(-14.59 -7.21)"/><path class="cls-7" d="M35.28,112c-2.17,2.3-4.4,2.3-5.67,1.39s-7.11-5.56-7.11-5.56-2.11-2.52,1.14-5.59,6-.54,6-.54l6.09,5.06S37.45,109.74,35.28,112Z" transform="translate(-14.59 -7.21)"/><path class="cls-8" d="M30.73,122.14c-2.16,2.29-4.38,2.29-5.64,1.38S18,118,18,118s-2.1-2.5,1.14-5.56,5.95-.55,5.95-.55l6.06,5S32.9,119.86,30.73,122.14Z" transform="translate(-14.59 -7.21)"/><path class="cls-9" d="M25,131c-1.69,1.77-3.41,1.77-4.39,1.07s-5.5-4.31-5.5-4.31-1.64-1.94.88-4.32,4.62-.42,4.62-.42l4.69,4A3.46,3.46,0,0,1,25,131Z" transform="translate(-14.59 -7.21)"/><polygon class="cls-10" points="78.01 87.23 77.68 87.1 77.68 87.09 78.01 87.23"/><path class="cls-11" d="M50.37,184.2l6.72-2.92h0l-6.76,2.94c19.63,40.15,60.23,67.92,107.3,68.66C110.75,252,70.29,224.31,50.37,184.2ZM94.48,165,80.2,171.22l-.08.07L94.5,165Z" transform="translate(-14.59 -7.21)"/><path class="cls-12" d="M271.22,83.16H215.9A73.43,73.43,0,0,0,93.64,95.09l-1.45-.63-1.46,2.8L84,94c-6.1,5.21-2.2,17.22-2.06,17.65L69,104c-7.77,1.63-6.42,8.56-6.14,11.49.25,2.71,9.07,10.42,9.07,10.42-1,9.22-2.11,13.08-6,21.13s-8.86,11.44-8.86,11.44-8.59,5.24-12,7.54-4,.37-5.79-1.35a2.92,2.92,0,0,1-.4-3.71l14.6-11.8c.32-2.26-1.63-1.76-1.63-1.76s-11.3,8.23-14.37,10.31-3.71.45-5.29-1.81.86-4.43.86-4.43L46.58,141c.86-1.94-1.22-1.54-1.22-1.54S34.05,146.7,32.06,148s-2.72,1.33-4.58-1a4,4,0,0,1-.73-4.34l13.14-9.74c.85-1.89-1.17-1.59-1.17-1.59L26.78,139c-4.79-.45-1.08-5.51-1.08-5.51,12.47,3,9.85-7.87,9.85-7.87C44,124.51,40.8,116,40.8,116c9.76-.63,5.6-10.22,5.6-10.22l-4.79-4.61c9.58-5.42,13.74-18,13.74-18l6.06,2.71,1.08-1.81,1.75-1.78-14.76-6.4c19.9-40.7,61.35-68.68,109.25-68.68C209.42,7.21,252.88,38.56,271.22,83.16Z" transform="translate(-14.59 -7.21)"/></svg>