<svg xmlns="http://www.w3.org/2000/svg" width="288.033" height="77.349" viewBox="0 0 288.033 77.349">
  <defs>
    <style>
      .cls-1 {
        fill: #006837;
      }

      .cls-2 {
        fill: #136052;
        font-size: 55px;
        letter-spacing: 0.1em;
      }

      .cls-2, .cls-3 {
        font-family: SegoeUI, Segoe UI;
      }

      .cls-3 {
        fill: #af9c31;
        font-size: 54px;
        letter-spacing: 0.07em;
      }
    </style>
  </defs>
  <g id="KAruna-01" transform="translate(-20.42 -11.95)">
    <path id="Path_7795" data-name="Path 7795" class="cls-1" d="M90.534,32.414l-3.6,1.442a33.791,33.791,0,0,1-3.317,40l3.733,1.489a37.61,37.61,0,0,0,3.179-42.934ZM58.128,85.478A33.856,33.856,0,1,1,84.377,30.269l3.7-1.476a37.679,37.679,0,1,0-3.831,49.958l-3.939-1.579A33.676,33.676,0,0,1,58.128,85.478Z" transform="translate(0 0)"/>
    <text id="ARUNA" class="cls-2" transform="translate(103.452 70.95)"><tspan x="0" y="0">ARUNA</tspan></text>
    <text id="K" class="cls-3" transform="translate(41.902 69.95)"><tspan x="0" y="0">K</tspan></text>
  </g>
</svg>
