<svg xmlns="http://www.w3.org/2000/svg" width="195.997" height="101.385" viewBox="0 0 195.997 101.385">
  <defs>
    <style>
      .cls-1 {
        fill: #292724;
        font-size: 33px;
        font-family: SegoeUI, Segoe UI;
      }

      .cls-2 {
        fill: red;
      }
    </style>
  </defs>
  <g id="Group_1093" data-name="Group 1093" transform="translate(-137.003 -8.019)">
    <text id="Karuna" class="cls-1" transform="translate(231 97)"><tspan x="0" y="0">Karuna</tspan></text>
    <g id="Group_799" data-name="Group 799" transform="translate(61.478 -64.004)">
      <g id="Group_798" data-name="Group 798" transform="translate(45.357 -166.973)">
        <path id="Path_5114" data-name="Path 5114" class="cls-2" d="M69.654,288.987s-.621-11.154-.621-23.579c0-14.117-5.155-20.412-16.716-20.412-5.709,0-10.006,1.628-12.771,4.839-2.866,3.328-3.962,8.383-3.085,14.232A10.5,10.5,0,0,0,41.8,271.6c3.282,1.93,6.988,2.245,8.809,1.562,3.666-1.374,5-3.644,4.772-8.1-.126-2.42-3.6-4.387-4.814-4.886l2.252-5.561c.335.135,8.2,3.379,8.554,10.136.365,7.015-2.548,11.733-8.658,14.024-3.85,1.444-9.459.637-13.957-2.008a16.441,16.441,0,0,1-8.233-11.81c-1.14-7.6.448-14.365,4.472-19.038C38.9,241.39,44.889,239,52.317,239c10.363,0,22.716,4.582,22.716,26.412,0,12.233.61,23.215.612,23.246Z"/>
        <path id="Path_5115" data-name="Path 5115" class="cls-2" d="M107.731,421.77a14.261,14.261,0,0,1-7.761-2.311,18.607,18.607,0,0,1-16.117-.832c-9.758-5.111-12.448-13.818-7.574-24.515l5.46,2.488c-3.55,7.792-1.994,13.1,4.9,16.712a12.443,12.443,0,0,0,12.01.125l1.816-1.13,1.683,1.334a8.512,8.512,0,0,0,9.274,1.282c5.365-1.846,7.164-6.1,7.164-15.939,0-8.757-5.08-13.985-13.59-13.985-3.911,0-6.958,1.138-8.812,3.29-1.9,2.21-2.63,5.569-2.046,9.46a7.194,7.194,0,0,0,3.9,5.089c2.432,1.313,5.024,1.393,6.327.793,1.587-.731,2.331-1.66,1.992-4.711-.158-1.421-2.43-2.157-2.453-2.164l1.622-5.777c2.293.632,6.305,2.877,6.794,7.278.583,5.249-1.248,8.89-5.445,10.823-3.247,1.5-7.835,1.118-11.688-.963A13.083,13.083,0,0,1,88.2,398.64c-.847-5.645.373-10.711,3.433-14.265C93.748,381.923,97.78,379,105,379c11.9,0,19.59,7.844,19.59,19.985,0,5.783,0,17.817-10.74,21.4A13.2,13.2,0,0,1,107.731,421.77Z" transform="translate(-26.471 -84.704)"/>
        <path id="Path_5116" data-name="Path 5116" class="cls-2" d="M122.275,411.387l-5.94-.848c.011-.122.428-4.706-2.461-23.771-1.079-7.122-5.526-13.52-12.522-18.014a43.1,43.1,0,0,0-34.208-4.811c-19.607,5.6-26.191,30.862-26.256,31.116l-5.82-1.458c.294-1.176,7.462-28.865,30.427-35.427,13.017-3.719,28-1.6,39.1,5.532,8.468,5.44,13.87,13.311,15.211,22.163C122.865,406.054,122.345,410.9,122.275,411.387Z" transform="translate(-2.913 -71.005)"/>
      </g>
    </g>
  </g>
</svg>
